SplineFontDB: 3.2
FontName: NVCharter-Bold
FullName: NV Charter Bold
FamilyName: NV Charter
Weight: Bold
Copyright: Copyright (c) 1989-1992, Bitstream Inc., Cambridge, MA.\nCopyright (c) 2009, 2010, 2011, 2012 Andrey V. Panov \nCopyright (c) 2013-2024 Michael Sharpe\nCopyright (c) 2025 Nico Verbruggen\n\nXCharter is an extension of Bitstream Charter, whose original license is reproduced below, as required under the terms of that license. The extension provides small caps, oldstyle figures and superior figures in all four styles, accompanied by LaTeX font support files.\n\nNV Charter is based on XCharter, but contains some manual tweaks and adjustments to metrics for an improved digital reading experience.\n\n---\n\nYou are hereby granted permission under all Bitstream propriety rights\nto use, copy, modify, sublicense, sell, and redistribute the 4 Bitstream\nCharter (r) Type 1 outline fonts and the 4 Courier Type 1 outline fonts\nfor any purpose and without restriction; provided, that this notice is\nleft intact on all copies of such fonts and that Bitstream's trademark\nis acknowledged as shown below on all unmodified copies of the 4 Charter\nType 1 fonts.\n\nBITSTREAM CHARTER is a registered trademark of Bitstream Inc.
Version: 1.3
ItalicAngle: 0
UnderlinePosition: -109
UnderlineWidth: 90
Ascent: 800
Descent: 200
InvalidEm: 0
sfntRevision: 0x00014ccd
LayerCount: 2
Layer: 0 0 "Back" 1
Layer: 1 0 "Fore" 0
XUID: [1021 782 532578852 9536279]
StyleMap: 0x0020
FSType: 0
OS2Version: 4
OS2_WeightWidthSlopeOnly: 0
OS2_UseTypoMetrics: 1
CreationTime: 1136849748
ModificationTime: 1759846098
PfmFamily: 17
TTFWeight: 700
TTFWidth: 5
LineGap: 90
VLineGap: 0
Panose: 2 0 8 3 0 0 0 0 0 0
OS2TypoAscent: 800
OS2TypoAOffset: 0
OS2TypoDescent: -200
OS2TypoDOffset: 0
OS2TypoLinegap: 90
OS2WinAscent: 963
OS2WinAOffset: 0
OS2WinDescent: 236
OS2WinDOffset: 0
HheadAscent: 963
HheadAOffset: 0
HheadDescent: -236
HheadDOffset: 0
OS2SubXSize: 650
OS2SubYSize: 700
OS2SubXOff: 0
OS2SubYOff: 140

StartChar: .notdef
Encoding: 65536 -1 0
Width: 500
GlyphClass: 1
Flags: MW
HStem: 0 50<100 400 100 450> 483 50<100 400 100 100>
VStem: 50 50<50 50 50 483> 400 50<50 483 483 483>
LayerCount: 2
Fore
SplineSet
50 0 m 1
 50 533 l 1
 450 533 l 1
 450 0 l 1
 50 0 l 1
100 50 m 1
 400 50 l 1
 400 483 l 1
 100 483 l 1
 100 50 l 1
EndSplineSet
EndChar

StartChar: exclam
Encoding: 33 33 2
Width: 340
GlyphClass: 2
Flags: MW
HStem: -7 152<150 190.5> 664 20G<146.5 193.5>
VStem: 95 150<47 89.5>
LayerCount: 2
Fore
SplineSet
170 145 m 0
 211 145 245 111 245 68 c 0
 245 26 211 -7 170 -7 c 0
 130 -7 95 26 95 68 c 0
 95 111 129 145 170 145 c 0
242 555 m 2
 197 198 l 1
 144 198 l 1
 99 553 l 2
 96 577 94 595 94 605 c 0
 94 656 123 684 170 684 c 0
 217 684 246 655 246 602 c 0
 246 592 245 576 242 555 c 2
EndSplineSet
EndChar

StartChar: quotedbl
Encoding: 34 34 3
Width: 339
GlyphClass: 2
Flags: MW
HStem: 418 296<78 78 78 97 242 261 242 242>
VStem: 41 93<658 678> 78 19<418 418> 205 94<658.5 678> 242 19<418 418>
LayerCount: 2
Fore
SplineSet
78 418 m 1xa0
 42 642 l 2
 41 649 41 655 41 661 c 0
 41 695 58 714 87 714 c 0
 117 714 134 696 134 661 c 0xc0
 134 655 134 648 133 642 c 2
 97 418 l 1
 78 418 l 1xa0
242 418 m 1x88
 206 642 l 2
 205 649 205 655 205 661 c 0
 205 695 223 714 252 714 c 0
 281 714 299 695 299 662 c 0x90
 299 655 298 649 297 642 c 2
 261 418 l 1
 242 418 l 1x88
EndSplineSet
EndChar

StartChar: numbersign
Encoding: 35 35 4
Width: 736
GlyphClass: 2
Flags: MW
HStem: 221 60<56 193 56 212 279 389 56 259 477 634> 416 62<105 256 105 276 343 454 105 323 541 675>
LayerCount: 2
Fore
SplineSet
354 710 m 1
 417 692 l 1
 343 478 l 1
 476 478 l 1
 552 709 l 1
 615 691 l 1
 541 478 l 1
 675 478 l 1
 675 416 l 1
 521 416 l 1
 477 281 l 1
 634 281 l 1
 634 221 l 1
 456 221 l 1
 378 -23 l 1
 314 -7 l 1
 389 221 l 1
 259 221 l 1
 179 -24 l 1
 116 -6 l 1
 193 221 l 1
 56 221 l 1
 56 281 l 1
 212 281 l 1
 256 416 l 1
 105 416 l 1
 105 478 l 1
 276 478 l 1
 354 710 l 1
323 416 m 1
 279 281 l 1
 408 281 l 1
 454 416 l 1
 323 416 l 1
EndSplineSet
EndChar

StartChar: dollar
Encoding: 36 36 5
Width: 581
GlyphClass: 2
Flags: MW
HStem: 1 58<266 266 266 321> 607 61<271 271> 722 20G<271 324 324 324>
VStem: 61 67<31 204 204 204> 70 117<485.5 529.5> 271 53<411 607 607 607 669 742> 415 118<151 196> 435 65<476 641>
LayerCount: 2
Fore
SplineSet
271 742 m 1xec
 324 742 l 1
 324 669 l 1
 379 668 438 658 500 641 c 1
 500 476 l 1
 435 476 l 1xed
 417 588 l 1
 396 601 365 608 324 611 c 1
 324 397 l 1
 466 360 533 302 533 202 c 0
 533 100 455 20 321 1 c 1
 321 -102 l 1
 266 -102 l 1
 266 1 l 1
 185 4 117 14 61 31 c 1
 61 204 l 1
 128 204 l 1xf6
 148 86 l 1
 183 68 222 60 266 59 c 1
 266 287 l 1
 133 322 70 381 70 480 c 0
 70 579 142 651 271 668 c 1
 271 742 l 1xec
271 607 m 1
 217 596 187 560 187 510 c 0
 187 461 215 428 271 411 c 1
 271 607 l 1
322 273 m 1
 322 63 l 1
 380 72 415 114 415 170 c 0xe6
 415 222 385 256 322 273 c 1
EndSplineSet
Substitution2: "'smcp' Lowercase to Small Capitals in Latin lookup 4 subtable" dollar.sc
EndChar

StartChar: percent
Encoding: 37 37 6
Width: 888
GlyphClass: 2
Flags: MW
HStem: -12 45<671.5 717 671.5 747> 0 21G<203 273 203 203> 263 46<177.5 222.5 177.5 254> 363 44<672 716.5> 638 45<178 222.5> 651 20G<621 691 691 691>
VStem: 37 95<419 528.5 419 540> 203 70<0 0> 270 100<419 528.5> 529 96<143.5 252.5 143.5 264> 621 70<671 671> 763 100<143 252.5>
LayerCount: 2
Fore
SplineSet
203 683 m 0x3b10
 304 683 370 605 370 474 c 0x3a90
 370 342 305 263 203 263 c 0
 101 263 37 341 37 474 c 0
 37 606 102 683 203 683 c 0x3b10
621 671 m 1x7730
 691 671 l 1
 273 0 l 1
 203 0 l 1
 621 671 l 1x7730
200 638 m 0x3a90
 156 638 132 583 132 474 c 0
 132 364 155 309 200 309 c 0
 245 309 270 364 270 474 c 0
 270 583 245 638 200 638 c 0x3a90
696 407 m 0
 797 407 863 328 863 198 c 0
 863 66 798 -12 696 -12 c 0
 594 -12 529 65 529 198 c 0xb250
 529 330 595 407 696 407 c 0
694 363 m 0
 650 363 625 307 625 198 c 0
 625 89 649 33 694 33 c 0
 740 33 763 88 763 198 c 0
 763 307 739 363 694 363 c 0
EndSplineSet
EndChar

StartChar: ampersand
Encoding: 38 38 7
Width: 741
GlyphClass: 2
Flags: MW
HStem: -12 81<282.5 301> 0 48<514 724> 335 46<502 711 502 711> 627 57<281 329.5>
VStem: 53 126<178.5 227> 101 122<519 563.5> 388 116<495 554>
LayerCount: 2
Fore
SplineSet
317 396 m 1x36
 366 433 388 469 388 521 c 0
 388 587 355 627 304 627 c 0
 258 627 223 592 223 543 c 0
 223 495 257 452 317 396 c 1x36
355 361 m 1
 512 196 l 1
 540 232 558 270 567 309 c 1
 555 326 l 1
 502 335 l 1
 502 381 l 1
 711 381 l 1
 711 335 l 1
 641 322 l 1
 619 256 589 201 550 155 c 1
 641 55 l 1
 724 48 l 1
 724 0 l 1
 514 0 l 1x76
 514 24 l 1
 472 72 l 1
 408 16 339 -12 263 -12 c 0
 139 -12 53 73 53 185 c 0xba
 53 269 99 327 192 357 c 1
 131 406 101 457 101 515 c 0
 101 612 185 684 311 684 c 0
 430 684 504 618 504 530 c 0
 504 448 456 394 355 361 c 1
233 324 m 1
 198 297 179 263 179 225 c 0
 179 132 239 69 326 69 c 0xba
 365 69 400 83 433 112 c 1
 233 324 l 1
EndSplineSet
EndChar

StartChar: quotesingle
Encoding: 39 39 8
Width: 175
GlyphClass: 2
Flags: MW
HStem: 418 296<78 78 78 97>
VStem: 41 93<658 678> 78 19<418 418>
LayerCount: 2
Fore
SplineSet
78 418 m 1xa0
 42 642 l 2
 41 649 41 655 41 661 c 0
 41 695 58 714 87 714 c 0
 117 714 134 696 134 661 c 0xc0
 134 655 134 648 133 642 c 2
 97 418 l 1
 78 418 l 1xa0
EndSplineSet
EndChar

StartChar: parenleft
Encoding: 40 40 9
Width: 428
GlyphClass: 2
Flags: MW
HStem: -142 51<386 386> 667 51<386 386>
VStem: 91 118<165.5 404.5 165.5 421.5>
LayerCount: 2
Fore
SplineSet
386 718 m 1
 386 667 l 1
 261 650 209 525 209 284 c 0
 209 47 265 -77 386 -91 c 1
 386 -142 l 1
 203 -135 91 17 91 285 c 0
 91 558 200 710 386 718 c 1
EndSplineSet
Substitution2: "'sups' Superscript lookup 15 subtable" uni207D
Substitution2: "'subs' Subscript lookup 14 subtable" uni208D
EndChar

StartChar: parenright
Encoding: 41 41 10
Width: 428
GlyphClass: 2
Flags: MW
HStem: -142 51<37 37> 667 51<37 37>
VStem: 214 115<169 408.5>
LayerCount: 2
Fore
SplineSet
37 718 m 1
 219 709 329 557 329 288 c 0
 329 18 218 -134 37 -142 c 1
 37 -91 l 1
 161 -75 214 49 214 289 c 0
 214 528 160 653 37 667 c 1
 37 718 l 1
EndSplineSet
Substitution2: "'sups' Superscript lookup 15 subtable" uni207E
Substitution2: "'subs' Subscript lookup 14 subtable" uni208E
EndChar

StartChar: asterisk
Encoding: 42 42 11
Width: 500
GlyphClass: 2
Flags: MW
HStem: 472 21G 507 91<374 403>
LayerCount: 2
Fore
SplineSet
250 718 m 1
 297 657 l 1
 258 532 l 1
 241 532 l 1
 202 657 l 1
 250 718 l 1
374 598 m 1
 446 571 l 1
 403 507 l 1
 273 506 l 1
 268 522 l 1
 374 598 l 1
266 492 m 1
 371 415 l 1
 368 338 l 1
 294 359 l 1
 253 484 l 1
 266 492 l 1
233 493 m 1
 245 483 l 1
 204 359 l 1
 130 338 l 1
 128 415 l 1
 233 493 l 1
125 597 m 1
 232 521 l 1
 227 507 l 1
 96 508 l 1
 53 571 l 1
 125 597 l 1
EndSplineSet
EndChar

StartChar: plus
Encoding: 43 43 12
Width: 833
GlyphClass: 2
Flags: MW
HStem: 0 21G<375 458 375 375> 258 81<124 375 124 375 458 709>
VStem: 375 83<0 258 0 258 339 596>
LayerCount: 2
Fore
SplineSet
458 596 m 1
 458 339 l 1
 709 339 l 1
 709 258 l 1
 458 258 l 1
 458 0 l 1
 375 0 l 1
 375 258 l 1
 124 258 l 1
 124 339 l 1
 375 339 l 1
 375 596 l 1
 458 596 l 1
EndSplineSet
Substitution2: "'sups' Superscript lookup 15 subtable" uni207A
Substitution2: "'subs' Subscript lookup 14 subtable" uni208A
EndChar

StartChar: comma
Encoding: 44 44 13
Width: 289
GlyphClass: 2
Flags: MW
HStem: -175 46<31 31> 7 122<107.5 142 80 156>
VStem: 142 78<-3 7 7 7>
LayerCount: 2
Fore
SplineSet
31 -175 m 1
 31 -129 l 1
 103 -116 142 -72 142 -3 c 2
 142 7 l 1
 80 7 l 1
 66 22 59 39 59 61 c 0
 59 102 87 129 128 129 c 0
 184 129 220 89 220 23 c 0
 220 -78 146 -162 31 -175 c 1
EndSplineSet
EndChar

StartChar: hyphen
Encoding: 45 45 14
Width: 326
GlyphClass: 2
Flags: MW
HStem: 192 98<36 290 36 290>
VStem: 36 254<192 290 192 290>
LayerCount: 2
Fore
SplineSet
36 290 m 1
 290 290 l 1
 290 192 l 1
 36 192 l 1
 36 290 l 1
EndSplineSet
Substitution2: "'sups' Superscript lookup 15 subtable" uni207B
Substitution2: "'subs' Subscript lookup 14 subtable" uni208B
EndChar

StartChar: period
Encoding: 46 46 15
Width: 289
GlyphClass: 2
Flags: MW
HStem: -8 159<122.5 166>
VStem: 66 158<49 93 49 93.5>
LayerCount: 2
Fore
SplineSet
144 151 m 0
 188 151 224 115 224 71 c 0
 224 27 188 -8 144 -8 c 0
 101 -8 66 27 66 71 c 0
 66 116 101 151 144 151 c 0
EndSplineSet
EndChar

StartChar: slash
Encoding: 47 47 16
Width: 491
GlyphClass: 2
Flags: MW
HStem: 651 20G<396 471 471 471>
LayerCount: 2
Fore
SplineSet
396 671 m 1
 471 671 l 1
 48 -93 l 1
 -27 -93 l 1
 396 671 l 1
EndSplineSet
EndChar

StartChar: zero
Encoding: 48 48 17
Width: 581
GlyphClass: 2
Flags: MW
HStem: -12 57<254.5 333.5 254.5 370.5> 627 56<255.5 333.5>
VStem: 40 136<241 435 241 445.5> 412 136<239 433>
LayerCount: 2
Fore
SplineSet
293 683 m 0
 448 683 548 555 548 335 c 0
 548 115 448 -12 293 -12 c 0
 139 -12 40 114 40 335 c 0
 40 556 139 683 293 683 c 0
294 627 m 0
 217 627 176 531 176 339 c 0
 176 143 215 45 294 45 c 0
 373 45 412 142 412 336 c 0
 412 530 373 627 294 627 c 0
EndSplineSet
Substitution2: "'pnum' Proportional Numbers lookup 17 subtable" zero.lf
Substitution2: "'onum' Oldstyle Figures lookup 16 subtable" zero.tosf
Substitution2: "'sups' Superscript lookup 15 subtable" uni2070
Substitution2: "'subs' Subscript lookup 14 subtable" uni2080
Substitution2: "'numr' Numerators lookup 13 subtable" zero.numerator
Substitution2: "'dnom' Denominators lookup 12 subtable" zero.denominator
EndChar

StartChar: one
Encoding: 49 49 18
Width: 581
GlyphClass: 2
Flags: MW
HStem: 0 50<148 495 148 148> 661 20G<325 390 390 390>
VStem: 260 130<74 566 566 566>
LayerCount: 2
Fore
SplineSet
325 681 m 1
 390 681 l 1
 390 70 l 1
 401 54 l 1
 495 50 l 1
 495 0 l 1
 148 0 l 1
 148 50 l 1
 248 56 l 1
 260 74 l 1
 260 566 l 1
 251 578 l 1
 109 557 l 1
 109 608 l 1
 325 681 l 1
EndSplineSet
Substitution2: "'pnum' Proportional Numbers lookup 17 subtable" one.lf
Substitution2: "'onum' Oldstyle Figures lookup 16 subtable" one.tosf
Substitution2: "'sups' Superscript lookup 15 subtable" one.superior
Substitution2: "'subs' Subscript lookup 14 subtable" uni2081
Substitution2: "'numr' Numerators lookup 13 subtable" one.numerator
Substitution2: "'dnom' Denominators lookup 12 subtable" one.denominator
EndChar

StartChar: two
Encoding: 50 50 19
Width: 581
GlyphClass: 2
Flags: MW
HStem: 0 102<173 453 173 532> 619 64<241 288>
VStem: 57 135<509 571.5> 373 138<424 523.5> 471 61<0 190>
LayerCount: 2
Fore
SplineSet
173 102 m 1xf0
 453 102 l 1
 471 190 l 1
 532 190 l 1
 532 0 l 1xe8
 48 0 l 1
 48 79 l 1
 259 243 373 354 373 479 c 0
 373 568 326 619 250 619 c 0
 232 619 212 615 192 607 c 1
 192 478 l 1
 170 466 149 460 129 460 c 0
 85 460 57 488 57 530 c 0
 57 613 148 683 292 683 c 0
 426 683 511 604 511 488 c 0
 511 360 395 253 173 102 c 1xf0
EndSplineSet
Substitution2: "'pnum' Proportional Numbers lookup 17 subtable" two.lf
Substitution2: "'onum' Oldstyle Figures lookup 16 subtable" two.tosf
Substitution2: "'sups' Superscript lookup 15 subtable" two.superior
Substitution2: "'subs' Subscript lookup 14 subtable" uni2082
Substitution2: "'numr' Numerators lookup 13 subtable" two.numerator
Substitution2: "'dnom' Denominators lookup 12 subtable" two.denominator
EndChar

StartChar: three
Encoding: 51 51 20
Width: 581
GlyphClass: 2
Flags: MW
HStem: -11 59<243 291 243 330> 310 66<242 263 211.5 291.5> 618 64<230.5 275.5>
VStem: 58 125<524 580> 363 135<473.5 534> 387 136<148 223.5>
LayerCount: 2
Fore
SplineSet
334 353 m 1xf8
 456 344 523 284 523 193 c 0
 523 80 416 -11 244 -11 c 0
 121 -11 42 48 42 114 c 0
 42 153 70 179 113 179 c 0
 125 179 137 176 152 171 c 1
 184 63 l 1
 210 53 233 48 253 48 c 0
 329 48 387 109 387 187 c 0xf4
 387 260 334 310 249 310 c 0
 235 310 214 309 187 305 c 1
 187 377 l 1
 197 376 207 376 216 376 c 0
 310 376 363 422 363 499 c 0
 363 569 312 618 239 618 c 0
 222 618 203 614 183 606 c 1
 183 489 l 1
 167 479 151 475 130 475 c 0
 87 475 58 504 58 544 c 0
 58 616 145 682 281 682 c 0
 414 682 498 610 498 513 c 0
 498 434 442 378 334 353 c 1xf8
EndSplineSet
Substitution2: "'pnum' Proportional Numbers lookup 17 subtable" three.lf
Substitution2: "'onum' Oldstyle Figures lookup 16 subtable" three.tosf
Substitution2: "'sups' Superscript lookup 15 subtable" three.superior
Substitution2: "'subs' Subscript lookup 14 subtable" uni2083
Substitution2: "'numr' Numerators lookup 13 subtable" three.numerator
Substitution2: "'dnom' Denominators lookup 12 subtable" three.denominator
EndChar

StartChar: four
Encoding: 52 52 21
Width: 581
GlyphClass: 2
Flags: MW
HStem: 181 79<116 336 116 336 453 566> 657 20G<355 453 453 453>
VStem: 336 117<-31 181 -31 181 260 539 539 539>
LayerCount: 2
Fore
SplineSet
355 677 m 1
 453 677 l 1
 453 260 l 1
 566 260 l 1
 566 181 l 1
 453 181 l 1
 453 -31 l 1
 336 -31 l 1
 336 181 l 1
 25 181 l 1
 25 262 l 1
 355 677 l 1
336 539 m 1
 116 260 l 1
 336 260 l 1
 336 539 l 1
EndSplineSet
Substitution2: "'pnum' Proportional Numbers lookup 17 subtable" four.lf
Substitution2: "'onum' Oldstyle Figures lookup 16 subtable" four.tosf
Substitution2: "'sups' Superscript lookup 15 subtable" uni2074
Substitution2: "'subs' Subscript lookup 14 subtable" uni2084
Substitution2: "'numr' Numerators lookup 13 subtable" four.numerator
Substitution2: "'dnom' Denominators lookup 12 subtable" four.denominator
EndChar

StartChar: five
Encoding: 53 53 22
Width: 581
GlyphClass: 2
Flags: MW
HStem: -9 58<240 288.5 240 326.5> 339 81<196.5 367.5> 567 104<177 489 177 177>
VStem: 96 81<398 567 398 671> 392 133<157 238.5>
LayerCount: 2
Fore
SplineSet
96 671 m 1
 489 671 l 1
 489 567 l 1
 177 567 l 1
 177 398 l 1
 221 413 260 420 298 420 c 0
 437 420 525 341 525 224 c 0
 525 90 412 -9 241 -9 c 0
 126 -9 55 45 55 111 c 0
 55 145 85 174 130 174 c 0
 141 174 153 171 167 167 c 1
 201 54 l 1
 217 50 232 49 248 49 c 0
 329 49 392 111 392 194 c 0
 392 283 327 339 217 339 c 0
 176 339 135 334 96 325 c 1
 96 671 l 1
EndSplineSet
Substitution2: "'pnum' Proportional Numbers lookup 17 subtable" five.lf
Substitution2: "'onum' Oldstyle Figures lookup 16 subtable" five.tosf
Substitution2: "'sups' Superscript lookup 15 subtable" uni2075
Substitution2: "'subs' Subscript lookup 14 subtable" uni2085
Substitution2: "'numr' Numerators lookup 13 subtable" five.numerator
Substitution2: "'dnom' Denominators lookup 12 subtable" five.denominator
EndChar

StartChar: six
Encoding: 54 54 23
Width: 581
GlyphClass: 2
Flags: MW
HStem: -13 62<268.5 341.5 268.5 371.5> 372 80<318 328.5> 640 74<469 469>
VStem: 47 132<208 291.5 208 416.5> 421 132<162 263>
LayerCount: 2
Fore
SplineSet
469 714 m 1
 469 640 l 1
 427 644 l 1
 295 634 212 550 187 401 c 1
 237 434 290 452 346 452 c 0
 463 452 553 360 553 233 c 0
 553 88 446 -13 297 -13 c 0
 144 -13 47 100 47 289 c 0
 47 544 210 713 469 714 c 1
181 347 m 1
 180 317 179 296 179 287 c 0
 179 129 228 49 309 49 c 0
 374 49 421 110 421 214 c 0
 421 312 369 372 288 372 c 0
 250 372 214 364 181 347 c 1
EndSplineSet
Substitution2: "'pnum' Proportional Numbers lookup 17 subtable" six.lf
Substitution2: "'onum' Oldstyle Figures lookup 16 subtable" six.tosf
Substitution2: "'sups' Superscript lookup 15 subtable" uni2076
Substitution2: "'subs' Subscript lookup 14 subtable" uni2086
Substitution2: "'numr' Numerators lookup 13 subtable" six.numerator
Substitution2: "'dnom' Denominators lookup 12 subtable" six.denominator
EndChar

StartChar: seven
Encoding: 55 55 24
Width: 581
GlyphClass: 2
Flags: MW
HStem: 560 111<157 446 157 157>
VStem: 76 66<467 671>
LayerCount: 2
Fore
SplineSet
76 671 m 1
 555 671 l 1
 555 606 l 1
 231 -6 l 1
 231 -34 l 1
 124 -34 l 1
 446 560 l 1
 157 560 l 1
 142 467 l 1
 76 467 l 1
 76 671 l 1
EndSplineSet
Substitution2: "'pnum' Proportional Numbers lookup 17 subtable" seven.lf
Substitution2: "'onum' Oldstyle Figures lookup 16 subtable" seven.tosf
Substitution2: "'sups' Superscript lookup 15 subtable" uni2077
Substitution2: "'subs' Subscript lookup 14 subtable" uni2087
Substitution2: "'numr' Numerators lookup 13 subtable" seven.numerator
Substitution2: "'dnom' Denominators lookup 12 subtable" seven.denominator
EndChar

StartChar: eight
Encoding: 56 56 25
Width: 581
GlyphClass: 2
Flags: MW
HStem: -15 61<255 329 255 364.5> 625 60<265 324.5>
VStem: 42 118<148 214.5 148 218> 71 126<492.5 551> 399 113<477.5 538.5> 412 127<124.5 189>
LayerCount: 2
Fore
SplineSet
347 379 m 1xd8
 381 411 399 453 399 502 c 0
 399 575 356 625 293 625 c 0
 237 625 197 582 197 524 c 0
 197 461 246 419 347 379 c 1xd8
394 356 m 1
 492 321 539 266 539 182 c 0
 539 67 445 -15 284 -15 c 0
 136 -15 42 69 42 179 c 0xe4
 42 257 89 312 177 338 c 1
 107 370 71 423 71 494 c 0
 71 608 161 685 303 685 c 0
 432 685 512 610 512 511 c 0
 512 444 472 390 394 356 c 1
222 314 m 1
 180 276 160 239 160 190 c 0
 160 106 217 46 293 46 c 0
 365 46 412 90 412 152 c 0
 412 226 350 264 222 314 c 1
EndSplineSet
Substitution2: "'pnum' Proportional Numbers lookup 17 subtable" eight.lf
Substitution2: "'onum' Oldstyle Figures lookup 16 subtable" eight.tosf
Substitution2: "'sups' Superscript lookup 15 subtable" uni2078
Substitution2: "'subs' Subscript lookup 14 subtable" uni2088
Substitution2: "'numr' Numerators lookup 13 subtable" eight.numerator
Substitution2: "'dnom' Denominators lookup 12 subtable" eight.denominator
EndChar

StartChar: nine
Encoding: 57 57 26
Width: 581
GlyphClass: 2
Flags: MW
HStem: 223 76<187.5 332> 624 59<257.5 327.5>
VStem: 42 133<408 511 408 511.5> 415 131<401.5 485.5>
LayerCount: 2
Fore
SplineSet
405 321 m 1
 411 352 415 384 415 419 c 0
 415 552 365 624 290 624 c 0
 225 624 175 562 175 460 c 0
 175 356 228 299 318 299 c 0
 346 299 374 306 405 321 c 1
129 -53 m 1
 102 13 l 1
 147 21 l 1
 274 79 354 157 391 262 c 1
 343 237 295 223 246 223 c 0
 129 223 42 311 42 439 c 0
 42 584 145 683 304 683 c 0
 451 683 546 581 546 419 c 0
 546 213 397 32 129 -53 c 1
EndSplineSet
Substitution2: "'pnum' Proportional Numbers lookup 17 subtable" nine.lf
Substitution2: "'onum' Oldstyle Figures lookup 16 subtable" nine.tosf
Substitution2: "'sups' Superscript lookup 15 subtable" uni2079
Substitution2: "'subs' Subscript lookup 14 subtable" uni2089
Substitution2: "'numr' Numerators lookup 13 subtable" nine.numerator
Substitution2: "'dnom' Denominators lookup 12 subtable" nine.denominator
EndChar

StartChar: colon
Encoding: 58 58 27
Width: 340
GlyphClass: 2
Flags: MW
HStem: -8 159<152 194.5> 330 158<151.5 194.5>
VStem: 95 156<49 93.5 387 431>
LayerCount: 2
Fore
SplineSet
173 488 m 0
 216 488 251 453 251 409 c 0
 251 365 216 330 173 330 c 0
 130 330 95 365 95 409 c 0
 95 453 130 488 173 488 c 0
173 151 m 0
 216 151 251 116 251 71 c 0
 251 27 216 -8 173 -8 c 0
 131 -8 95 27 95 71 c 0
 95 116 130 151 173 151 c 0
EndSplineSet
EndChar

StartChar: semicolon
Encoding: 59 59 28
Width: 340
GlyphClass: 2
Flags: MW
HStem: -175 46<68 68> 7 122<142.5 176 116 191> 330 158<151.5 194.5>
VStem: 95 159<50 56 -27.5 81.5> 176 78<-1 7 7 7>
LayerCount: 2
Fore
SplineSet
173 488 m 0xf0
 216 488 251 453 251 409 c 0
 251 365 216 330 173 330 c 0
 130 330 95 365 95 409 c 0
 95 453 130 488 173 488 c 0xf0
68 -175 m 1
 68 -129 l 1
 139 -116 176 -71 176 -1 c 2
 176 7 l 1xe8
 116 7 l 1
 102 22 95 39 95 61 c 0
 95 102 122 129 163 129 c 0
 219 129 254 89 254 23 c 0
 254 -78 181 -162 68 -175 c 1
EndSplineSet
EndChar

StartChar: less
Encoding: 60 60 29
Width: 833
GlyphClass: 2
Flags: MW
VStem: 129 119<298 298 298 337 298 337>
LayerCount: 2
Fore
SplineSet
704 484 m 1
 248 298 l 1
 704 112 l 1
 704 23 l 1
 129 259 l 1
 129 337 l 1
 704 574 l 1
 704 484 l 1
EndSplineSet
EndChar

StartChar: equal
Encoding: 61 61 30
Width: 833
GlyphClass: 2
Flags: MW
HStem: 157 81<124 709 124 709> 358 82<124 709 124 709>
LayerCount: 2
Fore
SplineSet
709 440 m 1
 709 358 l 1
 124 358 l 1
 124 440 l 1
 709 440 l 1
709 238 m 1
 709 157 l 1
 124 157 l 1
 124 238 l 1
 709 238 l 1
EndSplineSet
Substitution2: "'sups' Superscript lookup 15 subtable" uni207C
Substitution2: "'subs' Subscript lookup 14 subtable" uni208C
EndChar

StartChar: greater
Encoding: 62 62 31
Width: 833
GlyphClass: 2
Flags: MW
VStem: 585 119<298 298>
LayerCount: 2
Fore
SplineSet
704 337 m 1
 704 259 l 1
 129 23 l 1
 129 112 l 1
 585 298 l 1
 129 484 l 1
 129 574 l 1
 704 337 l 1
EndSplineSet
EndChar

StartChar: question
Encoding: 63 63 32
Width: 487
GlyphClass: 2
Flags: MW
HStem: -7 152<176 216.5> 625 58<174 177 174 174>
VStem: 122 150<47.5 89.5 47 90.5> 162 65<193 284 193 328 193 328> 307 130<459 538>
LayerCount: 2
Fore
SplineSet
227 284 m 1xd8
 227 193 l 1
 162 193 l 1
 162 328 l 1
 257 361 307 419 307 499 c 0
 307 577 259 625 177 625 c 2
 174 625 l 1
 129 512 l 1
 122 511 116 511 109 511 c 0
 62 511 35 534 35 573 c 0
 35 633 103 683 212 683 c 0
 349 683 437 608 437 499 c 0
 437 401 366 329 227 284 c 1xd8
196 145 m 0
 238 145 272 112 272 67 c 0
 272 27 238 -7 195 -7 c 0
 157 -7 122 25 122 70 c 0xe8
 122 111 155 145 196 145 c 0
EndSplineSet
EndChar

StartChar: at
Encoding: 64 64 33
Width: 917
GlyphClass: 2
Flags: MW
HStem: -153 55<413.5 513.5> 54 64<582.5 667> 57 70<354.5 457.5> 444 47<475.5 517> 643 49<473 608>
VStem: 75 76<186 311.5> 266 104<198 249> 802 51<336 451>
LayerCount: 2
Fore
SplineSet
533 442 m 1xbf
 527 443 520 444 514 444 c 0
 435 444 370 356 370 233 c 0
 370 163 395 127 442 127 c 0
 473 127 503 149 533 190 c 1
 569 389 l 1
 533 442 l 1xbf
530 134 m 1
 480 83 435 57 390 57 c 0xbf
 319 57 266 118 266 217 c 0
 266 281 285 340 321 388 c 0
 369 454 441 491 510 491 c 0
 542 491 573 482 606 465 c 1
 623 488 l 1
 691 488 l 1
 678 454 672 419 664 384 c 2
 628 214 l 2
 623 190 620 170 620 152 c 0
 620 133 634 118 654 118 c 0
 680 118 711 135 737 169 c 0
 778 221 802 295 802 369 c 0
 802 533 693 643 523 643 c 0
 423 643 337 609 270 545 c 0
 190 469 151 375 151 259 c 0
 151 43 289 -98 494 -98 c 0
 580 -98 666 -73 748 -25 c 1
 766 -65 l 1
 662 -124 559 -153 468 -153 c 0
 359 -153 261 -114 185 -40 c 0
 112 31 75 127 75 245 c 0
 75 378 123 491 217 578 c 0
 296 651 404 692 523 692 c 0
 722 692 853 563 853 373 c 0
 853 299 835 232 799 176 c 0
 750 99 673 54 609 54 c 0xdf
 556 54 530 81 530 134 c 1
EndSplineSet
EndChar

StartChar: A
Encoding: 65 65 34
Width: 651
GlyphClass: 2
Flags: MW
HStem: 0 49<-11 204 -11 -11> 238 56<210 386 210 409 191 386> 658 20G<275 380 380 380>
AnchorPoint: "Anchor-3" 538 0 basechar 0
AnchorPoint: "Anchor-2" 329 0 basechar 0
AnchorPoint: "Anchor-1" 328 686 basechar 0
LayerCount: 2
Fore
SplineSet
275 678 m 1
 380 678 l 1
 610 59 l 1
 669 49 l 1
 669 0 l 1
 399 0 l 1
 399 49 l 1
 462 55 l 1
 469 68 l 1
 409 238 l 1
 191 238 l 1
 131 69 l 1
 141 56 l 1
 204 49 l 1
 204 0 l 1
 -11 0 l 1
 -11 49 l 1
 49 58 l 1
 275 678 l 1
297 541 m 1
 210 294 l 1
 386 294 l 1
 297 541 l 1
EndSplineSet
Substitution2: "'c2sc' Capitals to Small Capitals in Latin lookup 6 subtable" a.sc
Position2: "'cpsp' Capital Spacing in Latin lookup 2 subtable" dx=7 dy=0 dh=14 dv=0
EndChar

StartChar: B
Encoding: 66 66 35
Width: 628
GlyphClass: 2
Flags: MW
HStem: 0 55<274.5 338> 315 57<234 313> 617 54<88 88 267.5 321>
VStem: 104 130<70 315 373 603 603 603> 413 138<475 541> 450 140<142 232.5>
AnchorPoint: "Anchor-2" 290 0 basechar 0
AnchorPoint: "Anchor-1" 290 686 basechar 0
LayerCount: 2
Fore
SplineSet
29 671 m 1xf4
 329 671 l 2
 477 671 551 618 551 514 c 0xf8
 551 436 503 382 408 357 c 1
 525 355 590 294 590 196 c 0
 590 70 502 0 338 0 c 2
 29 0 l 1
 29 49 l 1
 88 54 l 1
 104 70 l 1
 104 603 l 1
 88 617 l 1
 29 622 l 1
 29 671 l 1xf4
234 373 m 1
 243 372 252 372 261 372 c 0
 365 372 413 412 413 502 c 0
 413 580 368 617 274 617 c 0
 261 617 248 616 234 615 c 1
 234 373 l 1
234 57 m 1
 251 56 267 55 282 55 c 0
 398 55 450 94 450 190 c 0xf4
 450 275 400 317 300 317 c 0
 284 317 262 317 234 315 c 1
 234 57 l 1
EndSplineSet
Substitution2: "'c2sc' Capitals to Small Capitals in Latin lookup 6 subtable" b.sc
Position2: "'cpsp' Capital Spacing in Latin lookup 2 subtable" dx=7 dy=0 dh=14 dv=0
EndChar

StartChar: C
Encoding: 67 67 36
Width: 638
GlyphClass: 2
Flags: MW
HStem: -12 63<355 427.5> 618 65<346.5 428>
VStem: 41 147<271 386> 529 72<196 196>
AnchorPoint: "Anchor-2" 391 0 basechar 0
AnchorPoint: "Anchor-1" 396 686 basechar 0
LayerCount: 2
Fore
SplineSet
601 24 m 1
 534 0 464 -12 391 -12 c 0
 319 -12 256 4 207 33 c 0
 103 95 41 207 41 335 c 0
 41 437 77 526 145 591 c 0
 208 652 293 683 397 683 c 0
 466 683 534 670 601 646 c 1
 601 479 l 1
 527 479 l 1
 508 586 l 1
 494 603 l 1
 467 613 441 618 415 618 c 0
 278 618 188 513 188 336 c 0
 188 157 279 51 428 51 c 0
 445 51 465 54 489 60 c 1
 504 75 l 1
 529 196 l 1
 601 196 l 1
 601 24 l 1
EndSplineSet
Substitution2: "'c2sc' Capitals to Small Capitals in Latin lookup 6 subtable" c.sc
Position2: "'cpsp' Capital Spacing in Latin lookup 2 subtable" dx=7 dy=0 dh=14 dv=0
EndChar

StartChar: D
Encoding: 68 68 37
Width: 716
GlyphClass: 2
Flags: MW
HStem: 0 49<29 321 29 29> 0 56<238 296 296 321> 615 56<238 238 238 296> 622 49<29 321>
VStem: 106 132<70 601 601 601> 532 149<276 430>
AnchorPoint: "Anchor-2" 336 0 basechar 0
AnchorPoint: "Anchor-1" 336 686 basechar 0
LayerCount: 2
Fore
SplineSet
321 671 m 2x2c
 553 671 681 545 681 335 c 0
 681 217 639 125 558 63 c 0
 496 15 421 0 321 0 c 2x6c
 29 0 l 1
 29 49 l 1
 90 54 l 1
 106 70 l 1
 106 601 l 1
 90 617 l 1
 29 622 l 1
 29 671 l 1x9c
 321 671 l 2x2c
238 615 m 1
 238 56 l 1
 296 56 l 2
 455 56 532 148 532 336 c 0
 532 524 455 615 296 615 c 2
 238 615 l 1
EndSplineSet
Substitution2: "'c2sc' Capitals to Small Capitals in Latin lookup 6 subtable" d.sc
Position2: "'cpsp' Capital Spacing in Latin lookup 2 subtable" dx=7 dy=0 dh=14 dv=0
EndChar

StartChar: E
Encoding: 69 69 38
Width: 596
GlyphClass: 2
Flags: MW
HStem: 0 49<29 29 29 566> 0 57<236 468 236 566> 317 60<236 366 236 366> 615 56<236 435 236 236> 622 49<29 533>
VStem: 106 130<70 317 377 603 603 603> 390 59<231 463 231 463> 463 70<514 671> 498 68<0 179>
AnchorPoint: "Anchor-3" 298 0 basechar 0
AnchorPoint: "Anchor-2" 298 0 basechar 0
AnchorPoint: "Anchor-1" 298 686 basechar 0
LayerCount: 2
Fore
SplineSet
29 0 m 1xa680
 29 49 l 1
 90 54 l 1
 106 70 l 1
 106 603 l 1
 90 617 l 1
 29 622 l 1
 29 671 l 1
 533 671 l 1xaf
 533 514 l 1
 463 514 l 1
 448 602 l 1
 435 615 l 1
 236 615 l 1
 236 377 l 1
 366 377 l 1
 380 391 l 1
 390 463 l 1
 449 463 l 1
 449 231 l 1
 390 231 l 1
 380 303 l 1
 366 317 l 1
 236 317 l 1
 236 57 l 1
 468 57 l 1x77
 481 73 l 1
 498 179 l 1
 566 179 l 1
 566 0 l 1
 29 0 l 1xa680
EndSplineSet
Substitution2: "'c2sc' Capitals to Small Capitals in Latin lookup 6 subtable" e.sc
Position2: "'cpsp' Capital Spacing in Latin lookup 2 subtable" dx=7 dy=0 dh=14 dv=0
EndChar

StartChar: F
Encoding: 70 70 39
Width: 552
GlyphClass: 2
Flags: MW
HStem: 0 49<30 30 30 325> 303 61<238 372 238 372> 613 58<238 431 238 238> 622 49<26 528>
VStem: 106 132<70 303 364 603 603 603> 396 59<217 450 217 450> 459 69<503 671>
AnchorPoint: "Anchor-2" 277 0 basechar 0
AnchorPoint: "Anchor-1" 277 686 basechar 0
LayerCount: 2
Fore
SplineSet
30 0 m 1xee
 30 49 l 1
 90 54 l 1
 106 70 l 1
 106 603 l 1
 90 617 l 1
 26 622 l 1
 26 671 l 1
 528 671 l 1xde
 528 503 l 1
 459 503 l 1
 444 600 l 1
 431 613 l 1
 238 613 l 1
 238 364 l 1
 372 364 l 1
 386 377 l 1
 396 450 l 1
 455 450 l 1
 455 217 l 1
 396 217 l 1
 386 290 l 1
 372 303 l 1
 238 303 l 1
 238 70 l 1
 255 54 l 1
 325 49 l 1
 325 0 l 1
 30 0 l 1xee
EndSplineSet
Substitution2: "'c2sc' Capitals to Small Capitals in Latin lookup 6 subtable" f.sc
Position2: "'cpsp' Capital Spacing in Latin lookup 2 subtable" dx=7 dy=0 dh=14 dv=0
EndChar

StartChar: G
Encoding: 71 71 40
Width: 710
GlyphClass: 2
Flags: MW
HStem: -12 67<356 428.5> 281 49<398 690 398 690> 619 63<351.5 438 294 440.5>
VStem: 40 145<250 427.5 250 442.5> 488 128<58 262 29 262> 543 73<479 479>
AnchorPoint: "Anchor-2" 392 0 basechar 0
AnchorPoint: "Anchor-1" 404 686 basechar 0
LayerCount: 2
Fore
SplineSet
398 330 m 1xf8
 690 330 l 1
 690 281 l 1
 632 276 l 1
 616 262 l 1xf8
 616 29 l 1
 539 2 465 -12 392 -12 c 0
 182 -12 40 132 40 340 c 0
 40 545 183 682 405 682 c 0
 471 682 542 671 616 649 c 1
 616 479 l 1
 543 479 l 1xf4
 524 585 l 1
 509 603 l 1
 482 614 455 619 426 619 c 0
 277 619 185 515 185 340 c 0
 185 160 279 55 433 55 c 0
 443 55 462 56 488 58 c 1
 488 262 l 1
 472 276 l 1
 398 281 l 1
 398 330 l 1xf8
EndSplineSet
Substitution2: "'c2sc' Capitals to Small Capitals in Latin lookup 6 subtable" g.sc
Position2: "'cpsp' Capital Spacing in Latin lookup 2 subtable" dx=7 dy=0 dh=14 dv=0
EndChar

StartChar: H
Encoding: 72 72 41
Width: 760
GlyphClass: 2
Flags: MW
HStem: 0 49<30 313 30 30> 322 60<237 526 237 526> 622 49<30 313 30 313>
VStem: 104 133<70 322 382 601> 526 133<70 322 322 322 382 601 70 601>
AnchorPoint: "Anchor-2" 382 0 basechar 0
AnchorPoint: "Anchor-1" 382 686 basechar 0
LayerCount: 2
Fore
SplineSet
30 671 m 1
 313 671 l 1
 313 622 l 1
 253 617 l 1
 237 601 l 1
 237 382 l 1
 526 382 l 1
 526 601 l 1
 511 617 l 1
 451 622 l 1
 451 671 l 1
 733 671 l 1
 733 622 l 1
 675 617 l 1
 659 601 l 1
 659 70 l 1
 675 54 l 1
 733 49 l 1
 733 0 l 1
 451 0 l 1
 451 49 l 1
 511 54 l 1
 526 70 l 1
 526 322 l 1
 237 322 l 1
 237 70 l 1
 253 54 l 1
 313 49 l 1
 313 0 l 1
 30 0 l 1
 30 49 l 1
 88 54 l 1
 104 70 l 1
 104 601 l 1
 88 617 l 1
 30 622 l 1
 30 671 l 1
EndSplineSet
Substitution2: "'c2sc' Capitals to Small Capitals in Latin lookup 6 subtable" h.sc
Position2: "'cpsp' Capital Spacing in Latin lookup 2 subtable" dx=7 dy=0 dh=14 dv=0
EndChar

StartChar: I
Encoding: 73 73 42
Width: 354
GlyphClass: 2
Flags: MW
HStem: 0 49<30 30 30 329> 622 49<30 329 30 329>
VStem: 112 134<70 603 70 603>
AnchorPoint: "Anchor-3" 180 0 basechar 0
AnchorPoint: "Anchor-2" 179 0 basechar 0
AnchorPoint: "Anchor-1" 179 686 basechar 0
LayerCount: 2
Fore
SplineSet
30 0 m 1
 30 49 l 1
 96 54 l 1
 112 70 l 1
 112 603 l 1
 96 617 l 1
 30 622 l 1
 30 671 l 1
 329 671 l 1
 329 622 l 1
 262 617 l 1
 246 603 l 1
 246 70 l 1
 262 54 l 1
 329 49 l 1
 329 0 l 1
 30 0 l 1
EndSplineSet
Substitution2: "'c2sc' Capitals to Small Capitals in Latin lookup 6 subtable" i.sc
Position2: "'cpsp' Capital Spacing in Latin lookup 2 subtable" dx=7 dy=0 dh=14 dv=0
EndChar

StartChar: J
Encoding: 74 74 43
Width: 465
GlyphClass: 2
Flags: MW
HStem: -12 58<135.5 183.5 135.5 236.5> 622 49<170 464 170 464>
VStem: 12 73<12 192 192 192> 256 131<261 262 262 603>
AnchorPoint: "Anchor-2" 238 0 basechar 0
AnchorPoint: "Anchor-1" 322 686 basechar 0
LayerCount: 2
Fore
SplineSet
256 603 m 1
 240 617 l 1
 170 622 l 1
 170 671 l 1
 464 671 l 1
 464 622 l 1
 403 617 l 1
 387 603 l 1
 387 262 l 2
 387 75 318 -12 155 -12 c 0
 108 -12 61 -4 12 12 c 1
 12 192 l 1
 85 192 l 1
 108 60 l 1
 122 47 l 2
 127 47 133 46 138 46 c 0
 229 46 256 115 256 261 c 2
 256 603 l 1
EndSplineSet
Substitution2: "'c2sc' Capitals to Small Capitals in Latin lookup 6 subtable" j.sc
Position2: "'cpsp' Capital Spacing in Latin lookup 2 subtable" dx=7 dy=0 dh=14 dv=0
EndChar

StartChar: K
Encoding: 75 75 44
Width: 650
GlyphClass: 2
Flags: MW
HStem: 0 49<30 30 30 314> 294 47<239 267 239 297 239 267> 622 49<30 314 30 314>
VStem: 106 133<70 294 341 603>
AnchorPoint: "Anchor-2" 351 0 basechar 0
AnchorPoint: "Anchor-1" 351 686 basechar 0
LayerCount: 2
Fore
SplineSet
30 0 m 1
 30 49 l 1
 91 54 l 1
 106 70 l 1
 106 603 l 1
 91 617 l 1
 30 622 l 1
 30 671 l 1
 314 671 l 1
 314 622 l 1
 255 617 l 1
 239 603 l 1
 239 341 l 1
 267 341 l 1
 484 604 l 1
 478 617 l 1
 422 622 l 1
 422 671 l 1
 647 671 l 1
 647 622 l 1
 577 615 l 1
 387 388 l 1
 600 55 l 1
 672 49 l 1
 672 0 l 1
 465 0 l 1
 465 35 l 1
 297 294 l 1
 239 294 l 1
 239 70 l 1
 255 54 l 1
 314 49 l 1
 314 0 l 1
 30 0 l 1
EndSplineSet
Substitution2: "'c2sc' Capitals to Small Capitals in Latin lookup 6 subtable" k.sc
Position2: "'cpsp' Capital Spacing in Latin lookup 2 subtable" dx=7 dy=0 dh=14 dv=0
EndChar

StartChar: L
Encoding: 76 76 45
Width: 543
GlyphClass: 2
Flags: MW
HStem: 0 49<27 27 27 532> 0 58<238 430 238 532> 622 49<27 315 27 315>
VStem: 105 133<70 603 58 603> 458 74<0 196>
AnchorPoint: "Anchor-2" 280 0 basechar 0
AnchorPoint: "Anchor-1" 280 686 basechar 0
LayerCount: 2
Fore
SplineSet
27 0 m 1xb8
 27 49 l 1xb8
 88 54 l 1
 105 70 l 1
 105 603 l 1
 91 617 l 1
 27 622 l 1
 27 671 l 1
 315 671 l 1
 315 622 l 1
 254 617 l 1
 238 603 l 1
 238 58 l 1
 430 58 l 1x78
 443 74 l 1
 458 196 l 1
 532 196 l 1
 532 0 l 1
 27 0 l 1xb8
EndSplineSet
Substitution2: "'c2sc' Capitals to Small Capitals in Latin lookup 6 subtable" l.sc
Position2: "'cpsp' Capital Spacing in Latin lookup 2 subtable" dx=7 dy=0 dh=14 dv=0
EndChar

StartChar: M
Encoding: 77 77 46
Width: 883
GlyphClass: 2
Flags: MW
HStem: 0 49<25 25 25 252> 623 48<25 287>
VStem: 103 72<74 602 74 604 74 604> 658 126<70 603 70 607 70 607>
AnchorPoint: "Anchor-2" 444 0 basechar 0
AnchorPoint: "Anchor-1" 444 686 basechar 0
LayerCount: 2
Fore
SplineSet
25 0 m 1
 25 49 l 1
 89 56 l 1
 103 74 l 1
 103 604 l 1
 91 617 l 1
 25 623 l 1
 25 671 l 1
 287 671 l 1
 287 643 l 1
 443 184 l 1
 598 642 l 1
 598 671 l 1
 863 671 l 1
 863 623 l 1
 795 617 l 1
 784 603 l 1
 784 70 l 1
 795 54 l 1
 863 49 l 1
 863 0 l 1
 586 0 l 1
 586 49 l 1
 648 54 l 1
 658 70 l 1
 658 607 l 1
 450 0 l 1
 378 0 l 1
 175 602 l 1
 175 74 l 1
 190 56 l 1
 252 49 l 1
 252 0 l 1
 25 0 l 1
EndSplineSet
Substitution2: "'c2sc' Capitals to Small Capitals in Latin lookup 6 subtable" m.sc
Position2: "'cpsp' Capital Spacing in Latin lookup 2 subtable" dx=7 dy=0 dh=14 dv=0
EndChar

StartChar: N
Encoding: 78 78 47
Width: 727
GlyphClass: 2
Flags: MW
HStem: 0 48<26 26 26 254> 622 49<25 255>
VStem: 103 73<74 537 74 603 74 603> 561 73<169 597 0 597>
AnchorPoint: "Anchor-2" 368 0 basechar 0
AnchorPoint: "Anchor-1" 368 686 basechar 0
LayerCount: 2
Fore
SplineSet
26 0 m 1
 26 48 l 1
 85 56 l 1
 103 74 l 1
 103 603 l 1
 89 617 l 1
 25 622 l 1
 25 671 l 1
 255 671 l 1
 255 644 l 1
 561 169 l 1
 561 597 l 1
 543 616 l 1
 482 624 l 1
 482 671 l 1
 710 671 l 1
 710 624 l 1
 651 616 l 1
 634 597 l 1
 634 0 l 1
 522 0 l 1
 176 537 l 1
 176 74 l 1
 192 56 l 1
 254 48 l 1
 254 0 l 1
 26 0 l 1
EndSplineSet
Substitution2: "'c2sc' Capitals to Small Capitals in Latin lookup 6 subtable" n.sc
Position2: "'cpsp' Capital Spacing in Latin lookup 2 subtable" dx=7 dy=0 dh=14 dv=0
EndChar

StartChar: O
Encoding: 79 79 48
Width: 752
GlyphClass: 2
Flags: MW
HStem: -16 61<324.5 427> 622 64<331.5 421 331.5 434.5>
VStem: 41 149<245 393.5> 567 150<280 389.5 280 422.5>
AnchorPoint: "Anchor-3" 385 0 basechar 0
AnchorPoint: "Anchor-2" 385 0 basechar 0
AnchorPoint: "Anchor-1" 378 686 basechar 0
LayerCount: 2
Fore
SplineSet
41 339 m 0
 41 448 76 536 144 599 c 0
 207 657 285 686 378 686 c 0
 464 686 537 660 598 608 c 0
 675 542 717 446 717 333 c 0
 717 227 680 137 610 72 c 0
 549 15 469 -16 385 -16 c 0
 178 -16 41 126 41 339 c 0
380 622 m 0
 269 622 190 516 190 337 c 0
 190 153 271 45 378 45 c 0
 488 45 567 153 567 330 c 0
 567 515 489 622 380 622 c 0
EndSplineSet
Substitution2: "'c2sc' Capitals to Small Capitals in Latin lookup 6 subtable" o.sc
Position2: "'cpsp' Capital Spacing in Latin lookup 2 subtable" dx=7 dy=0 dh=14 dv=0
EndChar

StartChar: P
Encoding: 80 80 49
Width: 587
GlyphClass: 2
Flags: MW
HStem: 0 49<29 29 29 324> 247 58<298.5 326 268.5 390> 613 58<238 290 238 238> 622 49<25 295>
VStem: 106 132<70 250 307 603 603 603> 430 138<412 512.5>
AnchorPoint: "Anchor-2" 278 0 basechar 0
AnchorPoint: "Anchor-1" 278 686 basechar 0
LayerCount: 2
Fore
SplineSet
29 0 m 1xec
 29 49 l 1
 88 54 l 1
 106 70 l 1
 106 603 l 1
 91 617 l 1
 25 622 l 1
 25 671 l 1xdc
 295 671 l 2
 480 671 568 613 568 469 c 0
 568 331 474 247 306 247 c 0
 291 247 268 248 238 250 c 1
 238 70 l 1
 253 54 l 1
 324 49 l 1
 324 0 l 1
 29 0 l 1xec
238 307 m 1
 251 306 263 305 274 305 c 0
 378 305 430 359 430 465 c 0
 430 560 381 613 290 613 c 2
 238 613 l 1xec
 238 307 l 1
EndSplineSet
Substitution2: "'c2sc' Capitals to Small Capitals in Latin lookup 6 subtable" p.sc
Position2: "'cpsp' Capital Spacing in Latin lookup 2 subtable" dx=7 dy=0 dh=14 dv=0
EndChar

StartChar: Q
Encoding: 81 81 50
Width: 752
GlyphClass: 2
Flags: MW
HStem: -178 60<447 603> -157 51<681 681> 622 65<322 419 315.5 431.5>
VStem: 39 151<248.5 375> 313 141 568 152<245.5 389 245 425>
AnchorPoint: "Anchor-2" 379 -219 basechar 0
AnchorPoint: "Anchor-1" 374 686 basechar 0
LayerCount: 2
Fore
SplineSet
454 -2 m 1xbc
 457 -82 500 -118 589 -118 c 0xbc
 617 -118 648 -114 681 -106 c 1
 681 -157 l 1x7c
 617 -171 563 -178 516 -178 c 0
 378 -178 313 -125 313 -9 c 2
 313 -6 l 1
 146 20 39 153 39 336 c 0
 39 414 59 483 97 543 c 0
 154 631 257 687 374 687 c 0
 464 687 538 662 598 610 c 0
 676 543 720 446 720 332 c 0
 720 158 615 26 454 -2 c 1xbc
190 339 m 0
 190 158 273 50 383 50 c 0
 490 50 568 156 568 335 c 0
 568 515 487 622 376 622 c 0
 268 622 190 517 190 339 c 0
EndSplineSet
Substitution2: "'c2sc' Capitals to Small Capitals in Latin lookup 6 subtable" q.sc
Position2: "'cpsp' Capital Spacing in Latin lookup 2 subtable" dx=7 dy=0 dh=14 dv=0
EndChar

StartChar: R
Encoding: 82 82 51
Width: 671
GlyphClass: 2
Flags: MW
HStem: -7 56 0 49<31 313 31 31> 295 57<236 325.5 236 325.5> 614 57<236 236 236 282> 622 49<31 335>
VStem: 106 130<70 295 70 353 353 603 603 603> 430 140<454 527>
AnchorPoint: "Anchor-2" 278 0 basechar 0
AnchorPoint: "Anchor-1" 278 686 basechar 0
LayerCount: 2
Fore
SplineSet
31 671 m 1x6e
 335 671 l 2
 490 671 570 611 570 500 c 0
 570 408 511 350 398 329 c 1
 446 318 480 299 503 267 c 0
 534 223 542 169 561 119 c 0
 582 64 612 49 679 49 c 2xb6
 692 49 l 1x66
 692 1 l 1
 657 -4 623 -7 592 -7 c 0xa6
 549 -7 512 5 488 24 c 0
 436 64 427 109 411 157 c 0
 380 252 354 295 253 295 c 2
 236 295 l 1
 236 70 l 1
 252 54 l 1
 313 49 l 1
 313 0 l 1
 31 0 l 1
 31 49 l 1
 90 54 l 1
 106 70 l 1
 106 603 l 1
 90 617 l 1
 31 622 l 1
 31 671 l 1x6e
236 614 m 1
 236 353 l 1
 249 352 261 352 272 352 c 0
 379 352 430 394 430 486 c 0
 430 568 379 614 282 614 c 2
 236 614 l 1
EndSplineSet
Substitution2: "'c2sc' Capitals to Small Capitals in Latin lookup 6 subtable" r.sc
Position2: "'cpsp' Capital Spacing in Latin lookup 2 subtable" dx=7 dy=0 dh=14 dv=0
EndChar

StartChar: S
Encoding: 83 83 52
Width: 568
GlyphClass: 2
Flags: MW
HStem: -11 65<236.5 292.5 236.5 334> 487 21G<425 497 425 425> 619 64<284.5 337>
VStem: 59 76<22 203 203 203> 73 130<501 541.5> 381 136<134.5 176> 425 72<487 649>
AnchorPoint: "Anchor-2" 252 0 basechar 0
AnchorPoint: "Anchor-1" 309 686 basechar 0
LayerCount: 2
Fore
SplineSet
59 22 m 1xf4
 59 203 l 1
 135 203 l 1
 151 83 l 1
 164 68 l 1
 192 59 221 54 252 54 c 0
 333 54 381 94 381 149 c 0xf4
 381 203 345 239 274 275 c 0
 234 295 187 312 143 349 c 0
 97 388 73 437 73 486 c 0
 73 597 166 683 309 683 c 0
 371 683 434 671 497 649 c 1
 497 487 l 1
 425 487 l 1
 408 591 l 1
 394 605 l 1
 376 614 353 619 321 619 c 0
 248 619 203 579 203 524 c 0xea
 203 478 231 448 284 416 c 0
 315 397 368 382 427 344 c 0
 485 307 517 253 517 194 c 0
 517 75 416 -11 252 -11 c 0
 188 -11 121 0 59 22 c 1xf4
EndSplineSet
Substitution2: "'c2sc' Capitals to Small Capitals in Latin lookup 6 subtable" s.sc
Position2: "'cpsp' Capital Spacing in Latin lookup 2 subtable" dx=7 dy=0 dh=14 dv=0
EndChar

StartChar: T
Encoding: 84 84 53
Width: 603
GlyphClass: 2
Flags: MW
HStem: 0 49<155 454 155 155> 494 177<16 85 16 593 524 593 524 524> 614 57<117 237 117 117 372 492 372 372>
VStem: 16 69<494 671> 237 135<70 614 70 614> 524 69<494 671>
CounterMasks: 1 1c
AnchorPoint: "Anchor-2" 304 0 basechar 0
AnchorPoint: "Anchor-1" 304 686 basechar 0
LayerCount: 2
Fore
SplineSet
16 671 m 1xdc
 593 671 l 1
 593 494 l 1
 524 494 l 1xdc
 507 601 l 1
 492 614 l 1
 372 614 l 1
 372 70 l 1
 389 54 l 1
 454 49 l 1
 454 0 l 1
 155 0 l 1
 155 49 l 1
 220 54 l 1
 237 70 l 1
 237 614 l 1
 117 614 l 1xbc
 101 601 l 1
 85 494 l 1
 16 494 l 1
 16 671 l 1xdc
EndSplineSet
Substitution2: "'c2sc' Capitals to Small Capitals in Latin lookup 6 subtable" t.sc
Position2: "'cpsp' Capital Spacing in Latin lookup 2 subtable" dx=7 dy=0 dh=14 dv=0
EndChar

StartChar: U
Encoding: 85 85 54
Width: 705
GlyphClass: 2
Flags: MW
HStem: -12 79<334 449> 622 49<20 307 20 307>
VStem: 97 134<257 603> 546 73<262 599>
AnchorPoint: "Anchor-3" 355 0 basechar 0
AnchorPoint: "Anchor-2" 355 0 basechar 0
AnchorPoint: "Anchor-1" 358 686 basechar 0
LayerCount: 2
Fore
SplineSet
20 671 m 1
 307 671 l 1
 307 622 l 1
 245 617 l 1
 231 603 l 1
 231 253 l 2
 231 124 274 67 394 67 c 0
 505 67 546 129 546 262 c 2
 546 599 l 1
 531 616 l 1
 467 622 l 1
 467 671 l 1
 694 671 l 1
 694 622 l 1
 633 616 l 1
 619 599 l 1
 619 252 l 2
 619 69 543 -12 355 -12 c 0
 256 -12 182 18 141 70 c 0
 102 121 97 180 97 257 c 2
 97 603 l 1
 83 617 l 1
 20 622 l 1
 20 671 l 1
EndSplineSet
Substitution2: "'c2sc' Capitals to Small Capitals in Latin lookup 6 subtable" u.sc
Position2: "'cpsp' Capital Spacing in Latin lookup 2 subtable" dx=7 dy=0 dh=14 dv=0
EndChar

StartChar: V
Encoding: 86 86 55
Width: 635
GlyphClass: 2
Flags: MW
HStem: -2 21G<272 373 272 272> 622 49<-21 254 -21 254>
AnchorPoint: "Anchor-2" 322 0 basechar 0
AnchorPoint: "Anchor-1" 321 686 basechar 0
LayerCount: 2
Fore
SplineSet
-21 671 m 1
 254 671 l 1
 254 622 l 1
 196 617 l 1
 185 602 l 1
 351 146 l 1
 512 602 l 1
 501 617 l 1
 441 622 l 1
 441 671 l 1
 660 671 l 1
 660 622 l 1
 595 609 l 1
 373 -2 l 1
 272 -2 l 1
 45 610 l 1
 -21 622 l 1
 -21 671 l 1
EndSplineSet
Substitution2: "'c2sc' Capitals to Small Capitals in Latin lookup 6 subtable" v.sc
Position2: "'cpsp' Capital Spacing in Latin lookup 2 subtable" dx=7 dy=0 dh=14 dv=0
EndChar

StartChar: W
Encoding: 87 87 56
Width: 946
GlyphClass: 2
Flags: MW
HStem: 0 21G<227 227 227 324 631 631 631 728> 622 49<2 264>
AnchorPoint: "Anchor-2" 474 0 basechar 0
AnchorPoint: "Anchor-1" 474 686 basechar 0
LayerCount: 2
Fore
SplineSet
227 0 m 1
 65 608 l 1
 2 622 l 1
 2 671 l 1
 264 671 l 1
 264 623 l 1
 202 616 l 1
 194 602 l 1
 306 187 l 1
 450 671 l 1
 551 671 l 1
 699 176 l 1
 804 596 l 1
 792 610 l 1
 726 622 l 1
 726 671 l 1
 944 671 l 1
 944 622 l 1
 881 608 l 1
 728 0 l 1
 631 0 l 1
 476 512 l 1
 324 0 l 1
 227 0 l 1
EndSplineSet
Substitution2: "'c2sc' Capitals to Small Capitals in Latin lookup 6 subtable" w.sc
Position2: "'cpsp' Capital Spacing in Latin lookup 2 subtable" dx=7 dy=0 dh=14 dv=0
EndChar

StartChar: X
Encoding: 88 88 57
Width: 637
GlyphClass: 2
Flags: MW
HStem: 0 48<0 231 0 0> 623 48<14 297 14 297>
AnchorPoint: "Anchor-2" 322 0 basechar 0
AnchorPoint: "Anchor-1" 322 686 basechar 0
LayerCount: 2
Fore
SplineSet
14 671 m 1
 297 671 l 1
 297 623 l 1
 237 618 l 1
 229 605 l 1
 343 419 l 1
 473 602 l 1
 464 616 l 1
 409 623 l 1
 409 671 l 1
 633 671 l 1
 633 623 l 1
 571 615 l 1
 385 363 l 1
 577 61 l 1
 644 48 l 1
 644 0 l 1
 354 0 l 1
 354 48 l 1
 417 56 l 1
 424 69 l 1
 302 269 l 1
 160 71 l 1
 166 54 l 1
 231 48 l 1
 231 0 l 1
 0 0 l 1
 0 48 l 1
 64 58 l 1
 259 325 l 1
 77 613 l 1
 14 623 l 1
 14 671 l 1
EndSplineSet
Substitution2: "'c2sc' Capitals to Small Capitals in Latin lookup 6 subtable" x.sc
Position2: "'cpsp' Capital Spacing in Latin lookup 2 subtable" dx=7 dy=0 dh=14 dv=0
EndChar

StartChar: Y
Encoding: 89 89 58
Width: 610
GlyphClass: 2
Flags: MW
HStem: 0 50<162 462 162 162> 622 49<-11 262 -11 262>
VStem: 245 133<69 264 264 264>
AnchorPoint: "Anchor-2" 305 0 basechar 0
AnchorPoint: "Anchor-1" 305 686 basechar 0
LayerCount: 2
Fore
SplineSet
-11 671 m 1
 262 671 l 1
 262 622 l 1
 206 617 l 1
 197 605 l 1
 334 351 l 1
 477 596 l 1
 469 612 l 1
 409 623 l 1
 409 671 l 1
 627 671 l 1
 627 622 l 1
 568 611 l 1
 378 288 l 1
 378 69 l 1
 394 55 l 1
 462 50 l 1
 462 0 l 1
 162 0 l 1
 162 50 l 1
 229 55 l 1
 245 69 l 1
 245 264 l 1
 53 612 l 1
 -11 622 l 1
 -11 671 l 1
EndSplineSet
Substitution2: "'c2sc' Capitals to Small Capitals in Latin lookup 6 subtable" y.sc
Position2: "'cpsp' Capital Spacing in Latin lookup 2 subtable" dx=7 dy=0 dh=14 dv=0
EndChar

StartChar: Z
Encoding: 90 90 59
Width: 592
GlyphClass: 2
Flags: MW
HStem: 0 59<194 450 194 550> 494 21G<62 133 62 62> 613 58<168 394 168 168>
VStem: 62 71<494 671> 478 72<0 194>
AnchorPoint: "Anchor-2" 297 0 basechar 0
AnchorPoint: "Anchor-1" 297 686 basechar 0
LayerCount: 2
Fore
SplineSet
62 671 m 1
 544 671 l 1
 544 616 l 1
 194 59 l 1
 450 59 l 1
 460 73 l 1
 478 194 l 1
 550 194 l 1
 550 0 l 1
 44 0 l 1
 44 55 l 1
 394 613 l 1
 168 613 l 1
 149 601 l 1
 133 494 l 1
 62 494 l 1
 62 671 l 1
EndSplineSet
Substitution2: "'c2sc' Capitals to Small Capitals in Latin lookup 6 subtable" z.sc
Position2: "'cpsp' Capital Spacing in Latin lookup 2 subtable" dx=7 dy=0 dh=14 dv=0
EndChar

StartChar: bracketleft
Encoding: 91 91 60
Width: 443
GlyphClass: 2
Flags: MW
HStem: -132 55<251 405 251 405> 652 56<251 405 251 251>
VStem: 136 115<-77 652 -77 708 -77 708>
LayerCount: 2
Fore
SplineSet
136 708 m 1
 405 708 l 1
 405 652 l 1
 251 652 l 1
 251 -77 l 1
 405 -77 l 1
 405 -132 l 1
 136 -132 l 1
 136 708 l 1
EndSplineSet
EndChar

StartChar: backslash
Encoding: 92 92 61
Width: 491
GlyphClass: 2
Flags: MW
HStem: 651 20G<-7 68 68 68>
LayerCount: 2
Fore
SplineSet
-7 671 m 1
 68 671 l 1
 486 -93 l 1
 411 -93 l 1
 -7 671 l 1
EndSplineSet
EndChar

StartChar: bracketright
Encoding: 93 93 62
Width: 443
GlyphClass: 2
Flags: MW
HStem: -132 55<42 196 42 312 42 196> 653 55<42 196 42 312>
VStem: 196 116<-77 653 653 653>
LayerCount: 2
Fore
SplineSet
42 708 m 1
 312 708 l 1
 312 -132 l 1
 42 -132 l 1
 42 -77 l 1
 196 -77 l 1
 196 653 l 1
 42 653 l 1
 42 708 l 1
EndSplineSet
EndChar

StartChar: asciicircum
Encoding: 94 94 63
Width: 1000
GlyphClass: 2
Flags: MW
HStem: 632 82<499 499>
LayerCount: 2
Fore
SplineSet
552 714 m 1
 797 438 l 1
 746 438 l 1
 499 632 l 1
 252 438 l 1
 201 438 l 1
 447 714 l 1
 552 714 l 1
EndSplineSet
EndChar

StartChar: underscore
Encoding: 95 95 64
Width: 500
GlyphClass: 2
Flags: MW
HStem: -236 84<0 500 0 500>
LayerCount: 2
Fore
SplineSet
500 -152 m 1
 500 -236 l 1
 0 -236 l 1
 0 -152 l 1
 500 -152 l 1
EndSplineSet
EndChar

StartChar: grave
Encoding: 96 96 65
Width: 500
GlyphClass: 2
Flags: MW
HStem: 552 190<86 307 86 239>
VStem: 86 221<552 742>
LayerCount: 2
Fore
SplineSet
86 742 m 1
 210 742 l 1
 307 552 l 1
 239 552 l 1
 86 742 l 1
EndSplineSet
EndChar

StartChar: a
Encoding: 97 97 66
Width: 544
GlyphClass: 2
Flags: MW
HStem: -9 77<132.5 259> 0 44<356 534> 261 51<343 344> 446 53<241.5 282>
VStem: 40 132<120 176 120 178.5> 63 138<369.5 411.5> 343 125<57 322 98 261 261 261>
AnchorPoint: "Anchor-3" 406 0 basechar 0
AnchorPoint: "Anchor-2" 281 0 basechar 0
AnchorPoint: "Anchor-1" 281 499 basechar 0
LayerCount: 2
Fore
SplineSet
343 57 m 1x76
 279 14 225 -9 171 -9 c 0
 94 -9 40 45 40 121 c 0xba
 40 236 135 265 344 312 c 1
 344 342 l 2
 344 414 315 446 249 446 c 0
 234 446 219 444 201 440 c 1
 201 346 l 1
 109 346 l 2
 79 346 63 356 63 383 c 0
 63 440 149 499 281 499 c 0
 421 499 468 450 468 322 c 2
 468 63 l 1
 481 49 l 1
 534 44 l 1
 534 0 l 1
 356 0 l 1
 343 57 l 1x76
343 98 m 1
 343 261 l 1
 225 235 172 209 172 143 c 0
 172 97 200 68 246 68 c 0
 272 68 304 78 343 98 c 1
EndSplineSet
Substitution2: "'smcp' Lowercase to Small Capitals in Latin lookup 4 subtable" a.sc
EndChar

StartChar: b
Encoding: 98 98 67
Width: 577
GlyphClass: 2
Flags: MW
HStem: -1 54<192 297.5 192 297.5> 420 78<259 407> 653 39<9 81 9 9> 719 20G<157 205 205 205>
VStem: 81 124<54 54 54 412 453 653 653 653> 413 134<213 302>
AnchorPoint: "Anchor-2" 313 0 basechar 0
AnchorPoint: "Anchor-1" 313 739 basechar 0
LayerCount: 2
Fore
SplineSet
157 739 m 1
 205 739 l 1
 205 453 l 1
 259 483 306 498 350 498 c 0
 464 498 547 406 547 271 c 0
 547 155 492 69 389 23 c 0
 352 7 296 -1 219 -1 c 2
 192 -1 l 1
 81 1 l 1
 81 653 l 1
 9 653 l 1
 9 692 l 1
 157 739 l 1
205 54 m 1
 216 53 227 53 237 53 c 0
 358 53 413 114 413 245 c 0
 413 359 360 420 268 420 c 0
 250 420 229 417 205 412 c 1
 205 54 l 1
EndSplineSet
Substitution2: "'smcp' Lowercase to Small Capitals in Latin lookup 4 subtable" b.sc
EndChar

StartChar: c
Encoding: 99 99 68
Width: 476
GlyphClass: 2
Flags: MW
HStem: -8 79<278.5 307> 448 49<267 305.5>
VStem: 35 136<202 314> 327 131<368.5 418.5 368.5 445 368.5 445>
AnchorPoint: "Anchor-2" 275 0 basechar 0
AnchorPoint: "Anchor-1" 293 499 basechar 0
LayerCount: 2
Fore
SplineSet
464 45 m 1
 400 10 339 -8 275 -8 c 0
 130 -8 35 93 35 238 c 0
 35 390 143 497 293 497 c 0
 396 497 458 449 458 388 c 0
 458 349 429 320 386 320 c 0
 364 320 345 326 327 339 c 1
 327 445 l 1
 317 447 309 448 302 448 c 0
 232 448 171 376 171 262 c 0
 171 142 232 71 325 71 c 0
 368 71 415 86 464 116 c 1
 464 45 l 1
EndSplineSet
Substitution2: "'smcp' Lowercase to Small Capitals in Latin lookup 4 subtable" c.sc
EndChar

StartChar: d
Encoding: 100 100 69
Width: 596
GlyphClass: 2
Flags: MW
HStem: -9 85<175 317> 0 44<389 576> 444 56<272.5 308.5 219 325.5> 652 40<316 389 316 316> 719 20G<465 511 511 511>
VStem: 37 134<197 312.5 197 312.5> 389 122<0 739 56 739 95 429 429 429 490 652 652 652>
AnchorPoint: "Anchor-2" 306 0 basechar 0
AnchorPoint: "Anchor-1" 274 739 basechar 0
LayerCount: 2
Fore
SplineSet
389 652 m 1xbe
 316 652 l 1
 316 692 l 1
 465 739 l 1
 511 739 l 1
 511 64 l 1
 525 48 l 1
 576 44 l 1
 576 0 l 1
 389 0 l 1x7e
 389 56 l 1
 332 14 282 -9 231 -9 c 0
 119 -9 37 88 37 232 c 0
 37 393 143 500 295 500 c 0
 322 500 353 497 389 490 c 1
 389 652 l 1xbe
389 95 m 1
 389 429 l 1
 360 439 336 444 315 444 c 0
 230 444 171 372 171 253 c 0
 171 141 222 76 305 76 c 0xbe
 329 76 357 83 389 95 c 1
EndSplineSet
Substitution2: "'smcp' Lowercase to Small Capitals in Latin lookup 4 subtable" d.sc
EndChar

StartChar: e
Encoding: 101 101 70
Width: 524
GlyphClass: 2
Flags: MW
HStem: -9 78<276.5 319> 50 74<491 491> 255 53<170 361 170 492 165 361> 445 55<244 301.5>
VStem: 37 128<194.5 252 252 255 194.5 318.5> 361 131<255 319 255 360.5>
AnchorPoint: "Anchor-3" 284 0 basechar 0
AnchorPoint: "Anchor-2" 284 0 basechar 0
AnchorPoint: "Anchor-1" 284 499 basechar 0
LayerCount: 2
Fore
SplineSet
491 124 m 1x7c
 491 50 l 1x7c
 424 11 354 -9 284 -9 c 0
 135 -9 37 91 37 242 c 0
 37 395 140 500 284 500 c 0
 415 500 492 418 492 274 c 2
 492 255 l 1
 165 255 l 1
 165 252 l 2
 165 137 227 69 326 69 c 0xbc
 379 69 433 87 491 124 c 1x7c
361 308 m 1
 361 319 l 2
 361 402 329 445 274 445 c 0
 214 445 173 395 170 308 c 1
 361 308 l 1
EndSplineSet
Substitution2: "'smcp' Lowercase to Small Capitals in Latin lookup 4 subtable" e.sc
EndChar

StartChar: f
Encoding: 102 102 71
Width: 341
GlyphClass: 2
Flags: MWO
HStem: 0 46<31 31 31 301> 414 60<218 352 218 352> 723 20G<297.5 347>
VStem: 95 123<67 414 66 414 482 530>
AnchorPoint: "Anchor-2" 156 0 basechar 0
AnchorPoint: "Anchor-1" 318 739 basechar 0
LayerCount: 2
Fore
SplineSet
31 0 m 1
 31 46 l 1
 81 51 l 1
 95 67 l 1
 95 414 l 1
 30 414 l 1
 30 452 l 1
 95 482 l 1
 95 578 128 650 197 701 c 0
 234 729 277 743 318 743 c 0
 376 743 412 713 412 670 c 0
 412 643 392 621 354 608 c 1
 257 694 l 1
 231 667 218 616 218 542 c 2
 218 534 l 1
 218 474 l 1
 352 474 l 1
 352 414 l 1
 218 414 l 1
 218 66 l 1
 234 51 l 1
 301 46 l 1
 301 0 l 1
 31 0 l 1
EndSplineSet
Substitution2: "'smcp' Lowercase to Small Capitals in Latin lookup 4 subtable" f.sc
EndChar

StartChar: g
Encoding: 103 103 72
Width: 551
GlyphClass: 2
Flags: MW
HStem: -217 53<238.5 308 238.5 321.5> 168 45<252.5 288.5 241 323> 411 57<447 555 447 447> 450 47<242 289>
VStem: 34 122<-91 -49> 55 128<296 370.5 296 376> 124 96<73 138> 346 123<297 347 286 371> 391 119<-87 -45.5>
AnchorPoint: "Anchor-2" 241 -219 basechar 0
AnchorPoint: "Anchor-1" 258 499 basechar 0
LayerCount: 2
Fore
SplineSet
407 468 m 1xe4
 555 468 l 1
 555 411 l 1
 447 411 l 1
 462 385 469 360 469 334 c 0
 469 238 389 168 257 168 c 0
 248 168 238 168 228 169 c 1
 223 156 220 144 220 132 c 0xe3
 220 124 221 115 223 105 c 1
 291 96 l 2
 436 75 510 45 510 -40 c 0
 510 -134 402 -217 241 -217 c 0
 109 -217 34 -162 34 -80 c 0xe880
 34 -18 73 24 137 30 c 1
 128 49 124 66 124 80 c 0xe2
 124 113 142 142 179 175 c 1
 98 198 55 253 55 325 c 0
 55 427 136 497 269 497 c 0xd4
 312 497 358 488 407 468 c 1xe4
267 450 m 0xd5
 217 450 183 407 183 334 c 0
 183 258 217 213 265 213 c 0
 312 213 346 259 346 335 c 0
 346 407 311 450 267 450 c 0xd5
198 19 m 1
 170 -4 156 -32 156 -64 c 0
 156 -118 205 -164 272 -164 c 0
 344 -164 391 -121 391 -70 c 0xc880
 391 -21 354 -7 283 5 c 2
 198 19 l 1
EndSplineSet
Substitution2: "'smcp' Lowercase to Small Capitals in Latin lookup 4 subtable" g.sc
EndChar

StartChar: h
Encoding: 104 104 73
Width: 597
GlyphClass: 2
Flags: MW
HStem: 0 45<24 271 24 24> 411 87<295 429> 653 39<16 89 16 16> 719 20G<164 212 212 212>
VStem: 89 123<64 394 437 653 653 653> 398 122<64 303 303 332 64 340>
AnchorPoint: "Anchor-2" 304 0 basechar 0
AnchorPoint: "Anchor-1" 304 739 basechar 0
LayerCount: 2
Fore
SplineSet
164 739 m 1
 212 739 l 1
 212 437 l 1
 284 476 338 498 383 498 c 0
 475 498 520 443 520 332 c 2
 520 64 l 1
 533 49 l 1
 586 45 l 1
 586 0 l 1
 341 0 l 1
 341 45 l 1
 384 49 l 1
 398 64 l 1
 398 303 l 2
 398 377 370 411 308 411 c 0
 282 411 250 405 212 394 c 1
 212 64 l 1
 227 49 l 1
 271 45 l 1
 271 0 l 1
 24 0 l 1
 24 45 l 1
 75 49 l 1
 89 64 l 1
 89 653 l 1
 16 653 l 1
 16 692 l 1
 164 739 l 1
EndSplineSet
Substitution2: "'smcp' Lowercase to Small Capitals in Latin lookup 4 subtable" h.sc
EndChar

StartChar: i
Encoding: 105 105 74
Width: 305
GlyphClass: 2
Flags: MW
HStem: 0 45<30 292 30 30> 476 20G<173 221 221 221> 575 149<143 184>
VStem: 90 147<628.5 670.5> 98 123<64 409 409 409>
AnchorPoint: "Anchor-3" 161 0 basechar 0
AnchorPoint: "Anchor-2" 160 0 basechar 0
AnchorPoint: "Anchor-1" 160 704 basechar 0
LayerCount: 2
Fore
SplineSet
162 724 m 0xf0
 207 724 237 692 237 651 c 0
 237 606 205 575 163 575 c 0
 123 575 90 605 90 649 c 0
 90 692 121 724 162 724 c 0xf0
173 496 m 1
 221 496 l 1
 221 64 l 1
 236 49 l 1
 292 45 l 1
 292 0 l 1
 30 0 l 1
 30 45 l 1
 84 49 l 1
 98 64 l 1
 98 409 l 1xe8
 32 409 l 1
 32 449 l 1
 173 496 l 1
EndSplineSet
Substitution2: "'smcp' Lowercase to Small Capitals in Latin lookup 4 subtable" i.sc
Substitution2: "'locl' Localized Forms in Latin lookup 1 subtable" i.TRK
EndChar

StartChar: j
Encoding: 106 106 75
Width: 297
GlyphClass: 2
Flags: MW
HStem: 409 39<38 109 38 38> 476 20G<189 231 231 231> 575 149<147 187.5>
VStem: 94 148<627.5 670 627.5 671> 109 122<48 98 98 409 409 409>
AnchorPoint: "Anchor-2" 40 -219 basechar 0
LayerCount: 2
Fore
SplineSet
109 409 m 1xe8
 38 409 l 1
 38 448 l 1
 189 496 l 1
 231 496 l 1
 231 98 l 2
 231 -2 222 -76 177 -134 c 0
 138 -184 75 -214 11 -214 c 0
 -45 -214 -80 -184 -80 -144 c 0
 -80 -112 -58 -85 -22 -78 c 1
 76 -169 l 1
 101 -135 109 -69 109 29 c 2
 109 409 l 1xe8
94 649 m 0xf0
 94 693 124 724 169 724 c 0
 210 724 242 692 242 648 c 0
 242 607 208 575 167 575 c 0
 127 575 94 605 94 649 c 0xf0
EndSplineSet
Substitution2: "'smcp' Lowercase to Small Capitals in Latin lookup 4 subtable" j.sc
EndChar

StartChar: k
Encoding: 107 107 76
Width: 553
GlyphClass: 2
Flags: MW
HStem: 0 44<25 25 25 277> 226 33<214 236 214 263 214 236> 442 44<328 532 328 532> 653 39<18 91 18 18> 719 20G<172 214 214 214>
VStem: 91 123<64 226 259 653 653 653>
AnchorPoint: "Anchor-2" 294 0 basechar 0
AnchorPoint: "Anchor-1" 294 739 basechar 0
LayerCount: 2
Fore
SplineSet
25 0 m 1
 25 44 l 1
 77 49 l 1
 91 64 l 1
 91 653 l 1
 18 653 l 1
 18 692 l 1
 172 739 l 1
 214 739 l 1
 214 259 l 1
 236 259 l 1
 379 426 l 1
 372 437 l 1
 328 442 l 1
 328 486 l 1
 532 486 l 1
 532 442 l 1
 467 434 l 1
 353 307 l 1
 512 49 l 1
 571 44 l 1
 571 0 l 1
 379 0 l 1
 379 39 l 1
 263 226 l 1
 214 226 l 1
 214 62 l 1
 227 48 l 1
 277 44 l 1
 277 0 l 1
 25 0 l 1
EndSplineSet
Substitution2: "'smcp' Lowercase to Small Capitals in Latin lookup 4 subtable" k.sc
EndChar

StartChar: l
Encoding: 108 108 77
Width: 304
GlyphClass: 2
Flags: MW
HStem: 0 44<23 23 23 291> 652 39<23 95 23 23> 719 20G<174 218 218 218>
VStem: 95 123<66 652 652 652>
AnchorPoint: "Anchor-2" 156 0 basechar 0
AnchorPoint: "Anchor-1" 156 739 basechar 0
LayerCount: 2
Fore
SplineSet
23 0 m 1
 23 44 l 1
 81 50 l 1
 95 64 l 1
 95 652 l 1
 23 652 l 1
 23 691 l 1
 174 739 l 1
 218 739 l 1
 218 66 l 1
 233 50 l 1
 291 44 l 1
 291 0 l 1
 23 0 l 1
EndSplineSet
Substitution2: "'smcp' Lowercase to Small Capitals in Latin lookup 4 subtable" l.sc
EndChar

StartChar: m
Encoding: 109 109 78
Width: 892
GlyphClass: 2
Flags: MW
HStem: 0 45<31 276 31 31> 411 87<589.5 724.5>
VStem: 96 124<64 394 64 409 64 409> 394 122<66 309 309 344> 694 123<64 303 303 332 64 340.5>
AnchorPoint: "Anchor-2" 456 0 basechar 0
AnchorPoint: "Anchor-1" 456 499 basechar 0
LayerCount: 2
Fore
SplineSet
501 430 m 1
 581 476 641 498 678 498 c 0
 771 498 817 443 817 332 c 2
 817 64 l 1
 830 49 l 1
 883 45 l 1
 883 0 l 1
 637 0 l 1
 637 45 l 1
 680 49 l 1
 694 64 l 1
 694 303 l 2
 694 378 668 411 602 411 c 0
 577 411 549 404 516 392 c 1
 516 64 l 1
 530 49 l 1
 575 44 l 1
 575 0 l 1
 339 0 l 1
 339 45 l 1
 380 49 l 1
 394 66 l 1
 394 309 l 2
 394 379 368 412 304 412 c 0
 280 412 252 406 220 394 c 1
 220 64 l 1
 234 49 l 1
 276 45 l 1
 276 0 l 1
 31 0 l 1
 31 45 l 1
 82 49 l 1
 96 64 l 1
 96 409 l 1
 31 409 l 1
 31 449 l 1
 172 496 l 1
 220 496 l 1
 220 437 l 1
 288 477 340 500 384 500 c 0
 434 500 474 476 501 430 c 1
EndSplineSet
Substitution2: "'smcp' Lowercase to Small Capitals in Latin lookup 4 subtable" m.sc
EndChar

StartChar: n
Encoding: 110 110 79
Width: 605
GlyphClass: 2
Flags: MW
HStem: 0 45<31 31 31 278> 409 40<28 96 28 28> 409 87<28 220>
VStem: 96 124<64 394 64 409 64 409> 405 122<64 303 303 332 64 340>
AnchorPoint: "Anchor-2" 312 0 basechar 0
AnchorPoint: "Anchor-1" 312 499 basechar 0
LayerCount: 2
Fore
SplineSet
31 0 m 1xb8
 31 45 l 1
 82 49 l 1
 96 64 l 1
 96 409 l 1
 28 409 l 1
 28 449 l 1xd8
 172 496 l 1
 220 496 l 1
 220 437 l 1
 291 476 347 498 391 498 c 0
 483 498 527 443 527 332 c 2
 527 64 l 1
 540 49 l 1
 593 45 l 1
 593 0 l 1
 348 0 l 1
 348 45 l 1
 391 49 l 1
 405 64 l 1
 405 303 l 2
 405 377 378 411 315 411 c 0
 290 411 258 405 220 394 c 1
 220 64 l 1
 234 49 l 1
 278 45 l 1
 278 0 l 1
 31 0 l 1xb8
EndSplineSet
Substitution2: "'smcp' Lowercase to Small Capitals in Latin lookup 4 subtable" n.sc
EndChar

StartChar: o
Encoding: 111 111 80
Width: 577
GlyphClass: 2
Flags: MW
HStem: -8 53<256 328 256 367> 446 53<256.5 327.5>
VStem: 37 139<181.5 311.5 181.5 320> 409 138<179 309.5>
AnchorPoint: "Anchor-3" 288 0 basechar 0
AnchorPoint: "Anchor-2" 288 0 basechar 0
AnchorPoint: "Anchor-1" 296 499 basechar 0
LayerCount: 2
Fore
SplineSet
296 499 m 0
 449 499 547 400 547 241 c 0
 547 93 446 -8 288 -8 c 0
 138 -8 37 92 37 243 c 0
 37 397 139 499 296 499 c 0
292 446 m 0
 221 446 176 376 176 247 c 0
 176 116 221 45 291 45 c 0
 365 45 409 114 409 244 c 0
 409 375 363 446 292 446 c 0
EndSplineSet
Substitution2: "'smcp' Lowercase to Small Capitals in Latin lookup 4 subtable" o.sc
EndChar

StartChar: p
Encoding: 112 112 81
Width: 591
GlyphClass: 2
Flags: MW
HStem: -219 46<23 23 23 290> -1 54<284 321 267 376> 409 40<22 91 22 22> 413 86<280.5 424>
VStem: 91 122<-153 5 60 394> 424 136<186 299.5>
AnchorPoint: "Anchor-2" 325 -219 basechar 0
AnchorPoint: "Anchor-1" 325 499 basechar 0
LayerCount: 2
Fore
SplineSet
23 -219 m 1xdc
 23 -173 l 1
 77 -168 l 1
 91 -153 l 1
 91 409 l 1
 22 409 l 1
 22 449 l 1xec
 168 496 l 1
 213 496 l 1
 213 436 l 1
 272 477 322 499 371 499 c 0
 477 499 560 403 560 263 c 0
 560 103 457 -1 295 -1 c 0
 273 -1 246 1 213 5 c 1
 213 -155 l 1
 228 -169 l 1
 291 -173 l 1
 290 -219 l 1
 23 -219 l 1xdc
213 60 m 1
 236 55 257 53 277 53 c 0
 365 53 424 126 424 246 c 0
 424 353 373 413 292 413 c 0xdc
 269 413 243 406 213 394 c 1
 213 60 l 1
EndSplineSet
Substitution2: "'smcp' Lowercase to Small Capitals in Latin lookup 4 subtable" p.sc
EndChar

StartChar: q
Encoding: 113 113 82
Width: 575
GlyphClass: 2
Flags: MW
HStem: -218 46<304 571 304 304> -4 79<177.5 322.5> 444 55<281 341>
VStem: 37 135<193.5 312.5 193.5 313.5> 383 123<-154 43 43 43 82 428 -155 439 -155 439>
AnchorPoint: "Anchor-2" 272 -219 basechar 0
AnchorPoint: "Anchor-1" 272 499 basechar 0
LayerCount: 2
Fore
SplineSet
509 486 m 1
 507 452 506 433 506 428 c 2
 506 -155 l 1
 521 -169 l 1
 571 -173 l 1
 571 -218 l 1
 304 -218 l 1
 304 -172 l 1
 368 -168 l 1
 383 -154 l 1
 383 43 l 1
 327 12 278 -4 234 -4 c 0
 121 -4 37 90 37 229 c 0
 37 398 150 499 353 499 c 0
 398 499 449 494 509 486 c 1
383 439 m 1
 365 442 349 444 333 444 c 0
 229 444 172 375 172 250 c 0
 172 137 226 75 313 75 c 0
 332 75 356 77 383 82 c 1
 383 439 l 1
EndSplineSet
Substitution2: "'smcp' Lowercase to Small Capitals in Latin lookup 4 subtable" q.sc
EndChar

StartChar: r
Encoding: 114 114 83
Width: 421
GlyphClass: 2
Flags: MW
HStem: 0 45<29 29 29 305> 379 119<282 365> 409 40<24 96 24 24>
VStem: 96 123<64 351 64 409 64 409>
AnchorPoint: "Anchor-2" 167 0 basechar 0
AnchorPoint: "Anchor-1" 274 499 basechar 0
LayerCount: 2
Fore
SplineSet
29 0 m 1xd0
 29 45 l 1
 82 49 l 1
 96 64 l 1
 96 409 l 1
 24 409 l 1
 24 449 l 1xb0
 171 496 l 1
 219 496 l 1
 215 394 l 1
 251 433 291 467 332 496 c 0
 339 497 347 498 354 498 c 0
 376 498 398 492 420 481 c 1
 407 343 l 1
 355 343 l 1
 340 368 319 379 290 379 c 0
 274 379 250 370 219 351 c 1
 219 64 l 1
 234 49 l 1
 305 45 l 1
 305 0 l 1
 29 0 l 1xd0
EndSplineSet
Substitution2: "'smcp' Lowercase to Small Capitals in Latin lookup 4 subtable" r.sc
EndChar

StartChar: s
Encoding: 115 115 84
Width: 447
GlyphClass: 2
Flags: MW
HStem: -11 55<192 234 192 270.5> 342 133<335 395 335 395> 444 56<222.5 258.5>
VStem: 41 61<14 162 162 162> 48 123<363 394> 292 118<103.5 143> 335 60<342 475>
AnchorPoint: "Anchor-2" 206 0 basechar 0
AnchorPoint: "Anchor-1" 244 499 basechar 0
LayerCount: 2
Fore
SplineSet
395 475 m 1xca
 395 342 l 1
 335 342 l 1xca
 325 417 l 1
 313 428 l 1
 292 438 270 444 247 444 c 0
 198 444 171 421 171 384 c 0xaa
 171 342 205 325 264 296 c 0
 353 253 410 226 410 154 c 0
 410 53 335 -11 206 -11 c 0
 158 -11 103 -3 41 14 c 1
 41 162 l 1
 102 162 l 1xb4
 113 76 l 1
 123 65 l 1
 149 51 177 44 207 44 c 0
 261 44 292 72 292 116 c 0
 292 170 238 180 160 219 c 0
 86 256 48 291 48 351 c 0
 48 437 121 500 244 500 c 0xac
 294 500 344 492 395 475 c 1xca
EndSplineSet
Substitution2: "'smcp' Lowercase to Small Capitals in Latin lookup 4 subtable" s.sc
EndChar

StartChar: t
Encoding: 116 116 85
Width: 358
GlyphClass: 2
Flags: MW
HStem: -5 73<186.5 303> 414 60<208 356 208 356>
VStem: 84 124<129.5 165 165 414>
AnchorPoint: "Anchor-2" 184 0 basechar 0
AnchorPoint: "Anchor-1" 146 598 basechar 0
LayerCount: 2
Fore
SplineSet
84 414 m 1
 19 414 l 1
 19 452 l 1
 93 494 l 1
 145 598 l 1
 208 598 l 1
 208 474 l 1
 356 474 l 1
 356 414 l 1
 208 414 l 1
 208 165 l 2
 208 94 225 68 291 68 c 0
 315 68 336 70 356 75 c 1
 356 27 l 1
 296 5 244 -5 203 -5 c 0
 170 -5 143 1 120 17 c 0
 85 40 84 72 84 123 c 2
 84 414 l 1
EndSplineSet
Substitution2: "'smcp' Lowercase to Small Capitals in Latin lookup 4 subtable" t.sc
EndChar

StartChar: u
Encoding: 117 117 86
Width: 600
GlyphClass: 2
Flags: MW
HStem: -9 86<178.5 319.5> 0 45<393 582> 479 20G<164 212 212 212 470 516 516 516>
VStem: 88 124<162 189 189 412 412 412> 393 123<0 499 55 499 93 412 412 412>
AnchorPoint: "Anchor-3" 454 0 basechar 0
AnchorPoint: "Anchor-2" 302 0 basechar 0
AnchorPoint: "Anchor-1" 302 499 basechar 0
LayerCount: 2
Fore
SplineSet
164 499 m 1xb8
 212 499 l 1
 212 189 l 2
 212 111 238 77 307 77 c 0xb8
 332 77 360 83 393 93 c 1
 393 412 l 1
 328 412 l 1
 328 451 l 1
 470 499 l 1
 516 499 l 1
 516 64 l 1
 530 49 l 1
 582 45 l 1
 582 0 l 1
 393 0 l 1x78
 393 55 l 1
 330 14 278 -9 225 -9 c 0
 132 -9 88 47 88 162 c 2
 88 412 l 1
 23 412 l 1
 23 451 l 1
 164 499 l 1xb8
EndSplineSet
Substitution2: "'smcp' Lowercase to Small Capitals in Latin lookup 4 subtable" u.sc
EndChar

StartChar: v
Encoding: 118 118 87
Width: 513
GlyphClass: 2
Flags: MW
HStem: 0 21G<214 304 214 214> 441 46<-6 248 -6 248>
AnchorPoint: "Anchor-2" 259 0 basechar 0
AnchorPoint: "Anchor-1" 264 499 basechar 0
LayerCount: 2
Fore
SplineSet
-6 487 m 1
 248 487 l 1
 248 441 l 1
 196 436 l 1
 185 423 l 1
 289 131 l 1
 403 422 l 1
 395 436 l 1
 344 441 l 1
 344 487 l 1
 534 487 l 1
 534 441 l 1
 476 434 l 1
 304 0 l 1
 214 0 l 1
 54 435 l 1
 -6 441 l 1
 -6 487 l 1
EndSplineSet
Substitution2: "'smcp' Lowercase to Small Capitals in Latin lookup 4 subtable" v.sc
EndChar

StartChar: w
Encoding: 119 119 88
Width: 799
GlyphClass: 2
Flags: MW
HStem: 0 21G<188 288 188 188 518 619 518 518> 441 46<-1 247 -1 247>
AnchorPoint: "Anchor-2" 404 0 basechar 0
AnchorPoint: "Anchor-1" 405 499 basechar 0
LayerCount: 2
Fore
SplineSet
-1 487 m 1
 247 487 l 1
 247 441 l 1
 198 434 l 1
 187 420 l 1
 268 132 l 1
 385 487 l 1
 485 487 l 1
 594 132 l 1
 682 421 l 1
 675 435 l 1
 622 441 l 1
 622 487 l 1
 811 487 l 1
 811 441 l 1
 755 434 l 1
 619 0 l 1
 518 0 l 1
 407 359 l 1
 288 0 l 1
 188 0 l 1
 59 435 l 1
 -1 441 l 1
 -1 487 l 1
EndSplineSet
Substitution2: "'smcp' Lowercase to Small Capitals in Latin lookup 4 subtable" w.sc
EndChar

StartChar: x
Encoding: 120 120 89
Width: 531
GlyphClass: 2
Flags: MW
HStem: 0 44<11 205 11 11> 441 46<14 255>
AnchorPoint: "Anchor-2" 271 0 basechar 0
AnchorPoint: "Anchor-1" 271 499 basechar 0
LayerCount: 2
Fore
SplineSet
14 487 m 1
 255 487 l 1
 255 445 l 1
 217 439 l 1
 212 428 l 1
 292 309 l 1
 379 434 l 1
 328 443 l 1
 328 487 l 1
 512 487 l 1
 512 441 l 1
 457 434 l 1
 329 268 l 1
 478 53 l 1
 531 44 l 1
 531 0 l 1
 297 0 l 1
 297 39 l 1
 332 48 l 1
 336 58 l 1
 248 192 l 1
 154 54 l 1
 205 44 l 1
 205 0 l 1
 11 0 l 1
 11 44 l 1
 70 55 l 1
 210 234 l 1
 71 433 l 1
 14 441 l 1
 14 487 l 1
EndSplineSet
Substitution2: "'smcp' Lowercase to Small Capitals in Latin lookup 4 subtable" x.sc
EndChar

StartChar: y
Encoding: 121 121 90
Width: 515
GlyphClass: 2
Flags: MW
HStem: -219 21G<78.5 136> 443 43<-4 250 -4 250>
AnchorPoint: "Anchor-2" 266 -219 basechar 0
AnchorPoint: "Anchor-1" 268 499 basechar 0
LayerCount: 2
Fore
SplineSet
-4 486 m 1
 250 486 l 1
 250 443 l 1
 199 437 l 1
 189 423 l 1
 297 140 l 1
 406 422 l 1
 397 437 l 1
 344 443 l 1
 344 486 l 1
 536 486 l 1
 536 443 l 1
 482 434 l 1
 289 -35 l 2
 240 -153 169 -219 103 -219 c 0
 54 -219 17 -183 17 -145 c 0
 17 -116 36 -91 69 -74 c 1
 156 -134 l 1
 182 -113 209 -72 234 -12 c 1
 56 434 l 1
 -4 443 l 1
 -4 486 l 1
EndSplineSet
Substitution2: "'smcp' Lowercase to Small Capitals in Latin lookup 4 subtable" y.sc
EndChar

StartChar: z
Encoding: 122 122 91
Width: 495
GlyphClass: 2
Flags: MW
HStem: 0 56<185 370 185 465> 432 54<142 304 142 142>
VStem: 54 65<335 486> 397 68<0 164>
AnchorPoint: "Anchor-2" 256 0 basechar 0
AnchorPoint: "Anchor-1" 256 499 basechar 0
LayerCount: 2
Fore
SplineSet
46 0 m 1
 46 62 l 1
 304 432 l 1
 142 432 l 1
 129 418 l 1
 119 335 l 1
 54 335 l 1
 54 486 l 1
 450 486 l 1
 450 434 l 1
 185 56 l 1
 370 56 l 1
 385 72 l 1
 397 164 l 1
 465 164 l 1
 465 0 l 1
 46 0 l 1
EndSplineSet
Substitution2: "'smcp' Lowercase to Small Capitals in Latin lookup 4 subtable" z.sc
EndChar

StartChar: braceleft
Encoding: 123 123 92
Width: 493
GlyphClass: 2
Flags: MW
HStem: -135 54<314.5 421> 263 57<46 66 46 66> 654 51<400 421>
VStem: 183 116<51 119 -1.5 132 -1.5 180.5>
LayerCount: 2
Fore
SplineSet
421 705 m 1
 421 654 l 1
 322 651 298 619 298 529 c 2
 298 466 l 2
 298 361 255 308 153 291 c 1
 253 275 299 221 299 119 c 2
 299 46 l 2
 299 -49 320 -80 421 -81 c 1
 421 -134 l 1
 411 -134 401 -135 391 -135 c 0
 238 -135 183 -88 183 51 c 2
 183 132 l 2
 183 229 154 263 66 263 c 2
 46 263 l 1
 46 320 l 1
 66 320 l 2
 156 320 183 354 183 448 c 2
 183 532 l 2
 183 660 245 705 400 705 c 2
 421 705 l 1
EndSplineSet
EndChar

StartChar: bar
Encoding: 124 124 93
Width: 500
GlyphClass: 2
Flags: MW
VStem: 207 87<-236 764 -236 764>
LayerCount: 2
Fore
SplineSet
294 764 m 1
 294 -236 l 1
 207 -236 l 1
 207 764 l 1
 294 764 l 1
EndSplineSet
EndChar

StartChar: braceright
Encoding: 125 125 94
Width: 493
GlyphClass: 2
Flags: MW
HStem: -135 54<62 168.5> 263 56<373 417 417 418.5 371.5 437> 654 51<62 83>
VStem: 185 115<46 51 51 119 119 132 -18.5 170>
LayerCount: 2
Fore
SplineSet
62 705 m 1
 83 705 l 2
 240 705 301 661 301 532 c 2
 301 448 l 2
 301 355 328 319 415 319 c 0
 422 319 429 320 437 320 c 1
 437 263 l 1
 417 263 l 2
 329 263 300 229 300 132 c 2
 300 51 l 2
 300 -88 245 -135 92 -135 c 0
 82 -135 72 -134 62 -134 c 1
 62 -81 l 1
 164 -80 185 -48 185 46 c 2
 185 119 l 2
 185 221 230 275 330 291 c 1
 227 309 186 361 186 466 c 2
 186 529 l 2
 186 620 160 651 62 654 c 1
 62 705 l 1
EndSplineSet
EndChar

StartChar: asciitilde
Encoding: 126 126 95
Width: 833
GlyphClass: 2
Flags: MW
HStem: 212 91<87 87> 224 84<546.5 591> 290 83<247 304.5 247 307> 293 90<747 747>
LayerCount: 2
Fore
SplineSet
747 293 m 1x10
 682 248 621 224 561 224 c 0x40
 532 224 500 230 468 241 c 0
 399 264 339 290 275 290 c 0x20
 217 290 158 262 87 212 c 1
 87 303 l 1x80
 156 350 218 373 276 373 c 0x20
 333 373 378 358 419 344 c 0
 468 327 513 308 562 308 c 0x40
 620 308 679 334 747 383 c 1
 747 293 l 1x10
EndSplineSet
EndChar

StartChar: exclamdown
Encoding: 161 161 96
Width: 340
GlyphClass: 2
Flags: MW
HStem: -8 21G<145.5 192> 532 152<149.5 190 149.5 190.5>
VStem: 94 152<49 76.5 45.5 80>
LayerCount: 2
Fore
SplineSet
170 532 m 0
 129 532 95 566 95 609 c 0
 95 651 129 684 170 684 c 0
 210 684 245 651 245 609 c 0
 245 566 211 532 170 532 c 0
97 122 m 2
 143 479 l 1
 195 479 l 1
 241 124 l 2
 244 102 246 84 246 69 c 0
 246 22 215 -8 169 -8 c 0
 122 -8 94 23 94 75 c 0
 94 85 94 101 97 122 c 2
EndSplineSet
Substitution2: "'smcp' Lowercase to Small Capitals in Latin lookup 4 subtable" exclamdown.sc
EndChar

StartChar: cent
Encoding: 162 162 97
Width: 581
GlyphClass: 2
Flags: MW
HStem: 1 56<360 372> 455 57<360 371.5>
VStem: 59 127<202 306 202 324> 305 55<-102 1 -102 2 -102 2 59 453 453 453 512 612> 444 60<25 176>
LayerCount: 2
Fore
SplineSet
305 612 m 1
 360 612 l 1
 360 512 l 1
 408 511 455 502 503 483 c 1
 503 339 l 1
 444 339 l 1
 429 437 l 1
 406 450 383 455 360 455 c 1
 360 57 l 1
 384 57 407 62 429 72 c 1
 444 176 l 1
 504 176 l 1
 504 25 l 1
 464 10 416 3 360 1 c 1
 360 -102 l 1
 305 -102 l 1
 305 2 l 1
 156 13 59 115 59 253 c 0
 59 395 152 495 305 510 c 1
 305 612 l 1
305 453 m 1
 231 432 186 360 186 252 c 0
 186 152 233 79 305 59 c 1
 305 453 l 1
EndSplineSet
Substitution2: "'smcp' Lowercase to Small Capitals in Latin lookup 4 subtable" cent.sc
EndChar

StartChar: sterling
Encoding: 163 163 98
Width: 581
GlyphClass: 2
Flags: MW
HStem: 0 72<43 540 43 43> 0 100<241 540 241 540> 299 60<76 145 76 146 76 145 269 449 269 269> 496 21G<456.5 484.5> 625 54<341 390>
VStem: 142 124<409 488.5 409 501.5> 421 117<544.5 595 544.5 620 544.5 620>
LayerCount: 2
Fore
SplineSet
421 504 m 1xbe
 421 620 l 1
 408 624 396 625 384 625 c 0
 298 625 266 559 266 418 c 0
 266 400 267 380 268 359 c 1
 449 359 l 1
 449 299 l 1
 269 299 l 1
 269 204 237 140 168 101 c 1
 170 93 l 1
 203 98 227 100 241 100 c 2
 540 100 l 1
 540 0 l 1x7e
 43 0 l 1
 43 72 l 1
 122 92 147 149 147 263 c 0
 147 275 146 287 146 299 c 1
 76 299 l 1
 76 359 l 1
 145 359 l 1
 143 379 142 399 142 417 c 0
 142 586 227 679 368 679 c 0
 470 679 538 626 538 564 c 0
 538 525 508 496 461 496 c 0
 452 496 438 499 421 504 c 1xbe
EndSplineSet
EndChar

StartChar: currency
Encoding: 164 164 99
Width: 606
GlyphClass: 2
Flags: MW
HStem: 226 65<281 327> 574 65<280 326 280 343>
VStem: 97 65<409.5 454.5> 446 64<409.5 454.5 409.5 470.5>
LayerCount: 2
Fore
SplineSet
181 599 m 1
 217 626 257 639 303 639 c 0
 349 639 390 626 426 599 c 1
 525 698 l 1
 571 653 l 1
 471 553 l 1
 497 518 510 477 510 432 c 0
 510 387 497 346 471 311 c 1
 571 211 l 1
 525 166 l 1
 426 266 l 1
 389 239 350 226 304 226 c 0
 258 226 217 239 181 266 c 1
 82 166 l 1
 37 211 l 1
 136 311 l 1
 110 346 97 387 97 432 c 0
 97 477 110 518 136 553 c 1
 37 653 l 1
 82 698 l 1
 181 599 l 1
446 432 m 0
 446 509 382 574 304 574 c 0
 226 574 162 509 162 432 c 0
 162 354 225 291 304 291 c 0
 383 291 446 354 446 432 c 0
EndSplineSet
EndChar

StartChar: yen
Encoding: 165 165 100
Width: 595
GlyphClass: 2
Flags: MW
HStem: 0 50<152 451 152 152> 235 49<22 227 22 237 22 227 365 578 365 365> 380 50<22 148 22 178 22 148 446 578> 622 49<-7 256 -7 256>
VStem: 237 128<69 235 69 235>
LayerCount: 2
Fore
SplineSet
-7 671 m 1
 256 671 l 1
 256 622 l 1
 202 617 l 1
 193 605 l 1
 324 351 l 1
 459 596 l 1
 451 612 l 1
 395 623 l 1
 395 671 l 1
 603 671 l 1
 603 622 l 1
 547 611 l 1
 446 430 l 1
 578 430 l 1
 578 380 l 1
 416 380 l 1
 363 284 l 1
 578 284 l 1
 578 235 l 1
 365 235 l 1
 365 69 l 1
 381 55 l 1
 451 50 l 1
 451 0 l 1
 152 0 l 1
 152 50 l 1
 220 55 l 1
 237 69 l 1
 237 235 l 1
 22 235 l 1
 22 284 l 1
 227 284 l 1
 178 380 l 1
 22 380 l 1
 22 430 l 1
 148 430 l 1
 54 612 l 1
 -7 622 l 1
 -7 671 l 1
EndSplineSet
EndChar

StartChar: brokenbar
Encoding: 166 166 101
Width: 500
GlyphClass: 2
Flags: MW
VStem: 207 87<-171 199 -171 199 329 699>
LayerCount: 2
Fore
SplineSet
294 699 m 1
 294 329 l 1
 207 329 l 1
 207 699 l 1
 294 699 l 1
294 199 m 1
 294 -171 l 1
 207 -171 l 1
 207 199 l 1
 294 199 l 1
EndSplineSet
EndChar

StartChar: section
Encoding: 167 167 102
Width: 500
GlyphClass: 2
Flags: MW
HStem: -142 53<218.5 262.5 218.5 295> 668 51<240.5 283>
VStem: 46 86<284 322> 66 107<561 611.5 561 618> 70 58<27 27> 330 104<-32 21.5> 365 89<272 304> 370 53<559 695>
LayerCount: 2
Fore
SplineSet
423 695 m 1xd1
 423 559 l 1
 370 559 l 1xd1
 360 641 l 1
 327 659 297 668 269 668 c 0
 212 668 173 634 173 589 c 0
 173 533 229 518 315 475 c 0
 409 428 454 377 454 306 c 0xd2
 454 238 410 174 333 143 c 1
 402 107 434 68 434 11 c 0
 434 -78 359 -142 231 -142 c 0
 178 -142 125 -131 71 -110 c 1
 70 27 l 1
 128 27 l 1xcc
 141 -64 l 1
 173 -81 204 -89 233 -89 c 0
 292 -89 330 -54 330 -10 c 0
 330 53 265 73 165 122 c 0
 86 160 46 216 46 286 c 0xe4
 46 358 85 409 164 443 c 1
 97 478 66 517 66 574 c 0
 66 662 140 719 271 719 c 0
 320 719 370 711 423 695 c 1xd1
216 415 m 1
 161 394 132 358 132 314 c 0
 132 254 183 217 284 171 c 1
 338 203 365 236 365 277 c 0xe2
 365 331 315 373 216 415 c 1
EndSplineSet
EndChar

StartChar: dieresis
Encoding: 168 168 103
Width: 500
GlyphClass: 2
Flags: MW
HStem: 579 131<129.5 164 129.5 164.5 335.5 370>
VStem: 83 127<626 662.5> 290 126<626 662.5>
LayerCount: 2
Fore
SplineSet
147 710 m 0
 181 710 210 681 210 644 c 0
 210 608 182 579 147 579 c 0
 112 579 83 608 83 644 c 0
 83 681 112 710 147 710 c 0
353 710 m 0
 387 710 416 681 416 644 c 0
 416 608 387 579 353 579 c 0
 317 579 290 608 290 644 c 0
 290 681 318 710 353 710 c 0
EndSplineSet
EndChar

StartChar: copyright
Encoding: 169 169 104
Width: 876
GlyphClass: 2
Flags: MW
HStem: -50 46<398 487.5 398 490.5> 103 49<426.5 478.5> 427 121<547 600 547 600> 525 48<427.5 482> 684 45<399.5 486.5>
VStem: 62 48<293 386 293 390.5> 212 109<282 394.5 282 406.5> 548 52<128 253> 776 48<295 386>
LayerCount: 2
Fore
SplineSet
444 729 m 0xcf80
 543 729 643 687 715 613 c 0
 784 542 824 441 824 336 c 0
 824 236 782 137 707 61 c 0
 635 -11 543 -50 438 -50 c 0
 342 -50 247 -9 174 65 c 0
 101 139 62 234 62 339 c 0
 62 442 101 539 173 614 c 0
 245 688 342 729 444 729 c 0xcf80
444 684 m 0
 355 684 270 647 207 582 c 0
 143 516 110 432 110 340 c 0
 110 246 144 162 208 97 c 0
 273 31 353 -4 443 -4 c 0
 532 -4 614 31 677 97 c 0
 741 164 776 250 776 340 c 0
 776 432 740 521 678 584 c 0
 615 648 529 684 444 684 c 0
600 548 m 1xef80
 600 427 l 1
 547 427 l 1xef80
 532 507 l 1
 513 519 493 525 471 525 c 0
 384 525 321 450 321 339 c 0
 321 225 384 152 469 152 c 0
 490 152 511 157 533 167 c 1
 548 253 l 1
 600 253 l 1
 600 128 l 1
 555 111 505 103 452 103 c 0
 311 103 212 200 212 338 c 0
 212 475 310 573 459 573 c 0xdf80
 508 573 555 565 600 548 c 1xef80
EndSplineSet
EndChar

StartChar: ordfeminine
Encoding: 170 170 105
Width: 408
GlyphClass: 2
Flags: MW
HStem: 324 54<99.5 194.5> 330 31<267 401> 513 35<257 258> 642 37<181.5 211.5>
VStem: 30 99<414 453 414 455> 47 104<588.5 618> 257 94<370 555 399 513 513 513>
LayerCount: 2
Fore
SplineSet
257 370 m 1x76
 209 340 169 324 128 324 c 0
 71 324 30 361 30 415 c 0xba
 30 495 101 515 258 548 c 1
 258 569 l 2
 258 620 236 642 187 642 c 0
 176 642 164 641 151 638 c 1
 151 572 l 1
 82 572 l 2
 59 572 47 579 47 598 c 0
 47 638 112 679 211 679 c 0
 316 679 351 645 351 555 c 2
 351 374 l 1
 361 364 l 1
 401 361 l 1
 401 330 l 1
 267 330 l 1
 257 370 l 1x76
257 399 m 1
 257 513 l 1
 169 494 129 476 129 430 c 0
 129 398 150 378 185 378 c 0
 204 378 228 385 257 399 c 1
EndSplineSet
EndChar

StartChar: guillemotleft
Encoding: 171 171 106
Width: 449
GlyphClass: 2
Flags: MW
VStem: 35 65<240 240 240 282 240 282> 231 65<240 240 240 282 240 282>
LayerCount: 2
Fore
SplineSet
208 426 m 1
 208 342 l 1
 100 240 l 1
 208 138 l 1
 208 54 l 1
 35 198 l 1
 35 282 l 1
 208 426 l 1
404 426 m 1
 404 342 l 1
 296 240 l 1
 404 138 l 1
 404 54 l 1
 231 198 l 1
 231 282 l 1
 404 426 l 1
EndSplineSet
EndChar

StartChar: logicalnot
Encoding: 172 172 107
Width: 833
GlyphClass: 2
Flags: MW
HStem: 340 81<124 628 124 709>
VStem: 628 81<176 340 340 340>
LayerCount: 2
Fore
SplineSet
709 421 m 1
 709 176 l 1
 628 176 l 1
 628 340 l 1
 124 340 l 1
 124 421 l 1
 709 421 l 1
EndSplineSet
EndChar

StartChar: registered
Encoding: 174 174 108
Width: 876
GlyphClass: 2
Flags: MW
HStem: -50 46<397.5 487.5 397.5 490.5> 116 43 313 41<391 446 391 446> 519 40<408 445.5> 684 45<400 487.5>
VStem: 62 48<293 385.5 293 390.5> 297 94<169 313 169 355 355 512 512 512> 516 103<421.5 463> 776 48<294.5 385.5>
LayerCount: 2
Fore
SplineSet
444 729 m 0
 543 729 643 687 715 613 c 0
 784 542 824 441 824 336 c 0
 824 236 782 137 707 61 c 0
 635 -11 543 -50 438 -50 c 0
 342 -50 247 -9 174 65 c 0
 101 139 62 234 62 339 c 0
 62 442 101 539 173 614 c 0
 245 688 342 729 444 729 c 0
444 684 m 0
 356 684 271 648 207 582 c 0
 144 516 110 432 110 339 c 0
 110 247 143 164 205 100 c 0
 272 31 352 -4 443 -4 c 0
 532 -4 614 31 677 97 c 0
 741 163 776 249 776 340 c 0
 776 431 741 519 681 581 c 0
 618 647 531 684 444 684 c 0
244 559 m 1
 464 559 l 2
 567 559 619 522 619 451 c 0
 619 392 578 353 500 338 c 1
 576 322 587 276 608 219 c 0
 624 175 641 159 690 159 c 2
 695 159 l 1
 695 122 l 1
 667 118 647 116 634 116 c 0
 603 116 577 122 556 136 c 0
 516 162 513 201 498 242 c 0
 480 293 455 313 402 313 c 2
 391 313 l 1
 391 169 l 1
 448 158 l 1
 448 121 l 1
 247 121 l 1
 247 157 l 1
 297 168 l 1
 297 512 l 1
 244 524 l 1
 244 559 l 1
391 518 m 1
 391 355 l 1
 398 354 405 354 411 354 c 0
 481 354 516 384 516 437 c 0
 516 489 480 519 411 519 c 0
 405 519 398 519 391 518 c 1
EndSplineSet
EndChar

StartChar: macron
Encoding: 175 175 109
Width: 500
GlyphClass: 2
Flags: MW
HStem: 604 71<86 417 86 417>
VStem: 86 331<604 675 604 675>
LayerCount: 2
Fore
SplineSet
86 675 m 1
 417 675 l 1
 417 604 l 1
 86 604 l 1
 86 675 l 1
EndSplineSet
EndChar

StartChar: degree
Encoding: 176 176 110
Width: 329
GlyphClass: 2
Flags: MW
HStem: 424 54<140 190.5 140 204.5> 659 54<140 190>
VStem: 21 53<544 594 544 608.5> 255 54<544.5 594>
LayerCount: 2
Fore
SplineSet
165 713 m 0
 245 713 309 648 309 568 c 0
 309 490 245 424 164 424 c 0
 84 424 21 487 21 568 c 0
 21 649 85 713 165 713 c 0
255 569 m 0
 255 619 215 659 165 659 c 0
 115 659 74 619 74 569 c 0
 74 519 115 478 165 478 c 0
 216 478 255 520 255 569 c 0
EndSplineSet
EndChar

StartChar: plusminus
Encoding: 177 177 111
Width: 833
GlyphClass: 2
Flags: MW
HStem: 7 82<124 709 124 709> 345 81<124 375 124 375 458 709>
VStem: 375 83<182 345 182 345 426 589>
LayerCount: 2
Fore
SplineSet
458 589 m 1
 458 426 l 1
 709 426 l 1
 709 345 l 1
 458 345 l 1
 458 182 l 1
 375 182 l 1
 375 345 l 1
 124 345 l 1
 124 426 l 1
 375 426 l 1
 375 589 l 1
 458 589 l 1
709 89 m 1
 709 7 l 1
 124 7 l 1
 124 89 l 1
 709 89 l 1
EndSplineSet
EndChar

StartChar: two.superior
Encoding: 178 178 112
Width: 393
GlyphClass: 2
Flags: MW
HStem: 268 64<118 307 118 361> 637 41<163 194>
VStem: 38 93<573.5 611> 250 96<524 580.5> 319 42<268 384>
LayerCount: 2
Fore
SplineSet
118 332 m 1xf0
 307 332 l 1
 319 384 l 1
 361 384 l 1
 361 268 l 1xe8
 32 268 l 1
 32 317 l 1
 174 415 250 480 250 554 c 0
 250 607 219 637 169 637 c 0
 157 637 144 635 131 630 c 1
 131 554 l 1
 115 547 101 544 87 544 c 0
 57 544 38 561 38 586 c 0
 38 636 100 678 198 678 c 0
 289 678 346 630 346 562 c 0
 346 486 269 422 118 332 c 1xf0
EndSplineSet
Substitution2: "'subs' Subscript lookup 14 subtable" uni2082
Substitution2: "'numr' Numerators lookup 13 subtable" two.numerator
Substitution2: "'dnom' Denominators lookup 12 subtable" two.denominator
EndChar

StartChar: three.superior
Encoding: 179 179 113
Width: 392
GlyphClass: 2
Flags: MW
HStem: 261 38<162.5 194.5 162.5 223.5> 452 42<163.5 177.5 127 196> 637 40<156.5 186>
VStem: 38 87<581 615> 243 93<552 586.5> 259 95<357 401.5>
LayerCount: 2
Fore
SplineSet
223 479 m 1xf8
 308 473 354 438 354 384 c 0
 354 316 282 261 165 261 c 0
 82 261 28 297 28 336 c 0
 28 360 47 375 77 375 c 0
 85 375 93 374 103 371 c 1
 122 308 l 1
 140 302 156 299 169 299 c 0
 220 299 259 334 259 380 c 0xf4
 259 423 224 452 168 452 c 0
 159 452 145 451 127 449 c 1
 127 494 l 1
 147 494 l 2
 208 494 243 521 243 566 c 0
 243 607 210 637 162 637 c 0
 151 637 138 634 125 630 c 1
 125 560 l 1
 113 554 103 552 88 552 c 0
 58 552 38 569 38 593 c 0
 38 637 98 677 189 677 c 0
 279 677 336 634 336 576 c 0
 336 528 298 494 223 479 c 1xf8
EndSplineSet
Substitution2: "'subs' Subscript lookup 14 subtable" uni2083
Substitution2: "'numr' Numerators lookup 13 subtable" three.numerator
Substitution2: "'dnom' Denominators lookup 12 subtable" three.denominator
EndChar

StartChar: acute
Encoding: 180 180 114
Width: 500
GlyphClass: 2
Flags: MW
HStem: 552 190<206 427 206 427>
VStem: 206 221<552 742>
LayerCount: 2
Fore
SplineSet
303 742 m 1
 427 742 l 1
 273 552 l 1
 206 552 l 1
 303 742 l 1
EndSplineSet
EndChar

StartChar: mu
Encoding: 181 181 115
Width: 600
GlyphClass: 2
Flags: MW
HStem: -9 86<217 319.5> 0 45<393 582> 479 20G<164 212 212 212 470 516 516 516>
VStem: 88 104 88 124<153 155 153 189 189 412 369 412> 393 123<0 499 55 499 93 412 412 412>
LayerCount: 2
Fore
SplineSet
164 499 m 1xb4
 212 499 l 1
 212 189 l 2
 212 111 238 77 307 77 c 0xac
 332 77 360 83 393 93 c 1
 393 412 l 1
 328 412 l 1
 328 451 l 1
 470 499 l 1
 516 499 l 1
 516 64 l 1
 530 49 l 1
 582 45 l 1
 582 0 l 1
 393 0 l 1x6c
 393 55 l 1
 330 14 278 -9 225 -9 c 0
 209 -9 205 -8 192 -3 c 1
 193 -82 199 -150 199 -150 c 2
 199 -184 156 -214 130 -214 c 0
 106 -214 70 -189 70 -161 c 0
 70 -101 88 -29 88 155 c 1xb4
 88 153 l 1xac
 87 155 88 326 88 412 c 1
 23 412 l 1
 23 451 l 1
 164 499 l 1xb4
EndSplineSet
EndChar

StartChar: paragraph
Encoding: 182 182 116
Width: 491
GlyphClass: 2
Flags: MW
HStem: 623 48<269 339 269 269>
VStem: 19 250<402 537.5> 212 57<-79 262 262 264 264 264> 339 57<-79 618 -79 623 -79 623>
LayerCount: 2
Fore
SplineSet
261 671 m 2xd0
 457 671 l 1
 457 628 l 1
 396 618 l 1
 396 -79 l 1
 339 -79 l 1
 339 623 l 1
 269 623 l 1
 269 262 l 1
 269 -79 l 1
 212 -79 l 1
 212 264 l 1xb0
 82 274 19 340 19 464 c 0
 19 611 95 671 261 671 c 2xd0
EndSplineSet
EndChar

StartChar: periodcentered
Encoding: 183 183 117
Width: 289
GlyphClass: 2
Flags: MW
HStem: 256 159<122.5 166>
VStem: 66 158<313.5 357 313.5 357>
LayerCount: 2
Fore
SplineSet
144 415 m 0
 188 415 224 379 224 335 c 0
 224 292 188 256 144 256 c 0
 101 256 66 291 66 335 c 0
 66 379 101 415 144 415 c 0
EndSplineSet
EndChar

StartChar: cedilla
Encoding: 184 184 118
Width: 500
GlyphClass: 2
Flags: MW
HStem: -230 50<239.5 253.5 225.5 290> -219 47<172 172> -112 112<228 276> -110 54<246.5 318>
VStem: 228 48<-57 0 -57 0 -57 0> 295 78<-155 -133>
LayerCount: 2
Fore
SplineSet
228 0 m 1x2c
 276 0 l 1x2c
 276 -57 l 1
 281 -56 287 -56 292 -56 c 0
 344 -56 373 -85 373 -132 c 0
 373 -190 327 -230 253 -230 c 0x9c
 226 -230 200 -226 172 -219 c 1
 172 -172 l 1x4c
 198 -177 218 -180 233 -180 c 0
 274 -180 295 -167 295 -143 c 0
 295 -123 279 -110 250 -110 c 0x9c
 243 -110 236 -111 228 -112 c 1
 228 0 l 1x2c
EndSplineSet
EndChar

StartChar: one.superior
Encoding: 185 185 119
Width: 387
GlyphClass: 2
Flags: MW
HStem: 268 32<98 331 98 98> 601 33<72 72> 657 20G<217 262 262 262>
VStem: 172 90<314 607 607 607>
LayerCount: 2
Fore
SplineSet
217 677 m 1
 262 677 l 1
 262 312 l 1
 269 302 l 1
 331 300 l 1
 331 268 l 1
 98 268 l 1
 98 300 l 1
 164 304 l 1
 172 314 l 1
 172 607 l 1
 166 615 l 1
 72 601 l 1
 72 634 l 1
 217 677 l 1
EndSplineSet
Substitution2: "'subs' Subscript lookup 14 subtable" uni2081
Substitution2: "'numr' Numerators lookup 13 subtable" one.numerator
Substitution2: "'dnom' Denominators lookup 12 subtable" one.denominator
EndChar

StartChar: ordmasculine
Encoding: 186 186 120
Width: 433
GlyphClass: 2
Flags: MW
HStem: 324 37<192 246 192 275.5> 642 37<192.5 245.5>
VStem: 28 104<457 548 457 554> 307 103<455.5 546.5>
LayerCount: 2
Fore
SplineSet
222 679 m 0
 337 679 410 610 410 499 c 0
 410 395 335 324 216 324 c 0
 104 324 28 394 28 500 c 0
 28 608 104 679 222 679 c 0
219 642 m 0
 166 642 132 593 132 503 c 0
 132 411 166 361 218 361 c 0
 274 361 307 410 307 501 c 0
 307 592 272 642 219 642 c 0
EndSplineSet
EndChar

StartChar: guillemotright
Encoding: 187 187 121
Width: 449
GlyphClass: 2
Flags: MW
VStem: 151 64<240 240> 347 65<240 240>
LayerCount: 2
Fore
SplineSet
239 426 m 1
 412 282 l 1
 412 198 l 1
 239 54 l 1
 239 138 l 1
 347 240 l 1
 239 342 l 1
 239 426 l 1
43 426 m 1
 215 282 l 1
 215 198 l 1
 43 54 l 1
 43 138 l 1
 151 240 l 1
 43 342 l 1
 43 426 l 1
EndSplineSet
EndChar

StartChar: onequarter
Encoding: 188 188 122
Width: 899
GlyphClass: 2
Flags: MW
HStem: -17 21G<745 818 745 745> 101 45<606 745 606 745 818 890> 295 28<93 312 93 93> 607 28<69 69> 656 21G
VStem: 164 82<336 612 612 612> 200 71<0 0> 628 70<671 671> 745 73<-17 101 -17 101 146 302 302 302>
LayerCount: 2
Fore
SplineSet
205 676 m 1xfd80
 246 676 l 1
 246 334 l 1
 253 325 l 1
 312 323 l 1
 312 295 l 1
 93 295 l 1
 93 323 l 1
 156 326 l 1
 164 336 l 1
 164 612 l 1
 158 619 l 1
 69 607 l 1
 69 635 l 1
 205 676 l 1xfd80
628 671 m 1
 698 671 l 1
 271 0 l 1
 200 0 l 1xfb80
 628 671 l 1
757 379 m 1
 818 379 l 1
 818 146 l 1
 890 146 l 1
 890 101 l 1
 818 101 l 1
 818 -17 l 1
 745 -17 l 1
 745 101 l 1
 549 101 l 1
 549 147 l 1
 757 379 l 1
745 302 m 1
 606 146 l 1
 745 146 l 1
 745 302 l 1
EndSplineSet
EndChar

StartChar: onehalf
Encoding: 189 189 123
Width: 899
GlyphClass: 2
Flags: MW
HStem: 0 57<642 818 642 868> 295 28<93 312 93 93> 347 35<684.5 714> 607 28<69 69> 656 21G
VStem: 164 82<336 612 612 612> 200 71<0 0> 569 85<285 320> 628 70<671 671> 768 87<237.5 293> 830 38<0 106>
LayerCount: 2
Fore
SplineSet
205 676 m 1xfc
 246 676 l 1
 246 334 l 1
 253 325 l 1
 312 323 l 1
 312 295 l 1
 93 295 l 1
 93 323 l 1
 156 326 l 1
 164 336 l 1
 164 612 l 1
 158 619 l 1
 69 607 l 1
 69 635 l 1
 205 676 l 1xfc
628 671 m 1xfa80
 698 671 l 1
 271 0 l 1
 200 0 l 1
 628 671 l 1xfa80
642 57 m 1
 818 57 l 1
 830 106 l 1
 868 106 l 1
 868 0 l 1xf820
 563 0 l 1
 563 44 l 1
 696 136 768 198 768 268 c 0
 768 318 738 347 690 347 c 0
 679 347 667 344 654 340 c 1
 654 268 l 1
 640 261 627 258 614 258 c 0
 587 258 569 273 569 297 c 0
 569 343 626 382 717 382 c 0
 801 382 855 338 855 273 c 0xf940
 855 202 782 142 642 57 c 1
EndSplineSet
EndChar

StartChar: threequarters
Encoding: 190 190 124
Width: 899
GlyphClass: 2
Flags: MW
HStem: -17 21G<745 818 745 745> 101 45<606 745 606 745 818 890> 289 33<153 183 153 208> 469 37<152.5 165.5 118 183.5> 641 36<145.5 174>
VStem: 26 70<340.5 391> 37 78<588.5 620> 200 71<0 0> 229 85<560 594> 244 85<378 420.5> 628 70<671 671> 745 73<-17 101 -17 101 146 302 302 302>
LayerCount: 2
Fore
SplineSet
210 493 m 1xfab0
 287 488 329 454 329 403 c 0
 329 340 262 289 154 289 c 0
 76 289 26 322 26 359 c 0
 26 381 44 395 71 395 c 0
 79 395 86 394 96 391 c 1
 116 330 l 1
 132 325 147 322 159 322 c 0
 207 322 244 356 244 400 c 0xfc70
 244 441 210 469 157 469 c 0
 148 469 135 468 118 466 c 1
 118 506 l 1
 136 506 l 2
 195 506 229 531 229 574 c 0
 229 614 197 641 151 641 c 0
 140 641 128 639 115 634 c 1
 115 569 l 1
 105 563 95 561 82 561 c 0
 55 561 37 577 37 600 c 0
 37 640 91 677 177 677 c 0
 261 677 314 637 314 582 c 0
 314 538 278 507 210 493 c 1xfab0
628 671 m 1
 698 671 l 1
 271 0 l 1
 200 0 l 1xf930
 628 671 l 1
757 379 m 1
 818 379 l 1
 818 146 l 1
 890 146 l 1
 890 101 l 1
 818 101 l 1
 818 -17 l 1
 745 -17 l 1
 745 101 l 1
 549 101 l 1
 549 147 l 1
 757 379 l 1
745 302 m 1
 606 146 l 1
 745 146 l 1
 745 302 l 1
EndSplineSet
EndChar

StartChar: questiondown
Encoding: 191 191 125
Width: 487
GlyphClass: 2
Flags: MW
HStem: -8 59<297 300 297 317> 531 152<257 298.5>
VStem: 38 130<137.5 216.5 137.5 226> 203 150<586.5 629> 247 65<392 483 348 483>
LayerCount: 2
Fore
SplineSet
278 683 m 0xf0
 319 683 353 650 353 608 c 0
 353 565 319 531 278 531 c 0
 236 531 203 565 203 608 c 0
 203 650 236 683 278 683 c 0xf0
247 483 m 1xe8
 312 483 l 1
 312 348 l 1
 217 315 168 256 168 177 c 0
 168 98 215 51 297 51 c 2
 300 51 l 1
 345 164 l 1
 352 165 358 165 365 165 c 0
 412 165 439 142 439 103 c 0
 439 43 372 -8 262 -8 c 0
 125 -8 38 69 38 177 c 0
 38 275 108 347 247 392 c 1
 247 483 l 1xe8
EndSplineSet
Substitution2: "'smcp' Lowercase to Small Capitals in Latin lookup 4 subtable" questiondown.sc
EndChar

StartChar: Agrave
Encoding: 192 192 126
Width: 651
GlyphClass: 2
Flags: MW
HStem: 0 49<-11 204 -11 -11> 238 56<210 386 210 409 191 386> 658 20G<275 380 380 380> 739 21G<315 383 315 315>
LayerCount: 2
Fore
SplineSet
275 678 m 1
 380 678 l 1
 610 59 l 1
 669 49 l 1
 669 0 l 1
 399 0 l 1
 399 49 l 1
 462 55 l 1
 469 68 l 1
 409 238 l 1
 191 238 l 1
 131 69 l 1
 141 56 l 1
 204 49 l 1
 204 0 l 1
 -11 0 l 1
 -11 49 l 1
 49 58 l 1
 275 678 l 1
297 541 m 1
 210 294 l 1
 386 294 l 1
 297 541 l 1
162 929 m 1
 286 929 l 1
 383 739 l 1
 315 739 l 1
 162 929 l 1
EndSplineSet
Position2: "'cpsp' Capital Spacing in Latin lookup 2 subtable" dx=7 dy=0 dh=14 dv=0
EndChar

StartChar: Aacute
Encoding: 193 193 127
Width: 651
GlyphClass: 2
Flags: MW
HStem: 0 49<-11 204 -11 -11> 238 56<210 386 210 409 191 386> 658 20G<275 380 380 380> 739 21G<282 349 282 282>
LayerCount: 2
Fore
SplineSet
275 678 m 1
 380 678 l 1
 610 59 l 1
 669 49 l 1
 669 0 l 1
 399 0 l 1
 399 49 l 1
 462 55 l 1
 469 68 l 1
 409 238 l 1
 191 238 l 1
 131 69 l 1
 141 56 l 1
 204 49 l 1
 204 0 l 1
 -11 0 l 1
 -11 49 l 1
 49 58 l 1
 275 678 l 1
297 541 m 1
 210 294 l 1
 386 294 l 1
 297 541 l 1
379 929 m 1
 503 929 l 1
 349 739 l 1
 282 739 l 1
 379 929 l 1
EndSplineSet
Position2: "'cpsp' Capital Spacing in Latin lookup 2 subtable" dx=7 dy=0 dh=14 dv=0
EndChar

StartChar: Acircumflex
Encoding: 194 194 128
Width: 651
GlyphClass: 2
Flags: MW
HStem: 0 49<-11 204 -11 -11> 238 56<210 386 210 409 191 386> 658 20G<275 380 380 380> 739 21G<172 250 172 172 403 480 403 403>
VStem: 172 78<739 739> 403 77<739 739>
LayerCount: 2
Fore
SplineSet
275 678 m 1
 380 678 l 1
 610 59 l 1
 669 49 l 1
 669 0 l 1
 399 0 l 1
 399 49 l 1
 462 55 l 1
 469 68 l 1
 409 238 l 1
 191 238 l 1
 131 69 l 1
 141 56 l 1
 204 49 l 1
 204 0 l 1
 -11 0 l 1
 -11 49 l 1
 49 58 l 1
 275 678 l 1
297 541 m 1
 210 294 l 1
 386 294 l 1
 297 541 l 1
282 929 m 1
 370 929 l 1
 480 739 l 1
 403 739 l 1
 326 864 l 1
 250 739 l 1
 172 739 l 1
 282 929 l 1
EndSplineSet
Position2: "'cpsp' Capital Spacing in Latin lookup 2 subtable" dx=7 dy=0 dh=14 dv=0
EndChar

StartChar: Atilde
Encoding: 195 195 129
Width: 651
GlyphClass: 2
Flags: MW
HStem: 0 49<-11 204 -11 -11> 238 56<210 386 210 409 191 386> 658 20G<275 380 380 380> 774 72<376.5 407 376.5 426.5> 820 73<243 270>
VStem: 163 55<757 767 757 774 757 812.5> 433 54<901 909 854.5 909>
LayerCount: 2
Fore
SplineSet
275 678 m 1xe6
 380 678 l 1
 610 59 l 1
 669 49 l 1
 669 0 l 1
 399 0 l 1
 399 49 l 1
 462 55 l 1
 469 68 l 1
 409 238 l 1
 191 238 l 1
 131 69 l 1
 141 56 l 1
 204 49 l 1
 204 0 l 1
 -11 0 l 1
 -11 49 l 1
 49 58 l 1
 275 678 l 1xe6
297 541 m 1
 210 294 l 1
 386 294 l 1
 297 541 l 1
433 909 m 1
 487 909 l 1
 487 893 l 2xee
 487 816 453 774 400 774 c 0xf6
 335 774 285 820 255 820 c 0xee
 231 820 218 801 218 767 c 2
 218 757 l 1
 163 757 l 1
 163 774 l 2xf6
 163 851 195 893 250 893 c 0xee
 309 893 359 846 394 846 c 0xf6
 420 846 433 864 433 901 c 2
 433 909 l 1
EndSplineSet
Position2: "'cpsp' Capital Spacing in Latin lookup 2 subtable" dx=7 dy=0 dh=14 dv=0
EndChar

StartChar: Adieresis
Encoding: 196 196 130
Width: 651
GlyphClass: 2
Flags: MW
HStem: 0 49<-11 204 -11 -11> 238 56<210 386 210 409 191 386> 658 20G<275 380 380 380> 766 131<205.5 240 205.5 240.5 411.5 446>
VStem: 159 127<813 849.5> 366 126<813 849.5>
LayerCount: 2
Fore
SplineSet
275 678 m 1
 380 678 l 1
 610 59 l 1
 669 49 l 1
 669 0 l 1
 399 0 l 1
 399 49 l 1
 462 55 l 1
 469 68 l 1
 409 238 l 1
 191 238 l 1
 131 69 l 1
 141 56 l 1
 204 49 l 1
 204 0 l 1
 -11 0 l 1
 -11 49 l 1
 49 58 l 1
 275 678 l 1
297 541 m 1
 210 294 l 1
 386 294 l 1
 297 541 l 1
223 897 m 0
 257 897 286 868 286 831 c 0
 286 795 258 766 223 766 c 0
 188 766 159 795 159 831 c 0
 159 868 188 897 223 897 c 0
429 897 m 0
 463 897 492 868 492 831 c 0
 492 795 463 766 429 766 c 0
 393 766 366 795 366 831 c 0
 366 868 394 897 429 897 c 0
EndSplineSet
Position2: "'cpsp' Capital Spacing in Latin lookup 2 subtable" dx=7 dy=0 dh=14 dv=0
EndChar

StartChar: Aring
Encoding: 197 197 131
Width: 651
GlyphClass: 2
Flags: MW
HStem: 0 49<-11 204 -11 -11> 238 56<210 386 210 409 191 386> 658 20G<275 380 380 380> 726 52<298.5 334 298.5 348.5> 911 52<298.5 334>
VStem: 200 52<825.5 863 825.5 877> 381 52<825.5 862.5>
LayerCount: 2
Fore
SplineSet
316 963 m 0
 381 963 433 910 433 844 c 0
 433 778 381 726 316 726 c 0
 251 726 200 777 200 844 c 0
 200 910 251 963 316 963 c 0
316 911 m 0
 281 911 252 882 252 844 c 0
 252 807 281 778 316 778 c 0
 352 778 381 807 381 844 c 0
 381 881 352 911 316 911 c 0
275 678 m 1
 380 678 l 1
 610 59 l 1
 669 49 l 1
 669 0 l 1
 399 0 l 1
 399 49 l 1
 462 55 l 1
 469 68 l 1
 409 238 l 1
 191 238 l 1
 131 69 l 1
 141 56 l 1
 204 49 l 1
 204 0 l 1
 -11 0 l 1
 -11 49 l 1
 49 58 l 1
 275 678 l 1
297 541 m 1
 210 294 l 1
 386 294 l 1
 297 541 l 1
EndSplineSet
Substitution2: "'c2sc' Capitals to Small Capitals in Latin lookup 6 subtable" aring.sc
Position2: "'cpsp' Capital Spacing in Latin lookup 2 subtable" dx=7 dy=0 dh=14 dv=0
EndChar

StartChar: AE
Encoding: 198 198 132
Width: 890
GlyphClass: 2
Flags: MW
HStem: 0 49<-58 156 -58 -58> 0 57<544 764 544 863> 245 59<229 417 229 417 194 417> 317 60<544 663 544 663> 615 56<544 732 544 544> 622 49<262 830>
VStem: 417 127<70 245 245 245 304 317 377 615> 687 58<231 463 231 463> 760 70<514 671> 795 68<0 179>
AnchorPoint: "Anchor-2" 402 0 basechar 0
AnchorPoint: "Anchor-1" 474 686 basechar 0
LayerCount: 2
Fore
SplineSet
262 671 m 1xb740
 830 671 l 1xb780
 830 514 l 1
 760 514 l 1
 745 602 l 1
 732 615 l 1
 544 615 l 1
 544 377 l 1
 663 377 l 1
 677 391 l 1
 687 463 l 1
 745 463 l 1
 745 231 l 1
 687 231 l 1
 677 303 l 1
 663 317 l 1
 544 317 l 1
 544 57 l 1
 764 57 l 1x7b80
 778 73 l 1
 795 179 l 1
 863 179 l 1
 863 0 l 1
 340 0 l 1
 340 49 l 1
 401 54 l 1
 417 70 l 1
 417 245 l 1
 194 245 l 1
 89 69 l 1
 96 56 l 1
 156 49 l 1
 156 0 l 1
 -58 0 l 1
 -58 49 l 1
 2 56 l 1
 330 602 l 1
 319 617 l 1
 262 622 l 1
 262 671 l 1xb740
417 616 m 1
 229 304 l 1
 417 304 l 1
 417 616 l 1
EndSplineSet
Substitution2: "'c2sc' Capitals to Small Capitals in Latin lookup 6 subtable" ae.sc
Position2: "'cpsp' Capital Spacing in Latin lookup 2 subtable" dx=7 dy=0 dh=14 dv=0
EndChar

StartChar: Ccedilla
Encoding: 199 199 133
Width: 638
GlyphClass: 2
Flags: MW
HStem: -230 50<374.5 388.5 360.5 425> -219 47<307 307> -110 54<381.5 453> -11 62<363 363> 618 65<346.5 428>
VStem: 41 147<271 386> 363 48<-57 -12 -57 -11 -57 -11> 430 78<-155 -133> 529 72<24 196>
AnchorPoint: "Anchor-1" 396 686 basechar 0
LayerCount: 2
Fore
SplineSet
363 -11 m 1xbf80
 303 -8 250 8 207 33 c 0
 103 95 41 207 41 335 c 0
 41 437 77 526 145 591 c 0
 208 652 293 683 397 683 c 0
 466 683 534 670 601 646 c 1
 601 479 l 1
 527 479 l 1
 508 586 l 1
 494 603 l 1
 467 613 441 618 415 618 c 0
 278 618 188 513 188 336 c 0
 188 157 279 51 428 51 c 0
 445 51 465 54 489 60 c 1
 504 75 l 1
 529 196 l 1
 601 196 l 1
 601 24 l 1
 540 2 477 -10 411 -12 c 1
 411 -57 l 1
 416 -56 422 -56 427 -56 c 0
 479 -56 508 -85 508 -132 c 0
 508 -190 462 -230 388 -230 c 0xbf80
 361 -230 335 -226 307 -219 c 1
 307 -172 l 1x7f80
 333 -177 353 -180 368 -180 c 0
 409 -180 430 -167 430 -143 c 0
 430 -123 414 -110 385 -110 c 0
 378 -110 371 -111 363 -112 c 1
 363 -11 l 1xbf80
EndSplineSet
Position2: "'cpsp' Capital Spacing in Latin lookup 2 subtable" dx=7 dy=0 dh=14 dv=0
EndChar

StartChar: Egrave
Encoding: 200 200 134
Width: 596
GlyphClass: 2
Flags: MW
HStem: 0 49<29 29 29 566> 0 57<236 468 236 566> 317 60<236 366 236 366> 615 56<236 435 236 236> 622 49<29 533> 739 21G<287 355 287 287>
VStem: 106 130<70 317 377 603 603 603> 390 59<231 463 231 463> 463 70<514 671> 498 68<0 179>
LayerCount: 2
Fore
SplineSet
29 0 m 1xa740
 29 49 l 1
 90 54 l 1
 106 70 l 1
 106 603 l 1
 90 617 l 1
 29 622 l 1
 29 671 l 1
 533 671 l 1xaf80
 533 514 l 1
 463 514 l 1
 448 602 l 1
 435 615 l 1
 236 615 l 1
 236 377 l 1
 366 377 l 1
 380 391 l 1
 390 463 l 1
 449 463 l 1
 449 231 l 1
 390 231 l 1
 380 303 l 1
 366 317 l 1
 236 317 l 1
 236 57 l 1
 468 57 l 1x7780
 481 73 l 1
 498 179 l 1
 566 179 l 1
 566 0 l 1
 29 0 l 1xa740
134 929 m 1
 258 929 l 1
 355 739 l 1
 287 739 l 1
 134 929 l 1
EndSplineSet
Position2: "'cpsp' Capital Spacing in Latin lookup 2 subtable" dx=7 dy=0 dh=14 dv=0
EndChar

StartChar: Eacute
Encoding: 201 201 135
Width: 596
GlyphClass: 2
Flags: MW
HStem: 0 49<29 29 29 566> 0 57<236 468 236 566> 317 60<236 366 236 366> 615 56<236 435 236 236> 622 49<29 533> 739 21G<254 321 254 254>
VStem: 106 130<70 317 377 603 603 603> 390 59<231 463 231 463> 463 70<514 671> 498 68<0 179>
LayerCount: 2
Fore
SplineSet
29 0 m 1xa740
 29 49 l 1
 90 54 l 1
 106 70 l 1
 106 603 l 1
 90 617 l 1
 29 622 l 1
 29 671 l 1
 533 671 l 1xaf80
 533 514 l 1
 463 514 l 1
 448 602 l 1
 435 615 l 1
 236 615 l 1
 236 377 l 1
 366 377 l 1
 380 391 l 1
 390 463 l 1
 449 463 l 1
 449 231 l 1
 390 231 l 1
 380 303 l 1
 366 317 l 1
 236 317 l 1
 236 57 l 1
 468 57 l 1x7780
 481 73 l 1
 498 179 l 1
 566 179 l 1
 566 0 l 1
 29 0 l 1xa740
351 929 m 1
 475 929 l 1
 321 739 l 1
 254 739 l 1
 351 929 l 1
EndSplineSet
Position2: "'cpsp' Capital Spacing in Latin lookup 2 subtable" dx=7 dy=0 dh=14 dv=0
EndChar

StartChar: Ecircumflex
Encoding: 202 202 136
Width: 596
GlyphClass: 2
Flags: MW
HStem: 0 49<29 29 29 566> 0 57<236 468 236 566> 317 60<236 366 236 366> 615 56<236 435 236 236> 622 49<29 533> 739 21G<144 222 144 144 375 452 375 375>
VStem: 106 130<70 317 377 603 603 603> 144 78<739 739> 375 77<739 739> 390 59<231 463 231 463> 463 70<514 671> 498 68<0 179>
LayerCount: 2
Fore
SplineSet
29 0 m 1xa650
 29 49 l 1
 90 54 l 1
 106 70 l 1
 106 603 l 1
 90 617 l 1
 29 622 l 1
 29 671 l 1
 533 671 l 1xae20
 533 514 l 1
 463 514 l 1
 448 602 l 1
 435 615 l 1
 236 615 l 1
 236 377 l 1
 366 377 l 1
 380 391 l 1
 390 463 l 1
 449 463 l 1
 449 231 l 1
 390 231 l 1
 380 303 l 1
 366 317 l 1
 236 317 l 1
 236 57 l 1
 468 57 l 1x7660
 481 73 l 1
 498 179 l 1
 566 179 l 1
 566 0 l 1
 29 0 l 1xa650
254 929 m 1
 342 929 l 1
 452 739 l 1
 375 739 l 1
 298 864 l 1
 222 739 l 1
 144 739 l 1x2580
 254 929 l 1
EndSplineSet
Position2: "'cpsp' Capital Spacing in Latin lookup 2 subtable" dx=7 dy=0 dh=14 dv=0
EndChar

StartChar: Edieresis
Encoding: 203 203 137
Width: 596
GlyphClass: 2
Flags: MW
HStem: 0 49<29 29 29 566> 0 57<236 468 236 566> 317 60<236 366 236 366> 615 56<236 435 236 236> 622 49<29 533> 766 131<177.5 212 177.5 212.5 383.5 418>
VStem: 106 130<70 317 377 603 603 603> 131 127<813 849.5> 338 126<813 849.5> 390 59<231 463 231 463> 463 70<514 671> 498 68<0 179>
LayerCount: 2
Fore
SplineSet
29 0 m 1xa650
 29 49 l 1
 90 54 l 1
 106 70 l 1
 106 603 l 1
 90 617 l 1
 29 622 l 1
 29 671 l 1
 533 671 l 1xae20
 533 514 l 1
 463 514 l 1
 448 602 l 1
 435 615 l 1
 236 615 l 1
 236 377 l 1
 366 377 l 1
 380 391 l 1
 390 463 l 1
 449 463 l 1
 449 231 l 1
 390 231 l 1
 380 303 l 1
 366 317 l 1
 236 317 l 1
 236 57 l 1
 468 57 l 1x7660
 481 73 l 1
 498 179 l 1
 566 179 l 1
 566 0 l 1
 29 0 l 1xa650
195 897 m 0
 229 897 258 868 258 831 c 0
 258 795 230 766 195 766 c 0
 160 766 131 795 131 831 c 0x25
 131 868 160 897 195 897 c 0
401 897 m 0
 435 897 464 868 464 831 c 0
 464 795 435 766 401 766 c 0
 365 766 338 795 338 831 c 0x2480
 338 868 366 897 401 897 c 0
EndSplineSet
Position2: "'cpsp' Capital Spacing in Latin lookup 2 subtable" dx=7 dy=0 dh=14 dv=0
EndChar

StartChar: Igrave
Encoding: 204 204 138
Width: 354
GlyphClass: 2
Flags: MW
HStem: 0 49<30 30 30 329> 622 49<30 329 30 329> 739 21G<166 234 166 166>
VStem: 112 134<70 603 70 603>
LayerCount: 2
Fore
SplineSet
30 0 m 1
 30 49 l 1
 96 54 l 1
 112 70 l 1
 112 603 l 1
 96 617 l 1
 30 622 l 1
 30 671 l 1
 329 671 l 1
 329 622 l 1
 262 617 l 1
 246 603 l 1
 246 70 l 1
 262 54 l 1
 329 49 l 1
 329 0 l 1
 30 0 l 1
13 929 m 1
 137 929 l 1
 234 739 l 1
 166 739 l 1
 13 929 l 1
EndSplineSet
Position2: "'cpsp' Capital Spacing in Latin lookup 2 subtable" dx=7 dy=0 dh=14 dv=0
EndChar

StartChar: Iacute
Encoding: 205 205 139
Width: 354
GlyphClass: 2
Flags: MW
HStem: 0 49<30 30 30 329> 622 49<30 329 30 329> 739 21G<133 200 133 133>
VStem: 112 134<70 603 70 603>
LayerCount: 2
Fore
SplineSet
30 0 m 1
 30 49 l 1
 96 54 l 1
 112 70 l 1
 112 603 l 1
 96 617 l 1
 30 622 l 1
 30 671 l 1
 329 671 l 1
 329 622 l 1
 262 617 l 1
 246 603 l 1
 246 70 l 1
 262 54 l 1
 329 49 l 1
 329 0 l 1
 30 0 l 1
230 929 m 1
 354 929 l 1
 200 739 l 1
 133 739 l 1
 230 929 l 1
EndSplineSet
Position2: "'cpsp' Capital Spacing in Latin lookup 2 subtable" dx=7 dy=0 dh=14 dv=0
EndChar

StartChar: Icircumflex
Encoding: 206 206 140
Width: 354
GlyphClass: 2
Flags: MW
HStem: 0 49<30 30 30 329> 622 49<30 329 30 329> 739 21G<23 101 23 23 254 331 254 254>
VStem: 23 78<739 739> 112 134<70 603 70 603> 254 77<739 739>
LayerCount: 2
Fore
SplineSet
30 0 m 1
 30 49 l 1
 96 54 l 1
 112 70 l 1
 112 603 l 1
 96 617 l 1
 30 622 l 1
 30 671 l 1
 329 671 l 1
 329 622 l 1
 262 617 l 1
 246 603 l 1
 246 70 l 1
 262 54 l 1
 329 49 l 1
 329 0 l 1
 30 0 l 1
133 929 m 1
 221 929 l 1
 331 739 l 1
 254 739 l 1
 177 864 l 1
 101 739 l 1
 23 739 l 1
 133 929 l 1
EndSplineSet
Position2: "'cpsp' Capital Spacing in Latin lookup 2 subtable" dx=7 dy=0 dh=14 dv=0
EndChar

StartChar: Idieresis
Encoding: 207 207 141
Width: 354
GlyphClass: 2
Flags: MW
HStem: 0 49<30 30 30 329> 622 49<30 329 30 329> 766 131<56.5 91 56.5 91.5 262.5 297>
VStem: 10 127<813 849.5> 112 134<70 603 70 603> 217 126<813 849.5>
LayerCount: 2
Fore
SplineSet
30 0 m 1xe8
 30 49 l 1
 96 54 l 1
 112 70 l 1
 112 603 l 1
 96 617 l 1
 30 622 l 1
 30 671 l 1
 329 671 l 1
 329 622 l 1
 262 617 l 1
 246 603 l 1
 246 70 l 1
 262 54 l 1
 329 49 l 1
 329 0 l 1
 30 0 l 1xe8
74 897 m 0
 108 897 137 868 137 831 c 0
 137 795 109 766 74 766 c 0
 39 766 10 795 10 831 c 0xf0
 10 868 39 897 74 897 c 0
280 897 m 0
 314 897 343 868 343 831 c 0
 343 795 314 766 280 766 c 0
 244 766 217 795 217 831 c 0xe4
 217 868 245 897 280 897 c 0
EndSplineSet
Position2: "'cpsp' Capital Spacing in Latin lookup 2 subtable" dx=7 dy=0 dh=14 dv=0
EndChar

StartChar: Eth
Encoding: 208 208 142
Width: 716
GlyphClass: 2
Flags: MW
HStem: 0 49<29 320 29 29> 0 56<238 296 296 320> 321 61<15 105 15 105 238 379> 615 56<238 238 238 296> 622 49<29 320>
VStem: 105 133<70 321 56 321 382 601 601 601> 532 149<242.5 430>
LayerCount: 2
Fore
SplineSet
29 671 m 1xae
 320 671 l 2
 552 671 681 545 681 335 c 0
 681 122 554 0 320 0 c 2x76
 29 0 l 1
 29 49 l 1
 89 54 l 1
 105 70 l 1
 105 321 l 1
 15 321 l 1
 15 382 l 1
 105 382 l 1
 105 601 l 1
 89 617 l 1
 29 622 l 1
 29 671 l 1xae
238 615 m 1
 238 382 l 1
 379 382 l 1
 379 321 l 1
 238 321 l 1
 238 56 l 1
 296 56 l 2
 455 56 532 149 532 336 c 0
 532 524 455 615 296 615 c 2
 238 615 l 1
EndSplineSet
Substitution2: "'c2sc' Capitals to Small Capitals in Latin lookup 6 subtable" eth.sc
Position2: "'cpsp' Capital Spacing in Latin lookup 2 subtable" dx=7 dy=0 dh=14 dv=0
EndChar

StartChar: Ntilde
Encoding: 209 209 143
Width: 727
GlyphClass: 2
Flags: MW
HStem: 0 48<26 26 26 254> 622 49<25 255> 774 72<414.5 445 414.5 464.5> 820 73<281 308>
VStem: 103 73<74 537 74 603 74 603> 201 55<757 767 757 774 757 812.5> 471 54<901 909 854.5 909> 561 73<169 597 0 597>
LayerCount: 2
Fore
SplineSet
26 0 m 1xcf
 26 48 l 1
 85 56 l 1
 103 74 l 1
 103 603 l 1
 89 617 l 1
 25 622 l 1
 25 671 l 1
 255 671 l 1
 255 644 l 1
 561 169 l 1
 561 597 l 1
 543 616 l 1
 482 624 l 1
 482 671 l 1
 710 671 l 1
 710 624 l 1
 651 616 l 1
 634 597 l 1
 634 0 l 1
 522 0 l 1
 176 537 l 1
 176 74 l 1
 192 56 l 1
 254 48 l 1
 254 0 l 1
 26 0 l 1xcf
471 909 m 1
 525 909 l 1
 525 893 l 2xdf
 525 816 491 774 438 774 c 0xef
 373 774 323 820 293 820 c 0xdf
 269 820 256 801 256 767 c 2
 256 757 l 1
 201 757 l 1
 201 774 l 2xef
 201 851 233 893 288 893 c 0xdf
 347 893 397 846 432 846 c 0xef
 458 846 471 864 471 901 c 2
 471 909 l 1
EndSplineSet
Position2: "'cpsp' Capital Spacing in Latin lookup 2 subtable" dx=7 dy=0 dh=14 dv=0
EndChar

StartChar: Ograve
Encoding: 210 210 144
Width: 752
GlyphClass: 2
Flags: MW
HStem: -16 61<324.5 427> 622 64<331.5 421 331.5 434.5> 739 21G<365 433 365 365>
VStem: 41 149<245 393.5> 567 150<280 389.5 280 422.5>
LayerCount: 2
Fore
SplineSet
41 339 m 0
 41 448 76 536 144 599 c 0
 207 657 285 686 378 686 c 0
 464 686 537 660 598 608 c 0
 675 542 717 446 717 333 c 0
 717 227 680 137 610 72 c 0
 549 15 469 -16 385 -16 c 0
 178 -16 41 126 41 339 c 0
380 622 m 0
 269 622 190 516 190 337 c 0
 190 153 271 45 378 45 c 0
 488 45 567 153 567 330 c 0
 567 515 489 622 380 622 c 0
212 929 m 1
 336 929 l 1
 433 739 l 1
 365 739 l 1
 212 929 l 1
EndSplineSet
Position2: "'cpsp' Capital Spacing in Latin lookup 2 subtable" dx=7 dy=0 dh=14 dv=0
EndChar

StartChar: Oacute
Encoding: 211 211 145
Width: 752
GlyphClass: 2
Flags: MW
HStem: -16 61<324.5 427> 622 64<331.5 421 331.5 434.5> 739 21G<332 399 332 332>
VStem: 41 149<245 393.5> 567 150<280 389.5 280 422.5>
LayerCount: 2
Fore
SplineSet
41 339 m 0
 41 448 76 536 144 599 c 0
 207 657 285 686 378 686 c 0
 464 686 537 660 598 608 c 0
 675 542 717 446 717 333 c 0
 717 227 680 137 610 72 c 0
 549 15 469 -16 385 -16 c 0
 178 -16 41 126 41 339 c 0
380 622 m 0
 269 622 190 516 190 337 c 0
 190 153 271 45 378 45 c 0
 488 45 567 153 567 330 c 0
 567 515 489 622 380 622 c 0
429 929 m 1
 553 929 l 1
 399 739 l 1
 332 739 l 1
 429 929 l 1
EndSplineSet
Position2: "'cpsp' Capital Spacing in Latin lookup 2 subtable" dx=7 dy=0 dh=14 dv=0
EndChar

StartChar: Ocircumflex
Encoding: 212 212 146
Width: 752
GlyphClass: 2
Flags: MW
HStem: -16 61<324.5 427> 622 64<331.5 421 331.5 434.5> 739 21G<222 300 222 222 453 530 453 453>
VStem: 41 149<245 393.5> 222 78<739 739> 453 77<739 739> 567 150<280 389.5 280 422.5>
LayerCount: 2
Fore
SplineSet
41 339 m 0
 41 448 76 536 144 599 c 0
 207 657 285 686 378 686 c 0
 464 686 537 660 598 608 c 0
 675 542 717 446 717 333 c 0
 717 227 680 137 610 72 c 0
 549 15 469 -16 385 -16 c 0
 178 -16 41 126 41 339 c 0
380 622 m 0
 269 622 190 516 190 337 c 0
 190 153 271 45 378 45 c 0
 488 45 567 153 567 330 c 0
 567 515 489 622 380 622 c 0
332 929 m 1
 420 929 l 1
 530 739 l 1
 453 739 l 1
 376 864 l 1
 300 739 l 1
 222 739 l 1
 332 929 l 1
EndSplineSet
Position2: "'cpsp' Capital Spacing in Latin lookup 2 subtable" dx=7 dy=0 dh=14 dv=0
EndChar

StartChar: Otilde
Encoding: 213 213 147
Width: 752
GlyphClass: 2
Flags: MW
HStem: -16 61<324.5 427> 622 64<331.5 421 331.5 434.5> 774 72<426.5 457 426.5 476.5> 820 73<293 320>
VStem: 41 149<245 393.5> 213 55<757 767 757 774 757 812.5> 483 54<901 909 854.5 909> 567 150<280 389.5 280 422.5>
LayerCount: 2
Fore
SplineSet
41 339 m 0xcf
 41 448 76 536 144 599 c 0
 207 657 285 686 378 686 c 0
 464 686 537 660 598 608 c 0
 675 542 717 446 717 333 c 0
 717 227 680 137 610 72 c 0
 549 15 469 -16 385 -16 c 0
 178 -16 41 126 41 339 c 0xcf
380 622 m 0
 269 622 190 516 190 337 c 0
 190 153 271 45 378 45 c 0
 488 45 567 153 567 330 c 0
 567 515 489 622 380 622 c 0
483 909 m 1
 537 909 l 1
 537 893 l 2xdf
 537 816 503 774 450 774 c 0xef
 385 774 335 820 305 820 c 0xdf
 281 820 268 801 268 767 c 2
 268 757 l 1
 213 757 l 1
 213 774 l 2xef
 213 851 245 893 300 893 c 0xdf
 359 893 409 846 444 846 c 0xef
 470 846 483 864 483 901 c 2
 483 909 l 1
EndSplineSet
Position2: "'cpsp' Capital Spacing in Latin lookup 2 subtable" dx=7 dy=0 dh=14 dv=0
EndChar

StartChar: Odieresis
Encoding: 214 214 148
Width: 752
GlyphClass: 2
Flags: MW
HStem: -16 61<324.5 427> 622 64<331.5 421 331.5 434.5> 766 131<255.5 290 255.5 290.5 461.5 496>
VStem: 41 149<245 393.5> 209 127<813 849.5> 416 126<813 849.5> 567 150<280 389.5 280 422.5>
LayerCount: 2
Fore
SplineSet
41 339 m 0
 41 448 76 536 144 599 c 0
 207 657 285 686 378 686 c 0
 464 686 537 660 598 608 c 0
 675 542 717 446 717 333 c 0
 717 227 680 137 610 72 c 0
 549 15 469 -16 385 -16 c 0
 178 -16 41 126 41 339 c 0
380 622 m 0
 269 622 190 516 190 337 c 0
 190 153 271 45 378 45 c 0
 488 45 567 153 567 330 c 0
 567 515 489 622 380 622 c 0
273 897 m 0
 307 897 336 868 336 831 c 0
 336 795 308 766 273 766 c 0
 238 766 209 795 209 831 c 0
 209 868 238 897 273 897 c 0
479 897 m 0
 513 897 542 868 542 831 c 0
 542 795 513 766 479 766 c 0
 443 766 416 795 416 831 c 0
 416 868 444 897 479 897 c 0
EndSplineSet
Position2: "'cpsp' Capital Spacing in Latin lookup 2 subtable" dx=7 dy=0 dh=14 dv=0
EndChar

StartChar: multiply
Encoding: 215 215 149
Width: 833
GlyphClass: 2
Flags: W
LayerCount: 2
Fore
SplineSet
421 356 m 1
 646 580 l 1
 703 523 l 1
 479 298 l 1
 703 74 l 1
 646 16 l 1
 421 241 l 1
 197 16 l 1
 140 74 l 1
 364 298 l 1
 140 523 l 1
 197 580 l 1
 421 356 l 1
EndSplineSet
EndChar

StartChar: Oslash
Encoding: 216 216 150
Width: 752
GlyphClass: 2
Flags: MW
HStem: -16 62<358 420> 622 64<323.5 400>
VStem: 41 143<306 430 306 441> 573 145<281 368.5>
LayerCount: 2
Fore
SplineSet
583 753 m 1
 632 725 l 1
 575 627 l 1
 668 553 718 462 718 334 c 0
 718 228 679 135 609 70 c 0
 548 13 467 -16 373 -16 c 0
 319 -16 269 -5 221 19 c 1
 162 -83 l 1
 116 -50 l 1
 173 48 l 1
 87 115 41 215 41 334 c 0
 41 548 176 686 381 686 c 0
 431 686 479 676 526 656 c 1
 583 753 l 1
485 584 m 1
 454 610 420 622 380 622 c 0
 267 622 184 516 184 344 c 0
 184 268 198 202 228 142 c 1
 485 584 l 1
524 538 m 1
 264 92 l 1
 298 61 336 46 380 46 c 0
 491 46 573 154 573 327 c 0
 573 410 560 479 524 538 c 1
EndSplineSet
Substitution2: "'c2sc' Capitals to Small Capitals in Latin lookup 6 subtable" oslash.sc
Position2: "'cpsp' Capital Spacing in Latin lookup 2 subtable" dx=7 dy=0 dh=14 dv=0
EndChar

StartChar: Ugrave
Encoding: 217 217 151
Width: 705
GlyphClass: 2
Flags: MW
HStem: -12 79<334 449> 622 49<20 307 20 307> 739 21G<342 410 342 342>
VStem: 97 134<257 603> 546 73<262 599>
LayerCount: 2
Fore
SplineSet
20 671 m 1
 307 671 l 1
 307 622 l 1
 245 617 l 1
 231 603 l 1
 231 253 l 2
 231 124 274 67 394 67 c 0
 505 67 546 129 546 262 c 2
 546 599 l 1
 531 616 l 1
 467 622 l 1
 467 671 l 1
 694 671 l 1
 694 622 l 1
 633 616 l 1
 619 599 l 1
 619 252 l 2
 619 69 543 -12 355 -12 c 0
 256 -12 182 18 141 70 c 0
 102 121 97 180 97 257 c 2
 97 603 l 1
 83 617 l 1
 20 622 l 1
 20 671 l 1
189 929 m 1
 313 929 l 1
 410 739 l 1
 342 739 l 1
 189 929 l 1
EndSplineSet
Position2: "'cpsp' Capital Spacing in Latin lookup 2 subtable" dx=7 dy=0 dh=14 dv=0
EndChar

StartChar: Uacute
Encoding: 218 218 152
Width: 705
GlyphClass: 2
Flags: MW
HStem: -12 79<334 449> 622 49<20 307 20 307> 739 21G<309 376 309 309>
VStem: 97 134<257 603> 546 73<262 599>
LayerCount: 2
Fore
SplineSet
20 671 m 1
 307 671 l 1
 307 622 l 1
 245 617 l 1
 231 603 l 1
 231 253 l 2
 231 124 274 67 394 67 c 0
 505 67 546 129 546 262 c 2
 546 599 l 1
 531 616 l 1
 467 622 l 1
 467 671 l 1
 694 671 l 1
 694 622 l 1
 633 616 l 1
 619 599 l 1
 619 252 l 2
 619 69 543 -12 355 -12 c 0
 256 -12 182 18 141 70 c 0
 102 121 97 180 97 257 c 2
 97 603 l 1
 83 617 l 1
 20 622 l 1
 20 671 l 1
406 929 m 1
 530 929 l 1
 376 739 l 1
 309 739 l 1
 406 929 l 1
EndSplineSet
Position2: "'cpsp' Capital Spacing in Latin lookup 2 subtable" dx=7 dy=0 dh=14 dv=0
EndChar

StartChar: Ucircumflex
Encoding: 219 219 153
Width: 705
GlyphClass: 2
Flags: MW
HStem: -12 79<334 449> 622 49<20 307 20 307> 739 21G<199 277 199 199 430 507 430 430>
VStem: 97 134<257 603> 199 78<739 739> 430 77<739 739> 546 73<262 599>
LayerCount: 2
Fore
SplineSet
20 671 m 1xf6
 307 671 l 1
 307 622 l 1
 245 617 l 1
 231 603 l 1
 231 253 l 2
 231 124 274 67 394 67 c 0
 505 67 546 129 546 262 c 2
 546 599 l 1
 531 616 l 1
 467 622 l 1
 467 671 l 1
 694 671 l 1
 694 622 l 1
 633 616 l 1
 619 599 l 1
 619 252 l 2
 619 69 543 -12 355 -12 c 0
 256 -12 182 18 141 70 c 0
 102 121 97 180 97 257 c 2
 97 603 l 1
 83 617 l 1
 20 622 l 1
 20 671 l 1xf6
309 929 m 1
 397 929 l 1
 507 739 l 1
 430 739 l 1
 353 864 l 1
 277 739 l 1
 199 739 l 1xee
 309 929 l 1
EndSplineSet
Position2: "'cpsp' Capital Spacing in Latin lookup 2 subtable" dx=7 dy=0 dh=14 dv=0
EndChar

StartChar: Udieresis
Encoding: 220 220 154
Width: 705
GlyphClass: 2
Flags: MW
HStem: -12 79<334 449> 622 49<20 307 20 307> 766 131<232.5 267 232.5 267.5 438.5 473>
VStem: 97 134<257 603> 186 127<813 849.5> 393 126<813 849.5> 546 73<262 599>
LayerCount: 2
Fore
SplineSet
20 671 m 1xf6
 307 671 l 1
 307 622 l 1
 245 617 l 1
 231 603 l 1
 231 253 l 2
 231 124 274 67 394 67 c 0
 505 67 546 129 546 262 c 2
 546 599 l 1
 531 616 l 1
 467 622 l 1
 467 671 l 1
 694 671 l 1
 694 622 l 1
 633 616 l 1
 619 599 l 1
 619 252 l 2
 619 69 543 -12 355 -12 c 0
 256 -12 182 18 141 70 c 0
 102 121 97 180 97 257 c 2
 97 603 l 1
 83 617 l 1
 20 622 l 1
 20 671 l 1xf6
250 897 m 0
 284 897 313 868 313 831 c 0
 313 795 285 766 250 766 c 0
 215 766 186 795 186 831 c 0xee
 186 868 215 897 250 897 c 0
456 897 m 0
 490 897 519 868 519 831 c 0
 519 795 490 766 456 766 c 0
 420 766 393 795 393 831 c 0
 393 868 421 897 456 897 c 0
EndSplineSet
Position2: "'cpsp' Capital Spacing in Latin lookup 2 subtable" dx=7 dy=0 dh=14 dv=0
EndChar

StartChar: Yacute
Encoding: 221 221 155
Width: 610
GlyphClass: 2
Flags: MW
HStem: 0 50<162 462 162 162> 622 49<-11 262 -11 262> 739 21G<261 328 261 261>
VStem: 245 133<69 264 264 264>
LayerCount: 2
Fore
SplineSet
-11 671 m 1
 262 671 l 1
 262 622 l 1
 206 617 l 1
 197 605 l 1
 334 351 l 1
 477 596 l 1
 469 612 l 1
 409 623 l 1
 409 671 l 1
 627 671 l 1
 627 622 l 1
 568 611 l 1
 378 288 l 1
 378 69 l 1
 394 55 l 1
 462 50 l 1
 462 0 l 1
 162 0 l 1
 162 50 l 1
 229 55 l 1
 245 69 l 1
 245 264 l 1
 53 612 l 1
 -11 622 l 1
 -11 671 l 1
358 929 m 1
 482 929 l 1
 328 739 l 1
 261 739 l 1
 358 929 l 1
EndSplineSet
Position2: "'cpsp' Capital Spacing in Latin lookup 2 subtable" dx=7 dy=0 dh=14 dv=0
EndChar

StartChar: Thorn
Encoding: 222 222 156
Width: 587
GlyphClass: 2
Flags: MW
HStem: 0 49<32 323 32 32> 128 58<302.5 329 270.5 393> 490 58<241 298> 622 49<32 323 32 323>
VStem: 109 132<70 131 188 490 548 601> 434 138<291 393.5>
LayerCount: 2
Fore
SplineSet
32 671 m 1
 323 671 l 1
 323 622 l 1
 257 617 l 1
 241 601 l 1
 241 548 l 1
 298 548 l 2
 483 548 572 489 572 347 c 0
 572 210 477 128 309 128 c 0
 296 128 273 129 241 131 c 1
 241 70 l 1
 257 54 l 1
 323 49 l 1
 323 0 l 1
 32 0 l 1
 32 49 l 1
 92 54 l 1
 109 70 l 1
 109 603 l 1
 95 617 l 1
 32 622 l 1
 32 671 l 1
241 188 m 1
 253 187 265 186 276 186 c 0
 382 186 434 238 434 344 c 0
 434 443 382 492 278 492 c 0
 266 492 254 491 241 490 c 1
 241 188 l 1
EndSplineSet
Substitution2: "'c2sc' Capitals to Small Capitals in Latin lookup 6 subtable" thorn.sc
Position2: "'cpsp' Capital Spacing in Latin lookup 2 subtable" dx=7 dy=0 dh=14 dv=0
EndChar

StartChar: germandbls
Encoding: 223 223 157
Width: 642
GlyphClass: 2
Flags: MW
HStem: -8 55<414 449.5 414 487.5> 0 44<18 245> 684 58<290.5 359>
VStem: 84 125<64 438 438 445 64 534> 299 120<378 394> 300 62<12 155 155 155> 423 126<560.5 605> 507 115<108.5 152>
LayerCount: 2
Fore
SplineSet
538 471 m 1x7a
 529 472 520 473 511 473 c 0
 453 473 419 444 419 400 c 0x7a
 419 356 451 339 498 311 c 0
 577 264 622 228 622 154 c 0
 622 63 545 -8 430 -8 c 0
 394 -8 351 -2 300 12 c 1
 300 155 l 1
 362 155 l 1
 370 62 l 1
 386 52 404 47 424 47 c 0
 475 47 507 78 507 122 c 0xb5
 507 182 453 203 369 250 c 0
 325 275 299 316 299 363 c 0
 299 425 341 477 413 494 c 1
 419 526 423 551 423 570 c 0
 423 640 386 684 332 684 c 0
 249 684 209 604 209 445 c 2
 209 64 l 1
 213 49 l 1
 245 44 l 1
 245 0 l 1
 18 0 l 1
 18 46 l 1
 74 50 l 1
 84 64 l 1
 84 438 l 2
 84 630 194 742 355 742 c 0
 475 742 549 672 549 563 c 0
 549 532 545 502 538 471 c 1x7a
EndSplineSet
Substitution2: "'smcp' Lowercase to Small Capitals in Latin lookup 4 subtable" germandbls.sc
Substitution2: "'ss01' Style Set 1 lookup 0 subtable" germandbls.ss01
EndChar

StartChar: agrave
Encoding: 224 224 158
Width: 544
GlyphClass: 2
Flags: MW
HStem: -9 77<132.5 259> 0 44<356 534> 261 51<343 344> 446 53<241.5 282> 722 20G<108 232 232 232>
VStem: 40 132<120 176 120 178.5> 63 138<369.5 411.5> 343 125<57 322 98 261 261 261>
LayerCount: 2
Fore
SplineSet
343 57 m 1x7b
 279 14 225 -9 171 -9 c 0
 94 -9 40 45 40 121 c 0xbd
 40 236 135 265 344 312 c 1
 344 342 l 2
 344 414 315 446 249 446 c 0
 234 446 219 444 201 440 c 1
 201 346 l 1
 109 346 l 2
 79 346 63 356 63 383 c 0
 63 440 149 499 281 499 c 0
 421 499 468 450 468 322 c 2
 468 63 l 1
 481 49 l 1
 534 44 l 1
 534 0 l 1
 356 0 l 1
 343 57 l 1x7b
343 98 m 1
 343 261 l 1
 225 235 172 209 172 143 c 0
 172 97 200 68 246 68 c 0
 272 68 304 78 343 98 c 1
108 742 m 1
 232 742 l 1
 329 552 l 1
 261 552 l 1
 108 742 l 1
EndSplineSet
Substitution2: "'smcp' Lowercase to Small Capitals in Latin lookup 4 subtable" agrave.sc
EndChar

StartChar: aacute
Encoding: 225 225 159
Width: 544
GlyphClass: 2
Flags: MW
HStem: -9 77<132.5 259> 0 44<356 534> 261 51<343 344> 446 53<241.5 282> 722 20G<325 449 449 449>
VStem: 40 132<120 176 120 178.5> 63 138<369.5 411.5> 343 125<57 322 98 261 261 261>
LayerCount: 2
Fore
SplineSet
343 57 m 1x7b
 279 14 225 -9 171 -9 c 0
 94 -9 40 45 40 121 c 0xbd
 40 236 135 265 344 312 c 1
 344 342 l 2
 344 414 315 446 249 446 c 0
 234 446 219 444 201 440 c 1
 201 346 l 1
 109 346 l 2
 79 346 63 356 63 383 c 0
 63 440 149 499 281 499 c 0
 421 499 468 450 468 322 c 2
 468 63 l 1
 481 49 l 1
 534 44 l 1
 534 0 l 1
 356 0 l 1
 343 57 l 1x7b
343 98 m 1
 343 261 l 1
 225 235 172 209 172 143 c 0
 172 97 200 68 246 68 c 0
 272 68 304 78 343 98 c 1
325 742 m 1
 449 742 l 1
 295 552 l 1
 228 552 l 1
 325 742 l 1
EndSplineSet
Substitution2: "'smcp' Lowercase to Small Capitals in Latin lookup 4 subtable" aacute.sc
EndChar

StartChar: acircumflex
Encoding: 226 226 160
Width: 544
GlyphClass: 2
Flags: MW
HStem: -9 77<132.5 259> 0 44<356 534> 261 51<343 344> 446 53<241.5 282> 722 20G<228 316 316 316>
VStem: 40 132<120 176 120 178.5> 63 138<369.5 411.5> 118 78<552 552> 343 125<57 322 98 261 261 261> 349 77<552 552>
LayerCount: 2
Fore
SplineSet
343 57 m 1x7a80
 279 14 225 -9 171 -9 c 0
 94 -9 40 45 40 121 c 0xbc80
 40 236 135 265 344 312 c 1
 344 342 l 2
 344 414 315 446 249 446 c 0
 234 446 219 444 201 440 c 1
 201 346 l 1
 109 346 l 2
 79 346 63 356 63 383 c 0
 63 440 149 499 281 499 c 0
 421 499 468 450 468 322 c 2
 468 63 l 1
 481 49 l 1
 534 44 l 1
 534 0 l 1
 356 0 l 1
 343 57 l 1x7a80
343 98 m 1
 343 261 l 1
 225 235 172 209 172 143 c 0
 172 97 200 68 246 68 c 0
 272 68 304 78 343 98 c 1
228 742 m 1
 316 742 l 1
 426 552 l 1
 349 552 l 1
 272 677 l 1
 196 552 l 1
 118 552 l 1x3940
 228 742 l 1
EndSplineSet
Substitution2: "'smcp' Lowercase to Small Capitals in Latin lookup 4 subtable" acircumflex.sc
EndChar

StartChar: atilde
Encoding: 227 227 161
Width: 544
GlyphClass: 2
Flags: MW
HStem: -9 77<132.5 259> 0 44<356 534> 261 51<343 344> 446 53<241.5 282> 587 72<322.5 353 322.5 372.5> 633 73<189 216>
VStem: 40 132<120 176 120 178.5> 63 138<369.5 411.5> 109 55<570 580 570 587 570 625.5> 343 125<57 322 98 261 261 261> 379 54<714 722 667.5 722>
LayerCount: 2
Fore
SplineSet
343 57 m 1x7140
 279 14 225 -9 171 -9 c 0
 94 -9 40 45 40 121 c 0xb240
 40 236 135 265 344 312 c 1
 344 342 l 2
 344 414 315 446 249 446 c 0
 234 446 219 444 201 440 c 1
 201 346 l 1xb1
 109 346 l 2xb080
 79 346 63 356 63 383 c 0
 63 440 149 499 281 499 c 0
 421 499 468 450 468 322 c 2
 468 63 l 1
 481 49 l 1
 534 44 l 1
 534 0 l 1
 356 0 l 1
 343 57 l 1x7140
343 98 m 1
 343 261 l 1
 225 235 172 209 172 143 c 0
 172 97 200 68 246 68 c 0
 272 68 304 78 343 98 c 1
379 722 m 1x38a0
 433 722 l 1
 433 706 l 2x34a0
 433 629 399 587 346 587 c 0x38a0
 281 587 231 633 201 633 c 0x3520
 177 633 164 614 164 580 c 2
 164 570 l 1
 109 570 l 1
 109 587 l 2x3880
 109 664 141 706 196 706 c 0x3480
 255 706 305 659 340 659 c 0
 366 659 379 677 379 714 c 2
 379 722 l 1x38a0
EndSplineSet
Substitution2: "'smcp' Lowercase to Small Capitals in Latin lookup 4 subtable" atilde.sc
EndChar

StartChar: adieresis
Encoding: 228 228 162
Width: 544
GlyphClass: 2
Flags: MW
HStem: -9 77<132.5 259> 0 44<356 534> 261 51<343 344> 446 53<241.5 282> 579 131<151.5 186 151.5 186.5 357.5 392>
VStem: 40 132<120 176 120 178.5> 63 138<369.5 411.5> 105 127<626 662.5> 312 126<626 662.5> 343 125<57 322 98 261 261 261>
LayerCount: 2
Fore
SplineSet
343 57 m 1x7a40
 279 14 225 -9 171 -9 c 0
 94 -9 40 45 40 121 c 0xbc40
 40 236 135 265 344 312 c 1
 344 342 l 2
 344 414 315 446 249 446 c 0
 234 446 219 444 201 440 c 1
 201 346 l 1
 109 346 l 2
 79 346 63 356 63 383 c 0
 63 440 149 499 281 499 c 0
 421 499 468 450 468 322 c 2
 468 63 l 1
 481 49 l 1
 534 44 l 1
 534 0 l 1
 356 0 l 1
 343 57 l 1x7a40
343 98 m 1
 343 261 l 1
 225 235 172 209 172 143 c 0
 172 97 200 68 246 68 c 0
 272 68 304 78 343 98 c 1
169 710 m 0
 203 710 232 681 232 644 c 0
 232 608 204 579 169 579 c 0
 134 579 105 608 105 644 c 0x39
 105 681 134 710 169 710 c 0
375 710 m 0
 409 710 438 681 438 644 c 0
 438 608 409 579 375 579 c 0
 339 579 312 608 312 644 c 0x3880
 312 681 340 710 375 710 c 0
EndSplineSet
Substitution2: "'smcp' Lowercase to Small Capitals in Latin lookup 4 subtable" adieresis.sc
EndChar

StartChar: aring
Encoding: 229 229 163
Width: 544
GlyphClass: 2
Flags: MW
HStem: -9 77<132.5 259> 0 44<356 534> 261 51<343 344> 446 53<241.5 282> 546 52<258.5 293.5 258.5 308.5> 731 52<258.5 294>
VStem: 40 132<120 176 120 178.5> 63 138<369.5 411.5> 159 53<646.5 684 646.5 697.5> 341 52<646.5 683.5> 343 125<57 322 98 261 261 261>
LayerCount: 2
Fore
SplineSet
276 783 m 0x3cc0
 341 783 393 731 393 665 c 0
 393 599 341 546 276 546 c 0
 211 546 159 598 159 665 c 0
 159 730 212 783 276 783 c 0x3cc0
276 731 m 0
 241 731 212 703 212 665 c 0
 212 628 241 598 276 598 c 0
 311 598 341 628 341 665 c 0
 341 702 312 731 276 731 c 0
468 322 m 2xbd20
 468 63 l 1
 481 49 l 1
 534 44 l 1
 534 0 l 1
 356 0 l 1x7d20
 343 57 l 1
 279 14 225 -9 171 -9 c 0
 94 -9 40 45 40 121 c 0xbe20
 40 236 135 265 344 312 c 1
 344 342 l 2
 344 414 315 446 249 446 c 0
 234 446 219 444 201 440 c 1
 201 346 l 1
 109 346 l 2
 79 346 63 356 63 383 c 0
 63 440 149 499 281 499 c 0
 421 499 468 450 468 322 c 2xbd20
343 261 m 1
 225 235 172 209 172 143 c 0
 172 97 200 68 246 68 c 0xbe20
 272 68 304 78 343 98 c 1
 343 261 l 1
EndSplineSet
Substitution2: "'smcp' Lowercase to Small Capitals in Latin lookup 4 subtable" aring.sc
EndChar

StartChar: ae
Encoding: 230 230 164
Width: 768
GlyphClass: 2
Flags: MW
HStem: -9 80<566 584> 50 74<734 734> 252 52<446 607 444 734 446 446> 261 51<328 328> 446 53<229 267>
VStem: 41 128<120 176 120 179> 63 131<369.5 412> 328 118<131 252 131 261 131 261 131 342 131 378.5> 607 128<304 318 318 347 272 359.5>
AnchorPoint: "Anchor-2" 388 0 basechar 0
AnchorPoint: "Anchor-1" 398 499 basechar 0
LayerCount: 2
Fore
SplineSet
194 346 m 1x5b80
 105 346 l 2
 76 346 63 356 63 383 c 0
 63 441 145 499 271 499 c 0
 335 499 381 483 415 444 c 1
 453 480 500 498 553 498 c 0
 666 498 735 418 735 276 c 0
 735 268 734 260 734 252 c 1
 446 252 l 1
 446 131 l 1
 490 91 538 71 594 71 c 0xab80
 644 71 687 89 734 124 c 1
 734 50 l 1x4b80
 676 11 616 -9 552 -9 c 0x8b80
 478 -9 412 16 358 64 c 1
 291 15 230 -10 171 -10 c 0
 91 -10 41 42 41 124 c 0x4d80
 41 234 130 265 328 312 c 1
 328 342 l 2
 328 415 300 446 234 446 c 0
 224 446 210 444 194 440 c 1
 194 346 l 1x5b80
328 98 m 1
 328 261 l 1
 217 231 169 209 169 143 c 0x1d80
 169 97 196 68 238 68 c 0
 262 68 291 78 328 98 c 1
444 304 m 1x2980
 607 304 l 1
 607 318 l 2
 607 401 581 443 530 443 c 0
 474 443 445 396 444 304 c 1x2980
EndSplineSet
Substitution2: "'smcp' Lowercase to Small Capitals in Latin lookup 4 subtable" ae.sc
EndChar

StartChar: ccedilla
Encoding: 231 231 165
Width: 476
GlyphClass: 2
Flags: MW
HStem: -230 50<253.5 267.5 239.5 304> -219 47<186 186> -110 54<260.5 332> -8 8<242 290 242 307> 448 49<267 305.5>
VStem: 35 136<202 314> 242 48<-57 0 -57 0 -57 0> 309 78<-155 -133> 327 131<368.5 418.5 368.5 445 368.5 445>
AnchorPoint: "Anchor-1" 293 499 basechar 0
LayerCount: 2
Fore
SplineSet
464 45 m 1x3e80
 400 10 339 -8 275 -8 c 0
 130 -8 35 93 35 238 c 0
 35 390 143 497 293 497 c 0
 396 497 458 449 458 388 c 0
 458 349 429 320 386 320 c 0
 364 320 345 326 327 339 c 1
 327 445 l 1
 317 447 309 448 302 448 c 0
 232 448 171 376 171 262 c 0
 171 142 232 71 325 71 c 0
 368 71 415 86 464 116 c 1
 464 45 l 1x3e80
242 0 m 1
 290 0 l 1
 290 -57 l 1
 295 -56 301 -56 306 -56 c 0
 358 -56 387 -85 387 -132 c 0
 387 -190 341 -230 267 -230 c 0xbf
 240 -230 214 -226 186 -219 c 1
 186 -172 l 1x7f
 212 -177 232 -180 247 -180 c 0
 288 -180 309 -167 309 -143 c 0xbf
 309 -123 293 -110 264 -110 c 0
 257 -110 250 -111 242 -112 c 1
 242 0 l 1
EndSplineSet
Substitution2: "'smcp' Lowercase to Small Capitals in Latin lookup 4 subtable" ccedilla.sc
EndChar

StartChar: egrave
Encoding: 232 232 166
Width: 524
GlyphClass: 2
Flags: MW
HStem: -9 78<276.5 319> 50 74<491 491> 255 53<170 361 170 492 165 361> 445 55<244 301.5> 722 20G<98 222 222 222>
VStem: 37 128<194.5 252 252 255 194.5 318.5> 361 131<255 319 255 360.5>
LayerCount: 2
Fore
SplineSet
491 124 m 1x7e
 491 50 l 1x7e
 424 11 354 -9 284 -9 c 0
 135 -9 37 91 37 242 c 0
 37 395 140 500 284 500 c 0
 415 500 492 418 492 274 c 2
 492 255 l 1
 165 255 l 1
 165 252 l 2
 165 137 227 69 326 69 c 0xbe
 379 69 433 87 491 124 c 1x7e
361 308 m 1
 361 319 l 2
 361 402 329 445 274 445 c 0
 214 445 173 395 170 308 c 1
 361 308 l 1
98 742 m 1
 222 742 l 1
 319 552 l 1
 251 552 l 1
 98 742 l 1
EndSplineSet
Substitution2: "'smcp' Lowercase to Small Capitals in Latin lookup 4 subtable" egrave.sc
EndChar

StartChar: eacute
Encoding: 233 233 167
Width: 524
GlyphClass: 2
Flags: MW
HStem: -9 78<276.5 319> 50 74<491 491> 255 53<170 361 170 492 165 361> 445 55<244 301.5> 722 20G<315 439 439 439>
VStem: 37 128<194.5 252 252 255 194.5 318.5> 361 131<255 319 255 360.5>
LayerCount: 2
Fore
SplineSet
491 124 m 1x7e
 491 50 l 1x7e
 424 11 354 -9 284 -9 c 0
 135 -9 37 91 37 242 c 0
 37 395 140 500 284 500 c 0
 415 500 492 418 492 274 c 2
 492 255 l 1
 165 255 l 1
 165 252 l 2
 165 137 227 69 326 69 c 0xbe
 379 69 433 87 491 124 c 1x7e
361 308 m 1
 361 319 l 2
 361 402 329 445 274 445 c 0
 214 445 173 395 170 308 c 1
 361 308 l 1
315 742 m 1
 439 742 l 1
 285 552 l 1
 218 552 l 1
 315 742 l 1
EndSplineSet
Substitution2: "'smcp' Lowercase to Small Capitals in Latin lookup 4 subtable" eacute.sc
EndChar

StartChar: ecircumflex
Encoding: 234 234 168
Width: 524
GlyphClass: 2
Flags: MW
HStem: -9 78<276.5 319> 50 74<491 491> 255 53<170 361 170 492 165 361> 445 55<244 301.5> 722 20G<218 306 306 306>
VStem: 37 128<194.5 252 252 255 194.5 318.5> 108 78<552 552> 339 77<552 552> 361 131<255 319 255 360.5>
LayerCount: 2
Fore
SplineSet
491 124 m 1x7c80
 491 50 l 1x7c80
 424 11 354 -9 284 -9 c 0
 135 -9 37 91 37 242 c 0
 37 395 140 500 284 500 c 0
 415 500 492 418 492 274 c 2
 492 255 l 1
 165 255 l 1
 165 252 l 2
 165 137 227 69 326 69 c 0xbc80
 379 69 433 87 491 124 c 1x7c80
361 308 m 1
 361 319 l 2
 361 402 329 445 274 445 c 0
 214 445 173 395 170 308 c 1
 361 308 l 1
218 742 m 1
 306 742 l 1
 416 552 l 1
 339 552 l 1
 262 677 l 1
 186 552 l 1
 108 552 l 1x3b
 218 742 l 1
EndSplineSet
Substitution2: "'smcp' Lowercase to Small Capitals in Latin lookup 4 subtable" ecircumflex.sc
EndChar

StartChar: edieresis
Encoding: 235 235 169
Width: 524
GlyphClass: 2
Flags: MW
HStem: -9 78<276.5 319> 50 74<491 491> 255 53<170 361 170 492 165 361> 445 55<244 301.5> 579 131<141.5 176 141.5 176.5 347.5 382>
VStem: 37 128<194.5 252 252 255 194.5 318.5> 95 127<626 662.5> 302 126<626 662.5> 361 131<255 319 255 360.5>
LayerCount: 2
Fore
SplineSet
491 124 m 1x7c80
 491 50 l 1x7c80
 424 11 354 -9 284 -9 c 0
 135 -9 37 91 37 242 c 0
 37 395 140 500 284 500 c 0
 415 500 492 418 492 274 c 2
 492 255 l 1
 165 255 l 1
 165 252 l 2
 165 137 227 69 326 69 c 0xbc80
 379 69 433 87 491 124 c 1x7c80
361 308 m 1
 361 319 l 2
 361 402 329 445 274 445 c 0
 214 445 173 395 170 308 c 1
 361 308 l 1
159 710 m 0
 193 710 222 681 222 644 c 0
 222 608 194 579 159 579 c 0
 124 579 95 608 95 644 c 0x3a
 95 681 124 710 159 710 c 0
365 710 m 0
 399 710 428 681 428 644 c 0
 428 608 399 579 365 579 c 0
 329 579 302 608 302 644 c 0x39
 302 681 330 710 365 710 c 0
EndSplineSet
Substitution2: "'smcp' Lowercase to Small Capitals in Latin lookup 4 subtable" edieresis.sc
EndChar

StartChar: igrave
Encoding: 236 236 170
Width: 305
GlyphClass: 2
Flags: MW
HStem: 0 45<30 292 30 30> 476 20G<173 221 221 221> 722 20G<-11 113 113 113>
VStem: 98 123<64 409 409 409>
LayerCount: 2
Fore
SplineSet
173 496 m 1
 221 496 l 1
 221 64 l 1
 236 49 l 1
 292 45 l 1
 292 0 l 1
 30 0 l 1
 30 45 l 1
 84 49 l 1
 98 64 l 1
 98 409 l 1
 32 409 l 1
 32 449 l 1
 173 496 l 1
-11 742 m 1
 113 742 l 1
 210 552 l 1
 142 552 l 1
 -11 742 l 1
EndSplineSet
Substitution2: "'smcp' Lowercase to Small Capitals in Latin lookup 4 subtable" igrave.sc
EndChar

StartChar: iacute
Encoding: 237 237 171
Width: 305
GlyphClass: 2
Flags: MW
HStem: 0 45<30 292 30 30> 476 20G<173 221 221 221> 722 20G<206 330 330 330>
VStem: 98 123<64 409 409 409>
LayerCount: 2
Fore
SplineSet
173 496 m 1
 221 496 l 1
 221 64 l 1
 236 49 l 1
 292 45 l 1
 292 0 l 1
 30 0 l 1
 30 45 l 1
 84 49 l 1
 98 64 l 1
 98 409 l 1
 32 409 l 1
 32 449 l 1
 173 496 l 1
206 742 m 1
 330 742 l 1
 176 552 l 1
 109 552 l 1
 206 742 l 1
EndSplineSet
Substitution2: "'smcp' Lowercase to Small Capitals in Latin lookup 4 subtable" iacute.sc
EndChar

StartChar: icircumflex
Encoding: 238 238 172
Width: 305
GlyphClass: 2
Flags: MW
HStem: 0 45<30 292 30 30> 476 20G<173 221 221 221> 722 20G<109 197 197 197>
VStem: -1 78<552 552> 98 123<64 409 409 409> 230 77<552 552>
LayerCount: 2
Fore
SplineSet
173 496 m 1
 221 496 l 1
 221 64 l 1
 236 49 l 1
 292 45 l 1
 292 0 l 1
 30 0 l 1
 30 45 l 1
 84 49 l 1
 98 64 l 1
 98 409 l 1
 32 409 l 1
 32 449 l 1
 173 496 l 1
109 742 m 1
 197 742 l 1
 307 552 l 1
 230 552 l 1
 153 677 l 1
 77 552 l 1
 -1 552 l 1
 109 742 l 1
EndSplineSet
Substitution2: "'smcp' Lowercase to Small Capitals in Latin lookup 4 subtable" icircumflex.sc
EndChar

StartChar: idieresis
Encoding: 239 239 173
Width: 305
GlyphClass: 2
Flags: MW
HStem: 0 45<30 292 30 30> 476 20G<173 221 221 221> 579 131<32.5 67 32.5 67.5 238.5 273>
VStem: -14 127<626 662.5> 98 123<64 409 409 409> 193 126<626 662.5>
AnchorPoint: "Anchor-1" 160 690 basechar 0
LayerCount: 2
Fore
SplineSet
173 496 m 1xe8
 221 496 l 1
 221 64 l 1
 236 49 l 1
 292 45 l 1
 292 0 l 1
 30 0 l 1
 30 45 l 1
 84 49 l 1
 98 64 l 1
 98 409 l 1
 32 409 l 1
 32 449 l 1
 173 496 l 1xe8
50 710 m 0
 84 710 113 681 113 644 c 0
 113 608 85 579 50 579 c 0
 15 579 -14 608 -14 644 c 0xf0
 -14 681 15 710 50 710 c 0
256 710 m 0
 290 710 319 681 319 644 c 0
 319 608 290 579 256 579 c 0
 220 579 193 608 193 644 c 0xe4
 193 681 221 710 256 710 c 0
EndSplineSet
Substitution2: "'smcp' Lowercase to Small Capitals in Latin lookup 4 subtable" idieresis.sc
EndChar

StartChar: eth
Encoding: 240 240 174
Width: 569
GlyphClass: 2
Flags: MW
HStem: -9 53<253.5 328 253.5 366> 436 50<265.5 287 205 317.5> 724 20G<270 270>
VStem: 35 137<177.5 305 177.5 315> 408 131<187 290.5>
LayerCount: 2
Fore
SplineSet
346 481 m 1
 324 517 301 548 276 578 c 1
 156 507 l 1
 132 551 l 1
 241 615 l 1
 209 651 l 1
 128 655 l 1
 125 690 l 1
 270 744 l 1
 345 669 l 1
 452 731 l 1
 477 688 l 1
 377 629 l 1
 485 503 539 384 539 265 c 0
 539 96 439 -9 293 -9 c 0
 135 -9 35 91 35 243 c 0
 35 387 135 486 275 486 c 0
 299 486 322 485 346 481 c 1
373 424 m 1
 348 432 327 436 308 436 c 0
 223 436 172 368 172 242 c 0
 172 113 216 44 291 44 c 0
 365 44 408 117 408 257 c 0
 408 324 397 378 373 424 c 1
EndSplineSet
Substitution2: "'smcp' Lowercase to Small Capitals in Latin lookup 4 subtable" eth.sc
EndChar

StartChar: ntilde
Encoding: 241 241 175
Width: 605
GlyphClass: 2
Flags: MW
HStem: 0 45<31 31 31 278> 409 40<28 96 28 28> 409 87<28 220> 587 72<353.5 384 353.5 403.5> 633 73<220 247>
VStem: 96 124<64 394 64 409 64 409> 140 55<570 580 570 587 570 625.5> 405 122<64 303 303 332 64 340> 410 54<714 722 667.5 722>
LayerCount: 2
Fore
SplineSet
31 0 m 1xa5
 31 45 l 1
 82 49 l 1
 96 64 l 1
 96 409 l 1
 28 409 l 1
 28 449 l 1xc5
 172 496 l 1
 220 496 l 1
 220 437 l 1
 291 476 347 498 391 498 c 0
 483 498 527 443 527 332 c 2
 527 64 l 1
 540 49 l 1
 593 45 l 1
 593 0 l 1
 348 0 l 1
 348 45 l 1
 391 49 l 1
 405 64 l 1
 405 303 l 2
 405 377 378 411 315 411 c 0
 290 411 258 405 220 394 c 1
 220 64 l 1
 234 49 l 1
 278 45 l 1
 278 0 l 1
 31 0 l 1xa5
410 722 m 1x9280
 464 722 l 1
 464 706 l 2x8a80
 464 629 430 587 377 587 c 0x9280
 312 587 262 633 232 633 c 0x8a80
 208 633 195 614 195 580 c 2
 195 570 l 1
 140 570 l 1
 140 587 l 2x9280
 140 664 172 706 227 706 c 0x8a80
 286 706 336 659 371 659 c 0
 397 659 410 677 410 714 c 2
 410 722 l 1x9280
EndSplineSet
Substitution2: "'smcp' Lowercase to Small Capitals in Latin lookup 4 subtable" ntilde.sc
EndChar

StartChar: ograve
Encoding: 242 242 176
Width: 577
GlyphClass: 2
Flags: MW
HStem: -8 53<256 328 256 367> 446 53<256.5 327.5> 722 20G<125 249 249 249>
VStem: 37 139<181.5 311.5 181.5 320> 409 138<179 309.5>
LayerCount: 2
Fore
SplineSet
296 499 m 0
 449 499 547 400 547 241 c 0
 547 93 446 -8 288 -8 c 0
 138 -8 37 92 37 243 c 0
 37 397 139 499 296 499 c 0
292 446 m 0
 221 446 176 376 176 247 c 0
 176 116 221 45 291 45 c 0
 365 45 409 114 409 244 c 0
 409 375 363 446 292 446 c 0
125 742 m 1
 249 742 l 1
 346 552 l 1
 278 552 l 1
 125 742 l 1
EndSplineSet
Substitution2: "'smcp' Lowercase to Small Capitals in Latin lookup 4 subtable" ograve.sc
EndChar

StartChar: oacute
Encoding: 243 243 177
Width: 577
GlyphClass: 2
Flags: MW
HStem: -8 53<256 328 256 367> 446 53<256.5 327.5> 722 20G<342 466 466 466>
VStem: 37 139<181.5 311.5 181.5 320> 409 138<179 309.5>
LayerCount: 2
Fore
SplineSet
296 499 m 0
 449 499 547 400 547 241 c 0
 547 93 446 -8 288 -8 c 0
 138 -8 37 92 37 243 c 0
 37 397 139 499 296 499 c 0
292 446 m 0
 221 446 176 376 176 247 c 0
 176 116 221 45 291 45 c 0
 365 45 409 114 409 244 c 0
 409 375 363 446 292 446 c 0
342 742 m 1
 466 742 l 1
 312 552 l 1
 245 552 l 1
 342 742 l 1
EndSplineSet
Substitution2: "'smcp' Lowercase to Small Capitals in Latin lookup 4 subtable" oacute.sc
EndChar

StartChar: ocircumflex
Encoding: 244 244 178
Width: 577
GlyphClass: 2
Flags: MW
HStem: -8 53<256 328 256 367> 446 53<256.5 327.5> 722 20G<245 333 333 333>
VStem: 37 139<181.5 311.5 181.5 320> 135 78<552 552> 366 77<552 552> 409 138<179 309.5>
LayerCount: 2
Fore
SplineSet
296 499 m 0xf2
 449 499 547 400 547 241 c 0
 547 93 446 -8 288 -8 c 0
 138 -8 37 92 37 243 c 0
 37 397 139 499 296 499 c 0xf2
292 446 m 0
 221 446 176 376 176 247 c 0
 176 116 221 45 291 45 c 0
 365 45 409 114 409 244 c 0
 409 375 363 446 292 446 c 0
245 742 m 1
 333 742 l 1
 443 552 l 1
 366 552 l 1
 289 677 l 1
 213 552 l 1
 135 552 l 1xec
 245 742 l 1
EndSplineSet
EndChar

StartChar: otilde
Encoding: 245 245 179
Width: 577
GlyphClass: 2
Flags: MW
HStem: -8 53<256 328 256 367> 446 53<256.5 327.5> 587 72<339.5 370 339.5 389.5> 633 73<206 233>
VStem: 37 139<181.5 311.5 181.5 320> 126 55<570 580 570 587 570 625.5> 396 54<714 722 667.5 722> 409 138<179 309.5>
LayerCount: 2
Fore
SplineSet
296 499 m 0xc9
 449 499 547 400 547 241 c 0
 547 93 446 -8 288 -8 c 0
 138 -8 37 92 37 243 c 0
 37 397 139 499 296 499 c 0xc9
292 446 m 0
 221 446 176 376 176 247 c 0
 176 116 221 45 291 45 c 0
 365 45 409 114 409 244 c 0
 409 375 363 446 292 446 c 0
396 722 m 1xe6
 450 722 l 1
 450 706 l 2xd6
 450 629 416 587 363 587 c 0xe6
 298 587 248 633 218 633 c 0xd6
 194 633 181 614 181 580 c 2
 181 570 l 1
 126 570 l 1
 126 587 l 2xe6
 126 664 158 706 213 706 c 0xd6
 272 706 322 659 357 659 c 0
 383 659 396 677 396 714 c 2
 396 722 l 1xe6
EndSplineSet
Substitution2: "'smcp' Lowercase to Small Capitals in Latin lookup 4 subtable" otilde.sc
EndChar

StartChar: odieresis
Encoding: 246 246 180
Width: 577
GlyphClass: 2
Flags: MW
HStem: -8 53<256 328 256 367> 446 53<256.5 327.5> 579 131<168.5 203 168.5 203.5 374.5 409>
VStem: 37 139<181.5 311.5 181.5 320> 122 127<626 662.5> 329 126<626 662.5> 409 138<179 309.5>
LayerCount: 2
Fore
SplineSet
296 499 m 0xf2
 449 499 547 400 547 241 c 0
 547 93 446 -8 288 -8 c 0
 138 -8 37 92 37 243 c 0
 37 397 139 499 296 499 c 0xf2
292 446 m 0
 221 446 176 376 176 247 c 0
 176 116 221 45 291 45 c 0
 365 45 409 114 409 244 c 0
 409 375 363 446 292 446 c 0
186 710 m 0
 220 710 249 681 249 644 c 0
 249 608 221 579 186 579 c 0
 151 579 122 608 122 644 c 0xe8
 122 681 151 710 186 710 c 0
392 710 m 0
 426 710 455 681 455 644 c 0
 455 608 426 579 392 579 c 0
 356 579 329 608 329 644 c 0xe4
 329 681 357 710 392 710 c 0
EndSplineSet
Substitution2: "'smcp' Lowercase to Small Capitals in Latin lookup 4 subtable" odieresis.sc
EndChar

StartChar: divide
Encoding: 247 247 181
Width: 833
GlyphClass: 2
Flags: MW
HStem: 46 133<399 435.5 399 436> 258 81<124 709 124 709> 417 134<399 435.5 399 436>
VStem: 350 134<94 130.5 94 130.5 465 501.5>
LayerCount: 2
Fore
SplineSet
417 551 m 0
 454 551 484 520 484 483 c 0
 484 447 455 417 417 417 c 0
 379 417 350 446 350 483 c 0
 350 520 381 551 417 551 c 0
709 339 m 1
 709 258 l 1
 124 258 l 1
 124 339 l 1
 709 339 l 1
417 179 m 0
 454 179 484 149 484 112 c 0
 484 76 455 46 417 46 c 0
 379 46 350 75 350 112 c 0
 350 149 381 179 417 179 c 0
EndSplineSet
EndChar

StartChar: oslash
Encoding: 248 248 182
Width: 577
GlyphClass: 2
Flags: MW
HStem: -8 53<278 328.5 274.5 373> 446 52<254.5 302.5>
VStem: 37 133<229.5 313.5 229.5 321.5> 413 134<175 265.5>
LayerCount: 2
Fore
SplineSet
438 571 m 1
 480 547 l 1
 433 463 l 1
 508 417 547 344 547 247 c 0
 547 93 446 -8 300 -8 c 0
 256 -8 217 -3 180 12 c 1
 126 -83 l 1
 85 -56 l 1
 137 35 l 1
 70 84 37 154 37 244 c 0
 37 399 136 498 295 498 c 0
 327 498 358 493 389 483 c 1
 438 571 l 1
355 424 m 1
 335 439 315 446 290 446 c 0
 219 446 170 376 170 251 c 0
 170 208 176 167 188 128 c 1
 355 424 l 1
386 381 m 1
 217 78 l 1
 235 56 259 45 290 45 c 0
 367 45 413 113 413 237 c 0
 413 294 406 341 386 381 c 1
EndSplineSet
Substitution2: "'smcp' Lowercase to Small Capitals in Latin lookup 4 subtable" oslash.sc
EndChar

StartChar: ugrave
Encoding: 249 249 183
Width: 600
GlyphClass: 2
Flags: MW
HStem: -9 86<178.5 319.5> 0 45<393 582> 479 20G<164 212 212 212 470 516 516 516> 722 20G<136 260 260 260>
VStem: 88 124<162 189 189 412 412 412> 393 123<0 499 55 499 93 412 412 412>
LayerCount: 2
Fore
SplineSet
164 499 m 1xbc
 212 499 l 1
 212 189 l 2
 212 111 238 77 307 77 c 0xbc
 332 77 360 83 393 93 c 1
 393 412 l 1
 328 412 l 1
 328 451 l 1
 470 499 l 1
 516 499 l 1
 516 64 l 1
 530 49 l 1
 582 45 l 1
 582 0 l 1
 393 0 l 1x7c
 393 55 l 1
 330 14 278 -9 225 -9 c 0
 132 -9 88 47 88 162 c 2
 88 412 l 1
 23 412 l 1
 23 451 l 1
 164 499 l 1xbc
136 742 m 1
 260 742 l 1
 357 552 l 1
 289 552 l 1
 136 742 l 1
EndSplineSet
Substitution2: "'smcp' Lowercase to Small Capitals in Latin lookup 4 subtable" ugrave.sc
EndChar

StartChar: uacute
Encoding: 250 250 184
Width: 600
GlyphClass: 2
Flags: MW
HStem: -9 86<178.5 319.5> 0 45<393 582> 479 20G<164 212 212 212 470 516 516 516> 722 20G<353 477 477 477>
VStem: 88 124<162 189 189 412 412 412> 393 123<0 499 55 499 93 412 412 412>
LayerCount: 2
Fore
SplineSet
164 499 m 1xbc
 212 499 l 1
 212 189 l 2
 212 111 238 77 307 77 c 0xbc
 332 77 360 83 393 93 c 1
 393 412 l 1
 328 412 l 1
 328 451 l 1
 470 499 l 1
 516 499 l 1
 516 64 l 1
 530 49 l 1
 582 45 l 1
 582 0 l 1
 393 0 l 1x7c
 393 55 l 1
 330 14 278 -9 225 -9 c 0
 132 -9 88 47 88 162 c 2
 88 412 l 1
 23 412 l 1
 23 451 l 1
 164 499 l 1xbc
353 742 m 1
 477 742 l 1
 323 552 l 1
 256 552 l 1
 353 742 l 1
EndSplineSet
Substitution2: "'smcp' Lowercase to Small Capitals in Latin lookup 4 subtable" uacute.sc
EndChar

StartChar: ucircumflex
Encoding: 251 251 185
Width: 600
GlyphClass: 2
Flags: MW
HStem: -9 86<178.5 319.5> 0 45<393 582> 479 20G<164 212 212 212 470 516 516 516> 722 20G<256 344 344 344>
VStem: 88 124<162 189 189 412 412 412> 146 78<552 552> 377 77<552 552> 393 123<0 499 55 499 93 412 412 412>
LayerCount: 2
Fore
SplineSet
164 499 m 1xb9
 212 499 l 1
 212 189 l 2
 212 111 238 77 307 77 c 0xb9
 332 77 360 83 393 93 c 1
 393 412 l 1
 328 412 l 1
 328 451 l 1
 470 499 l 1
 516 499 l 1
 516 64 l 1
 530 49 l 1
 582 45 l 1
 582 0 l 1
 393 0 l 1x79
 393 55 l 1
 330 14 278 -9 225 -9 c 0
 132 -9 88 47 88 162 c 2
 88 412 l 1
 23 412 l 1
 23 451 l 1
 164 499 l 1xb9
256 742 m 1
 344 742 l 1
 454 552 l 1
 377 552 l 1
 300 677 l 1
 224 552 l 1
 146 552 l 1x36
 256 742 l 1
EndSplineSet
Substitution2: "'smcp' Lowercase to Small Capitals in Latin lookup 4 subtable" ucircumflex.sc
EndChar

StartChar: udieresis
Encoding: 252 252 186
Width: 600
GlyphClass: 2
Flags: MW
HStem: -9 86<178.5 319.5> 0 45<393 582> 479 20G<164 212 212 212 470 516 516 516> 579 131<179.5 214 179.5 214.5 385.5 420>
VStem: 88 124<162 189 189 412 412 412> 133 127<626 662.5> 340 126<626 662.5> 393 123<0 499 55 499 93 412 412 412>
LayerCount: 2
Fore
SplineSet
164 499 m 1xb9
 212 499 l 1
 212 189 l 2
 212 111 238 77 307 77 c 0xb9
 332 77 360 83 393 93 c 1
 393 412 l 1
 328 412 l 1
 328 451 l 1
 470 499 l 1
 516 499 l 1
 516 64 l 1
 530 49 l 1
 582 45 l 1
 582 0 l 1
 393 0 l 1x79
 393 55 l 1
 330 14 278 -9 225 -9 c 0
 132 -9 88 47 88 162 c 2
 88 412 l 1
 23 412 l 1
 23 451 l 1
 164 499 l 1xb9
197 710 m 0
 231 710 260 681 260 644 c 0
 260 608 232 579 197 579 c 0
 162 579 133 608 133 644 c 0x34
 133 681 162 710 197 710 c 0
403 710 m 0
 437 710 466 681 466 644 c 0
 466 608 437 579 403 579 c 0
 367 579 340 608 340 644 c 0x32
 340 681 368 710 403 710 c 0
EndSplineSet
Substitution2: "'smcp' Lowercase to Small Capitals in Latin lookup 4 subtable" udieresis.sc
EndChar

StartChar: yacute
Encoding: 253 253 187
Width: 515
GlyphClass: 2
Flags: MW
HStem: -219 21G<78.5 136> 443 43<-4 250 -4 250> 722 20G<311 435 435 435>
LayerCount: 2
Fore
SplineSet
-4 486 m 1
 250 486 l 1
 250 443 l 1
 199 437 l 1
 189 423 l 1
 297 140 l 1
 406 422 l 1
 397 437 l 1
 344 443 l 1
 344 486 l 1
 536 486 l 1
 536 443 l 1
 482 434 l 1
 289 -35 l 2
 240 -153 169 -219 103 -219 c 0
 54 -219 17 -183 17 -145 c 0
 17 -116 36 -91 69 -74 c 1
 156 -134 l 1
 182 -113 209 -72 234 -12 c 1
 56 434 l 1
 -4 443 l 1
 -4 486 l 1
311 742 m 1
 435 742 l 1
 281 552 l 1
 214 552 l 1
 311 742 l 1
EndSplineSet
Substitution2: "'smcp' Lowercase to Small Capitals in Latin lookup 4 subtable" yacute.sc
EndChar

StartChar: thorn
Encoding: 254 254 188
Width: 591
GlyphClass: 2
Flags: MW
HStem: -219 46<25 25 25 293> -1 54<286 323 269 378.5> 413 86<282 426> 652 39<20 93 20 20> 719 20G<171 215 215 215>
VStem: 93 122<-153 5 60 394 436 652 652 652> 427 135<186 299.5>
LayerCount: 2
Fore
SplineSet
25 -219 m 1
 25 -173 l 1
 80 -168 l 1
 93 -153 l 1
 93 652 l 1
 20 652 l 1
 20 691 l 1
 171 739 l 1
 215 739 l 1
 215 436 l 1
 274 477 324 499 373 499 c 0
 479 499 562 403 562 263 c 0
 562 103 460 -1 297 -1 c 0
 275 -1 248 1 215 5 c 1
 215 -155 l 1
 230 -169 l 1
 294 -173 l 1
 293 -219 l 1
 25 -219 l 1
215 60 m 1
 238 55 259 53 279 53 c 0
 367 53 427 126 427 246 c 0
 427 353 375 413 294 413 c 0
 270 413 244 406 215 394 c 1
 215 60 l 1
EndSplineSet
Substitution2: "'smcp' Lowercase to Small Capitals in Latin lookup 4 subtable" thorn.sc
EndChar

StartChar: ydieresis
Encoding: 255 255 189
Width: 515
GlyphClass: 2
Flags: MW
HStem: -219 21G<78.5 136> 443 43<-4 250 -4 250> 579 131<137.5 172 137.5 172.5 343.5 378>
VStem: 91 127<626 662.5> 298 126<626 662.5>
LayerCount: 2
Fore
SplineSet
-4 486 m 1
 250 486 l 1
 250 443 l 1
 199 437 l 1
 189 423 l 1
 297 140 l 1
 406 422 l 1
 397 437 l 1
 344 443 l 1
 344 486 l 1
 536 486 l 1
 536 443 l 1
 482 434 l 1
 289 -35 l 2
 240 -153 169 -219 103 -219 c 0
 54 -219 17 -183 17 -145 c 0
 17 -116 36 -91 69 -74 c 1
 156 -134 l 1
 182 -113 209 -72 234 -12 c 1
 56 434 l 1
 -4 443 l 1
 -4 486 l 1
155 710 m 0
 189 710 218 681 218 644 c 0
 218 608 190 579 155 579 c 0
 120 579 91 608 91 644 c 0
 91 681 120 710 155 710 c 0
361 710 m 0
 395 710 424 681 424 644 c 0
 424 608 395 579 361 579 c 0
 325 579 298 608 298 644 c 0
 298 681 326 710 361 710 c 0
EndSplineSet
Substitution2: "'smcp' Lowercase to Small Capitals in Latin lookup 4 subtable" ydieresis.sc
EndChar

StartChar: Amacron
Encoding: 256 256 190
Width: 651
GlyphClass: 2
Flags: MW
HStem: 0 49<-11 204 -11 -11> 238 56<210 386 210 409 191 386> 658 20G<275 380 380 380> 791 71<162 493 162 493>
VStem: 162 331<791 862 791 862>
LayerCount: 2
Fore
SplineSet
162 791 m 1
 162 862 l 1
 493 862 l 1
 493 791 l 1
 162 791 l 1
275 678 m 1
 380 678 l 1
 610 59 l 1
 669 49 l 1
 669 0 l 1
 399 0 l 1
 399 49 l 1
 462 55 l 1
 469 68 l 1
 409 238 l 1
 191 238 l 1
 131 69 l 1
 141 56 l 1
 204 49 l 1
 204 0 l 1
 -11 0 l 1
 -11 49 l 1
 49 58 l 1
 275 678 l 1
297 541 m 1
 210 294 l 1
 386 294 l 1
 297 541 l 1
EndSplineSet
EndChar

StartChar: amacron
Encoding: 257 257 191
Width: 544
GlyphClass: 2
Flags: MW
HStem: -9 77<132.5 259> 0 44<356 534> 261 51<343 344> 446 53<241.5 282> 604 71<115 446 115 446>
VStem: 40 132<120 176 120 178.5> 63 138<369.5 411.5> 115 331<604 675 604 675> 343 125<57 322 98 261 261 261>
LayerCount: 2
Fore
SplineSet
115 604 m 1x09
 115 675 l 1
 446 675 l 1
 446 604 l 1
 115 604 l 1x09
343 57 m 1x7280
 279 14 225 -9 171 -9 c 0
 94 -9 40 45 40 121 c 0xb480
 40 236 135 265 344 312 c 1
 344 342 l 2
 344 414 315 446 249 446 c 0
 234 446 219 444 201 440 c 1
 201 346 l 1
 109 346 l 2
 79 346 63 356 63 383 c 0
 63 440 149 499 281 499 c 0
 421 499 468 450 468 322 c 2
 468 63 l 1
 481 49 l 1
 534 44 l 1
 534 0 l 1
 356 0 l 1
 343 57 l 1x7280
343 98 m 1
 343 261 l 1
 225 235 172 209 172 143 c 0
 172 97 200 68 246 68 c 0
 272 68 304 78 343 98 c 1
EndSplineSet
EndChar

StartChar: Abreve
Encoding: 258 258 192
Width: 651
GlyphClass: 2
Flags: MW
HStem: 0 49<-11 204 -11 -11> 238 56<210 386 210 409 191 386> 658 20G<275 380 380 380> 747 71<294.5 367.5 294.5 385>
VStem: 178 51<885 892 892 898 863.5 899 863.5 899> 432 51<892 898 898 898>
LayerCount: 2
Fore
SplineSet
178 899 m 1
 229 898 l 1
 229 892 l 2
 229 835 258 818 331 818 c 0
 404 818 432 836 432 892 c 2
 432 898 l 1
 483 899 l 1
 483 888 l 2
 483 785 439 747 331 747 c 0
 223 747 178 784 178 885 c 2
 178 899 l 1
275 678 m 1
 380 678 l 1
 610 59 l 1
 669 49 l 1
 669 0 l 1
 399 0 l 1
 399 49 l 1
 462 55 l 1
 469 68 l 1
 409 238 l 1
 191 238 l 1
 131 69 l 1
 141 56 l 1
 204 49 l 1
 204 0 l 1
 -11 0 l 1
 -11 49 l 1
 49 58 l 1
 275 678 l 1
297 541 m 1
 210 294 l 1
 386 294 l 1
 297 541 l 1
EndSplineSet
Substitution2: "'c2sc' Capitals to Small Capitals in Latin lookup 6 subtable" a.sc
Position2: "'cpsp' Capital Spacing in Latin lookup 2 subtable" dx=7 dy=0 dh=14 dv=0
EndChar

StartChar: abreve
Encoding: 259 259 193
Width: 544
GlyphClass: 2
Flags: MW
HStem: -9 77<132.5 259> 0 44<356 534> 261 51<343 344> 446 53<241.5 282> 567 71<244.5 317.5 244.5 335>
VStem: 40 132<120 176 120 178.5> 63 138<369.5 411.5> 128 51<705 712 712 718 683.5 719 683.5 719> 343 125<57 322 98 261 261 261> 382 51<712 718 718 718>
LayerCount: 2
Fore
SplineSet
128 719 m 1x3940
 179 718 l 1
 179 712 l 2
 179 655 208 638 281 638 c 0
 354 638 382 656 382 712 c 2
 382 718 l 1
 433 719 l 1
 433 708 l 2
 433 605 389 567 281 567 c 0
 173 567 128 604 128 705 c 2
 128 719 l 1x3940
343 57 m 1x7a80
 279 14 225 -9 171 -9 c 0
 94 -9 40 45 40 121 c 0xbc80
 40 236 135 265 344 312 c 1
 344 342 l 2
 344 414 315 446 249 446 c 0
 234 446 219 444 201 440 c 1
 201 346 l 1
 109 346 l 2
 79 346 63 356 63 383 c 0
 63 440 149 499 281 499 c 0
 421 499 468 450 468 322 c 2
 468 63 l 1
 481 49 l 1
 534 44 l 1
 534 0 l 1
 356 0 l 1
 343 57 l 1x7a80
343 98 m 1
 343 261 l 1
 225 235 172 209 172 143 c 0
 172 97 200 68 246 68 c 0
 272 68 304 78 343 98 c 1
EndSplineSet
Substitution2: "'smcp' Lowercase to Small Capitals in Latin lookup 3 subtable" abreve.sc
EndChar

StartChar: Aogonek
Encoding: 260 260 194
Width: 651
GlyphClass: 2
Flags: MW
HStem: -224 72<600 602.5> 0 49<-11 204 -11 -11> 238 56<210 386 210 409 191 386> 658 20G<275 380 380 380>
VStem: 489 73<-116 -112.5>
LayerCount: 2
Fore
SplineSet
297 541 m 1
 210 294 l 1
 386 294 l 1
 297 541 l 1
275 678 m 1
 380 678 l 1
 610 59 l 1
 669 49 l 1
 669 0 l 1
 612 0 l 1
 579 -30 562 -66 562 -99 c 0
 562 -133 582 -152 618 -152 c 0
 626 -152 636 -151 649 -149 c 1
 649 -217 l 1
 630 -222 611 -224 594 -224 c 0
 525 -224 489 -192 489 -134 c 0
 489 -91 513 -40 558 0 c 1
 399 0 l 1
 399 49 l 1
 462 55 l 1
 469 68 l 1
 409 238 l 1
 191 238 l 1
 131 69 l 1
 141 56 l 1
 204 49 l 1
 204 0 l 1
 -11 0 l 1
 -11 49 l 1
 49 58 l 1
 275 678 l 1
EndSplineSet
Substitution2: "'c2sc' Capitals to Small Capitals in Latin lookup 6 subtable" a.sc
Position2: "'cpsp' Capital Spacing in Latin lookup 2 subtable" dx=7 dy=0 dh=14 dv=0
EndChar

StartChar: aogonek
Encoding: 261 261 195
Width: 544
GlyphClass: 2
Flags: MW
HStem: -224 72<477 479.5> -9 77<132.5 259> 0 44<489 534> 261 51<343 344> 446 53<241.5 282>
VStem: 40 132<120 176 120 178.5> 63 138<369.5 411.5> 343 125<57 322 98 261 261 261> 366 73<-116 -112.5>
LayerCount: 2
Fore
SplineSet
343 98 m 1xdd
 343 261 l 1
 225 235 172 209 172 143 c 0
 172 97 200 68 246 68 c 0
 272 68 304 78 343 98 c 1xdd
343 57 m 1
 279 14 225 -9 171 -9 c 0
 94 -9 40 45 40 121 c 0xdd
 40 236 135 265 344 312 c 1
 344 342 l 2
 344 414 315 446 249 446 c 0
 234 446 219 444 201 440 c 1
 201 346 l 1
 109 346 l 2
 79 346 63 356 63 383 c 0
 63 440 149 499 281 499 c 0
 421 499 468 450 468 322 c 2
 468 63 l 1xdb
 481 49 l 1
 534 44 l 1
 534 0 l 1
 489 0 l 1
 456 -30 439 -66 439 -99 c 0
 439 -133 459 -152 495 -152 c 0
 503 -152 513 -151 526 -149 c 1
 526 -217 l 1
 507 -222 488 -224 471 -224 c 0
 402 -224 366 -192 366 -134 c 0
 366 -91 390 -40 435 0 c 1
 356 0 l 1xb880
 343 57 l 1
EndSplineSet
EndChar

StartChar: Cacute
Encoding: 262 262 196
Width: 638
GlyphClass: 2
Flags: MW
HStem: -12 63<355 427.5> 618 65<346.5 428> 742 21G<276 343 276 276>
VStem: 41 147<271 386> 529 72<196 196>
LayerCount: 2
Fore
SplineSet
373 932 m 1
 497 932 l 1
 343 742 l 1
 276 742 l 1
 373 932 l 1
601 24 m 1
 534 0 464 -12 391 -12 c 0
 319 -12 256 4 207 33 c 0
 103 95 41 207 41 335 c 0
 41 437 77 526 145 591 c 0
 208 652 293 683 397 683 c 0
 466 683 534 670 601 646 c 1
 601 479 l 1
 527 479 l 1
 508 586 l 1
 494 603 l 1
 467 613 441 618 415 618 c 0
 278 618 188 513 188 336 c 0
 188 157 279 51 428 51 c 0
 445 51 465 54 489 60 c 1
 504 75 l 1
 529 196 l 1
 601 196 l 1
 601 24 l 1
EndSplineSet
Substitution2: "'c2sc' Capitals to Small Capitals in Latin lookup 7 subtable" cacute.sc
EndChar

StartChar: cacute
Encoding: 263 263 197
Width: 476
GlyphClass: 2
Flags: MW
HStem: -8 79<278.5 307> 448 49<267 305.5> 722 20G<303 427 427 427>
VStem: 35 136<202 314> 327 131<368.5 418.5 368.5 445 368.5 445>
LayerCount: 2
Fore
SplineSet
303 742 m 1
 427 742 l 1
 273 552 l 1
 206 552 l 1
 303 742 l 1
464 45 m 1
 400 10 339 -8 275 -8 c 0
 130 -8 35 93 35 238 c 0
 35 390 143 497 293 497 c 0
 396 497 458 449 458 388 c 0
 458 349 429 320 386 320 c 0
 364 320 345 326 327 339 c 1
 327 445 l 1
 317 447 309 448 302 448 c 0
 232 448 171 376 171 262 c 0
 171 142 232 71 325 71 c 0
 368 71 415 86 464 116 c 1
 464 45 l 1
EndSplineSet
Substitution2: "'smcp' Lowercase to Small Capitals in Latin lookup 3 subtable" cacute.sc
EndChar

StartChar: Ccircumflex
Encoding: 264 264 198
Width: 638
GlyphClass: 2
Flags: MW
HStem: -12 63<355 427.5> 618 65<346.5 428> 739 190<242 440 242 440 352 473 352 550>
VStem: 41 147<271 386> 242 78<739 739> 473 77<739 739> 529 72<196 196>
LayerCount: 2
Fore
SplineSet
242 739 m 1x2c
 352 929 l 1
 440 929 l 1
 550 739 l 1
 473 739 l 1
 396 864 l 1
 320 739 l 1
 242 739 l 1x2c
601 24 m 1xd2
 534 0 464 -12 391 -12 c 0
 319 -12 256 4 207 33 c 0
 103 95 41 207 41 335 c 0
 41 437 77 526 145 591 c 0
 208 652 293 683 397 683 c 0
 466 683 534 670 601 646 c 1
 601 479 l 1
 527 479 l 1
 508 586 l 1
 494 603 l 1
 467 613 441 618 415 618 c 0
 278 618 188 513 188 336 c 0
 188 157 279 51 428 51 c 0
 445 51 465 54 489 60 c 1
 504 75 l 1
 529 196 l 1
 601 196 l 1
 601 24 l 1xd2
EndSplineSet
EndChar

StartChar: ccircumflex
Encoding: 265 265 199
Width: 476
GlyphClass: 2
Flags: MW
HStem: -8 79<278.5 307> 448 49<267 305.5> 559 190<139 337 139 337 249 447 249 370>
VStem: 35 136<202 314> 139 78<559 559> 327 131<368.5 418.5 368.5 445 368.5 445> 370 77<559 559>
LayerCount: 2
Fore
SplineSet
249 749 m 1x2a
 337 749 l 1
 447 559 l 1
 370 559 l 1
 293 684 l 1
 217 559 l 1
 139 559 l 1
 249 749 l 1x2a
464 45 m 1xd4
 400 10 339 -8 275 -8 c 0
 130 -8 35 93 35 238 c 0
 35 390 143 497 293 497 c 0
 396 497 458 449 458 388 c 0
 458 349 429 320 386 320 c 0
 364 320 345 326 327 339 c 1
 327 445 l 1
 317 447 309 448 302 448 c 0
 232 448 171 376 171 262 c 0
 171 142 232 71 325 71 c 0
 368 71 415 86 464 116 c 1
 464 45 l 1xd4
EndSplineSet
EndChar

StartChar: Cdotaccent
Encoding: 266 266 200
Width: 638
GlyphClass: 2
Flags: MW
HStem: -12 63<355 427.5> 618 65<346.5 428> 766 134<378 413.5 378 414>
VStem: 41 147<271 386> 331 130<814 851 814 851> 529 72<196 196>
LayerCount: 2
Fore
SplineSet
331 832 m 0
 331 870 360 900 396 900 c 0
 431 900 461 870 461 832 c 0
 461 796 432 766 396 766 c 0
 359 766 331 795 331 832 c 0
601 24 m 1
 534 0 464 -12 391 -12 c 0
 319 -12 256 4 207 33 c 0
 103 95 41 207 41 335 c 0
 41 437 77 526 145 591 c 0
 208 652 293 683 397 683 c 0
 466 683 534 670 601 646 c 1
 601 479 l 1
 527 479 l 1
 508 586 l 1
 494 603 l 1
 467 613 441 618 415 618 c 0
 278 618 188 513 188 336 c 0
 188 157 279 51 428 51 c 0
 445 51 465 54 489 60 c 1
 504 75 l 1
 529 196 l 1
 601 196 l 1
 601 24 l 1
EndSplineSet
EndChar

StartChar: cdotaccent
Encoding: 267 267 201
Width: 476
GlyphClass: 2
Flags: MW
HStem: -8 79<278.5 307> 448 49<267 305.5> 559 134<275 310.5 275 311>
VStem: 35 136<202 314> 228 130<607 644 607 644> 327 131<368.5 418.5 368.5 445 368.5 445>
LayerCount: 2
Fore
SplineSet
228 625 m 0x28
 228 663 257 693 293 693 c 0
 328 693 358 663 358 625 c 0
 358 589 329 559 293 559 c 0
 256 559 228 588 228 625 c 0x28
464 45 m 1xd4
 400 10 339 -8 275 -8 c 0
 130 -8 35 93 35 238 c 0
 35 390 143 497 293 497 c 0
 396 497 458 449 458 388 c 0
 458 349 429 320 386 320 c 0
 364 320 345 326 327 339 c 1
 327 445 l 1
 317 447 309 448 302 448 c 0
 232 448 171 376 171 262 c 0
 171 142 232 71 325 71 c 0
 368 71 415 86 464 116 c 1
 464 45 l 1xd4
EndSplineSet
EndChar

StartChar: Ccaron
Encoding: 268 268 202
Width: 638
GlyphClass: 2
Flags: MW
HStem: -12 63<355 427.5> 618 65<346.5 428> 738 21G<342 430 342 342>
VStem: 41 147<271 386> 232 78<928 928> 463 77<928 928> 529 72<196 196>
LayerCount: 2
Fore
SplineSet
232 928 m 1xfc
 310 928 l 1
 386 803 l 1
 463 928 l 1
 540 928 l 1
 430 738 l 1
 342 738 l 1
 232 928 l 1xfc
601 24 m 1xfa
 534 0 464 -12 391 -12 c 0
 319 -12 256 4 207 33 c 0
 103 95 41 207 41 335 c 0
 41 437 77 526 145 591 c 0
 208 652 293 683 397 683 c 0
 466 683 534 670 601 646 c 1
 601 479 l 1
 527 479 l 1
 508 586 l 1
 494 603 l 1
 467 613 441 618 415 618 c 0
 278 618 188 513 188 336 c 0
 188 157 279 51 428 51 c 0
 445 51 465 54 489 60 c 1
 504 75 l 1
 529 196 l 1
 601 196 l 1
 601 24 l 1xfa
EndSplineSet
Substitution2: "'c2sc' Capitals to Small Capitals in Latin lookup 7 subtable" ccaron.sc
EndChar

StartChar: ccaron
Encoding: 269 269 203
Width: 476
GlyphClass: 2
Flags: MW
HStem: -8 79<278.5 307> 448 49<267 305.5> 721 20G<126 204 204 204 357 434 434 434>
VStem: 35 136<202 314> 126 78<741 741> 327 131<368.5 418.5 368.5 445 368.5 445> 357 77<741 741>
LayerCount: 2
Fore
SplineSet
126 741 m 1xea
 204 741 l 1
 280 616 l 1
 357 741 l 1
 434 741 l 1
 324 551 l 1
 236 551 l 1
 126 741 l 1xea
464 45 m 1
 400 10 339 -8 275 -8 c 0
 130 -8 35 93 35 238 c 0
 35 390 143 497 293 497 c 0
 396 497 458 449 458 388 c 0
 458 349 429 320 386 320 c 0
 364 320 345 326 327 339 c 1
 327 445 l 1
 317 447 309 448 302 448 c 0
 232 448 171 376 171 262 c 0xf4
 171 142 232 71 325 71 c 0
 368 71 415 86 464 116 c 1
 464 45 l 1
EndSplineSet
Substitution2: "'smcp' Lowercase to Small Capitals in Latin lookup 3 subtable" ccaron.sc
EndChar

StartChar: Dcaron
Encoding: 270 270 204
Width: 716
GlyphClass: 2
Flags: MW
HStem: 0 49<29 321 29 29> 0 56<238 296 296 321> 615 56<238 238 238 296> 622 49<29 321> 738 21G<302 390 302 302>
VStem: 106 132<70 601 601 601> 192 78<928 928> 423 77<928 928> 532 149<276 430>
LayerCount: 2
Fore
SplineSet
192 928 m 1x0b80
 270 928 l 1
 346 803 l 1
 423 928 l 1
 500 928 l 1
 390 738 l 1
 302 738 l 1
 192 928 l 1x0b80
321 671 m 2x2d80
 553 671 681 545 681 335 c 0
 681 217 639 125 558 63 c 0
 496 15 421 0 321 0 c 2x6d80
 29 0 l 1
 29 49 l 1
 90 54 l 1
 106 70 l 1
 106 601 l 1
 90 617 l 1
 29 622 l 1
 29 671 l 1x9d80
 321 671 l 2x2d80
238 615 m 1
 238 56 l 1
 296 56 l 2
 455 56 532 148 532 336 c 0
 532 524 455 615 296 615 c 2
 238 615 l 1
EndSplineSet
Substitution2: "'c2sc' Capitals to Small Capitals in Latin lookup 7 subtable" dcaron.sc
EndChar

StartChar: dcaron
Encoding: 271 271 205
Width: 596
GlyphClass: 2
Flags: MW
HStem: -9 85<175 317> 0 44<389 576> 444 56<272.5 308.5 219 325.5> 578 120<589 620 560 636.5> 652 40<316 389 316 316> 719 20G<465 511 511 511>
VStem: 37 134<197 312.5 197 312.5> 389 122<0 739 56 739 95 429 429 429 490 652 652 652> 541 158<619.5 626 553 649.5> 621 78<553 564.5>
LayerCount: 2
Fore
SplineSet
549 395 m 1x3780
 528 425 l 1
 590 462 621 509 621 562 c 0x3740
 621 567 621 572 620 578 c 1
 560 578 l 1
 548 593 541 610 541 629 c 0
 541 670 568 698 610 698 c 0
 663 698 699 658 699 594 c 0
 699 512 647 438 549 395 c 1x3780
389 652 m 1xaf
 316 652 l 1
 316 692 l 1
 465 739 l 1
 511 739 l 1
 511 64 l 1
 525 48 l 1
 576 44 l 1
 576 0 l 1
 389 0 l 1x6f
 389 56 l 1
 332 14 282 -9 231 -9 c 0
 119 -9 37 88 37 232 c 0
 37 393 143 500 295 500 c 0
 322 500 353 497 389 490 c 1
 389 652 l 1xaf
389 95 m 1
 389 429 l 1
 360 439 336 444 315 444 c 0
 230 444 171 372 171 253 c 0
 171 141 222 76 305 76 c 0xa7
 329 76 357 83 389 95 c 1
EndSplineSet
Substitution2: "'smcp' Lowercase to Small Capitals in Latin lookup 3 subtable" dcaron.sc
EndChar

StartChar: Dcroat
Encoding: 272 272 206
Width: 716
GlyphClass: 2
Flags: MW
HStem: 0 49<29 320 29 29> 0 56<238 296 296 320> 321 61<15 105 15 105 238 379> 615 56<238 238 238 296> 622 49<29 320>
VStem: 105 133<70 321 56 321 382 601 601 601> 532 149<242.5 430>
LayerCount: 2
Fore
SplineSet
29 671 m 1xae
 320 671 l 2
 552 671 681 545 681 335 c 0
 681 122 554 0 320 0 c 2x76
 29 0 l 1
 29 49 l 1
 89 54 l 1
 105 70 l 1
 105 321 l 1
 15 321 l 1
 15 382 l 1
 105 382 l 1
 105 601 l 1
 89 617 l 1
 29 622 l 1
 29 671 l 1xae
238 615 m 1
 238 382 l 1
 379 382 l 1
 379 321 l 1
 238 321 l 1
 238 56 l 1
 296 56 l 2
 455 56 532 149 532 336 c 0
 532 524 455 615 296 615 c 2
 238 615 l 1
EndSplineSet
EndChar

StartChar: dcroat
Encoding: 273 273 207
Width: 596
GlyphClass: 2
Flags: MW
HStem: -9 85<175 317> 0 44<389 576> 444 56<272.5 308.5 219 325.5> 526 98<268 389 268 389 511 552> 652 40<316 389 316 316> 719 20G<465 511 511 511>
VStem: 37 134<197 312.5 197 312.5> 389 122<0 526 56 526 95 429 429 429 490 526 64 526 624 652 652 652>
LayerCount: 2
Fore
SplineSet
389 95 m 1xbf
 389 429 l 1
 360 439 336 444 315 444 c 0
 230 444 171 372 171 253 c 0
 171 141 222 76 305 76 c 0
 329 76 357 83 389 95 c 1xbf
389 652 m 1
 316 652 l 1
 316 692 l 1
 465 739 l 1
 511 739 l 1
 511 624 l 1
 552 624 l 1
 552 526 l 1
 511 526 l 1
 511 64 l 1
 525 48 l 1
 576 44 l 1
 576 0 l 1
 389 0 l 1x7f
 389 56 l 1
 332 14 282 -9 231 -9 c 0
 119 -9 37 88 37 232 c 0
 37 393 143 500 295 500 c 0
 322 500 353 497 389 490 c 1
 389 526 l 1
 268 526 l 1
 268 624 l 1
 389 624 l 1
 389 652 l 1
EndSplineSet
Substitution2: "'smcp' Lowercase to Small Capitals in Latin lookup 4 subtable" eth.sc
EndChar

StartChar: Emacron
Encoding: 274 274 208
Width: 596
GlyphClass: 2
Flags: MW
HStem: 0 49<29 29 29 566> 0 57<236 468 236 566> 317 60<236 366 236 366> 615 56<236 435 236 236> 622 49<29 533> 791 71<132 463 132 463>
VStem: 106 130<70 317 377 603 603 603> 132 331<791 862> 390 59<231 463 231 463> 463 70<514 671> 498 68<0 179>
LayerCount: 2
Fore
SplineSet
132 791 m 1x05
 132 862 l 1
 463 862 l 1
 463 791 l 1
 132 791 l 1x05
29 0 m 1xa2a0
 29 49 l 1
 90 54 l 1
 106 70 l 1
 106 603 l 1
 90 617 l 1
 29 622 l 1
 29 671 l 1
 533 671 l 1xaac0
 533 514 l 1
 463 514 l 1
 448 602 l 1
 435 615 l 1
 236 615 l 1
 236 377 l 1
 366 377 l 1
 380 391 l 1
 390 463 l 1
 449 463 l 1
 449 231 l 1
 390 231 l 1
 380 303 l 1
 366 317 l 1
 236 317 l 1
 236 57 l 1
 468 57 l 1x72c0
 481 73 l 1
 498 179 l 1
 566 179 l 1
 566 0 l 1
 29 0 l 1xa2a0
EndSplineSet
EndChar

StartChar: emacron
Encoding: 275 275 209
Width: 524
GlyphClass: 2
Flags: MW
HStem: -9 78<276.5 319> 50 74<491 491> 255 53<170 361 170 492 165 361> 445 55<244 301.5> 604 71<118 449 118 449>
VStem: 37 128<194.5 252 252 255 194.5 318.5> 118 331<604 675 604 675> 361 131<255 319 255 360.5>
LayerCount: 2
Fore
SplineSet
118 604 m 1x0a
 118 675 l 1
 449 675 l 1
 449 604 l 1
 118 604 l 1x0a
491 124 m 1x75
 491 50 l 1x75
 424 11 354 -9 284 -9 c 0
 135 -9 37 91 37 242 c 0
 37 395 140 500 284 500 c 0
 415 500 492 418 492 274 c 2
 492 255 l 1
 165 255 l 1
 165 252 l 2
 165 137 227 69 326 69 c 0xb5
 379 69 433 87 491 124 c 1x75
361 308 m 1
 361 319 l 2
 361 402 329 445 274 445 c 0
 214 445 173 395 170 308 c 1
 361 308 l 1
EndSplineSet
EndChar

StartChar: Ebreve
Encoding: 276 276 210
Width: 596
GlyphClass: 2
Flags: MW
HStem: 0 49<29 29 29 566> 0 57<236 468 236 566> 317 60<236 366 236 366> 615 56<236 435 236 236> 622 49<29 533> 754 71<262.5 335.5 262.5 353>
VStem: 106 130<70 317 377 603 603 603> 146 51<892 899 899 905 870.5 906 870.5 906> 390 59<231 463 231 463> 400 51<899 905 905 905> 463 70<514 671> 498 68<0 179>
LayerCount: 2
Fore
SplineSet
146 892 m 2x0540
 146 906 l 1
 197 905 l 1
 197 899 l 2
 197 842 226 825 299 825 c 0
 372 825 400 843 400 899 c 2
 400 905 l 1
 451 906 l 1
 451 895 l 2
 451 792 407 754 299 754 c 0
 191 754 146 791 146 892 c 2x0540
29 0 m 1xa290
 29 49 l 1
 90 54 l 1
 106 70 l 1
 106 603 l 1
 90 617 l 1
 29 622 l 1
 29 671 l 1
 533 671 l 1xaaa0
 533 514 l 1
 463 514 l 1
 448 602 l 1
 435 615 l 1
 236 615 l 1
 236 377 l 1
 366 377 l 1
 380 391 l 1
 390 463 l 1
 449 463 l 1
 449 231 l 1
 390 231 l 1
 380 303 l 1
 366 317 l 1
 236 317 l 1
 236 57 l 1
 468 57 l 1x72a0
 481 73 l 1
 498 179 l 1
 566 179 l 1
 566 0 l 1
 29 0 l 1xa290
EndSplineSet
EndChar

StartChar: ebreve
Encoding: 277 277 211
Width: 524
GlyphClass: 2
Flags: MW
HStem: -9 78<276.5 319> 50 74<491 491> 255 53<170 361 170 492 165 361> 445 55<244 301.5> 560 71<248 321 248 338>
VStem: 37 128<194.5 252 252 255 194.5 318.5> 132 51 361 131<255 319 255 360.5> 386 51
LayerCount: 2
Fore
SplineSet
132 698 m 2x0a80
 132 712 l 1
 182 711 l 1
 182 705 l 2
 182 648 212 631 284 631 c 0
 358 631 386 649 386 705 c 2
 386 711 l 1
 436 712 l 1
 436 701 l 2
 436 598 392 560 284 560 c 0
 176 560 132 597 132 698 c 2x0a80
491 124 m 1x75
 491 50 l 1x75
 424 11 354 -9 284 -9 c 0
 135 -9 37 91 37 242 c 0
 37 395 140 500 284 500 c 0
 415 500 492 418 492 274 c 2
 492 255 l 1
 165 255 l 1
 165 252 l 2
 165 137 227 69 326 69 c 0xb5
 379 69 433 87 491 124 c 1x75
361 308 m 1
 361 319 l 2
 361 402 329 445 274 445 c 0
 214 445 173 395 170 308 c 1
 361 308 l 1
EndSplineSet
EndChar

StartChar: Edotaccent
Encoding: 278 278 212
Width: 596
GlyphClass: 2
Flags: MW
HStem: 0 49<29 29 29 566> 0 57<236 468 236 566> 317 60<236 366 236 366> 615 56<236 435 236 236> 622 49<29 533> 766 134<280 315.5 280 316>
VStem: 106 130<70 317 377 603 603 603> 233 130<814 851 814 851> 390 59<231 463 231 463> 463 70<514 671> 498 68<0 179>
LayerCount: 2
Fore
SplineSet
233 832 m 0x05
 233 870 262 900 298 900 c 0
 333 900 363 870 363 832 c 0
 363 796 334 766 298 766 c 0
 261 766 233 795 233 832 c 0x05
29 0 m 1xa2a0
 29 49 l 1
 90 54 l 1
 106 70 l 1
 106 603 l 1
 90 617 l 1
 29 622 l 1
 29 671 l 1
 533 671 l 1xaac0
 533 514 l 1
 463 514 l 1
 448 602 l 1
 435 615 l 1
 236 615 l 1
 236 377 l 1
 366 377 l 1
 380 391 l 1
 390 463 l 1
 449 463 l 1
 449 231 l 1
 390 231 l 1
 380 303 l 1
 366 317 l 1
 236 317 l 1
 236 57 l 1
 468 57 l 1x72c0
 481 73 l 1
 498 179 l 1
 566 179 l 1
 566 0 l 1
 29 0 l 1xa2a0
EndSplineSet
EndChar

StartChar: edotaccent
Encoding: 279 279 213
Width: 524
GlyphClass: 2
Flags: MW
HStem: -9 78<276.5 319> 50 74<491 491> 255 53<170 361 170 492 165 361> 445 55<244 301.5> 560 134<266 301.5 266 302>
VStem: 37 128<194.5 252 252 255 194.5 318.5> 219 130<608 645 608 645> 361 131<255 319 255 360.5>
LayerCount: 2
Fore
SplineSet
219 626 m 0x0a
 219 664 248 694 284 694 c 0
 319 694 349 664 349 626 c 0
 349 590 320 560 284 560 c 0
 247 560 219 589 219 626 c 0x0a
491 124 m 1x75
 491 50 l 1x75
 424 11 354 -9 284 -9 c 0
 135 -9 37 91 37 242 c 0
 37 395 140 500 284 500 c 0
 415 500 492 418 492 274 c 2
 492 255 l 1
 165 255 l 1
 165 252 l 2
 165 137 227 69 326 69 c 0xb5
 379 69 433 87 491 124 c 1x75
361 308 m 1
 361 319 l 2
 361 402 329 445 274 445 c 0
 214 445 173 395 170 308 c 1
 361 308 l 1
EndSplineSet
EndChar

StartChar: Eogonek
Encoding: 280 280 214
Width: 596
GlyphClass: 2
Flags: MW
HStem: -224 72<497 499.5> 0 49<29 29 29 455> 0 57<236 455 236 509 236 566> 317 60<236 366 236 366> 615 56<236 435 236 236> 622 49<29 533>
VStem: 106 130<70 317 377 603 603 603> 386 73<-116 -112.5> 390 59<231 463 231 463> 463 70<514 671> 498 68<0 179>
LayerCount: 2
Fore
SplineSet
29 0 m 1xd320
 29 49 l 1
 90 54 l 1
 106 70 l 1
 106 603 l 1
 90 617 l 1
 29 622 l 1
 29 671 l 1
 533 671 l 1xd740
 533 514 l 1
 463 514 l 1
 448 602 l 1
 435 615 l 1
 236 615 l 1
 236 377 l 1
 366 377 l 1
 380 391 l 1
 390 463 l 1
 449 463 l 1
 449 231 l 1
 390 231 l 1
 380 303 l 1
 366 317 l 1
 236 317 l 1
 236 57 l 1
 468 57 l 1xbac0
 481 73 l 1
 498 179 l 1
 566 179 l 1
 566 0 l 1
 509 0 l 1xd2a0
 476 -30 459 -66 459 -99 c 0
 459 -133 479 -152 515 -152 c 0
 523 -152 533 -151 546 -149 c 1
 546 -217 l 1
 527 -222 508 -224 491 -224 c 0
 422 -224 386 -192 386 -134 c 0
 386 -91 410 -40 455 0 c 1xb320
 29 0 l 1xd320
EndSplineSet
EndChar

StartChar: eogonek
Encoding: 281 281 215
Width: 524
GlyphClass: 2
Flags: MW
HStem: -224 72<317 319.5> 255 53<170 361 170 492 165 361> 445 55<244 301.5>
VStem: 37 128<194.5 252 252 255 194.5 318.5> 206 73<-116 -114> 361 131<255 319 255 360.5>
LayerCount: 2
Fore
SplineSet
361 308 m 1
 361 319 l 2
 361 402 329 445 274 445 c 0
 214 445 173 395 170 308 c 1
 361 308 l 1
491 124 m 1
 491 50 l 1
 436 18 379 -1 322 -7 c 1
 293 -36 279 -69 279 -99 c 0
 279 -133 299 -152 335 -152 c 0
 343 -152 353 -151 366 -149 c 1
 366 -217 l 1
 347 -222 328 -224 311 -224 c 0
 242 -224 206 -192 206 -134 c 0
 206 -94 227 -47 266 -8 c 1
 127 -1 37 97 37 242 c 0
 37 395 140 500 284 500 c 0
 415 500 492 418 492 274 c 2
 492 255 l 1
 165 255 l 1
 165 252 l 2
 165 137 227 69 326 69 c 0
 379 69 433 87 491 124 c 1
EndSplineSet
Substitution2: "'smcp' Lowercase to Small Capitals in Latin lookup 3 subtable" eogonek.sc
EndChar

StartChar: Ecaron
Encoding: 282 282 216
Width: 596
GlyphClass: 2
Flags: MW
HStem: 0 49<29 29 29 566> 0 57<236 468 236 566> 317 60<236 366 236 366> 615 56<236 435 236 236> 622 49<29 533> 738 21G<272 360 272 272>
VStem: 106 130<70 317 377 603 603 603> 162 78<928 928> 390 59<231 463 231 463> 393 77<928 928> 463 70<514 671> 498 68<0 179>
LayerCount: 2
Fore
SplineSet
162 928 m 1x2540
 240 928 l 1
 316 803 l 1
 393 928 l 1
 470 928 l 1
 360 738 l 1
 272 738 l 1
 162 928 l 1x2540
29 0 m 1xa690
 29 49 l 1
 90 54 l 1
 106 70 l 1
 106 603 l 1
 90 617 l 1
 29 622 l 1
 29 671 l 1
 533 671 l 1xae20
 533 514 l 1
 463 514 l 1
 448 602 l 1
 435 615 l 1
 236 615 l 1
 236 377 l 1
 366 377 l 1
 380 391 l 1
 390 463 l 1
 449 463 l 1
 449 231 l 1
 390 231 l 1
 380 303 l 1
 366 317 l 1
 236 317 l 1
 236 57 l 1
 468 57 l 1x76a0
 481 73 l 1
 498 179 l 1
 566 179 l 1
 566 0 l 1
 29 0 l 1xa690
EndSplineSet
Substitution2: "'c2sc' Capitals to Small Capitals in Latin lookup 7 subtable" ecaron.sc
EndChar

StartChar: ecaron
Encoding: 283 283 217
Width: 524
GlyphClass: 2
Flags: MW
HStem: -9 78<276.5 319> 50 74<491 491> 255 53<170 361 170 492 165 361> 445 55<244 301.5> 721 20G<126 204 204 204 357 434 434 434>
VStem: 37 128<194.5 252 252 255 194.5 318.5> 126 78<741 741> 357 77<741 741> 361 131<255 319 255 360.5>
LayerCount: 2
Fore
SplineSet
126 741 m 1x3b
 204 741 l 1
 280 616 l 1
 357 741 l 1
 434 741 l 1
 324 551 l 1
 236 551 l 1
 126 741 l 1x3b
491 124 m 1x7c80
 491 50 l 1x7c80
 424 11 354 -9 284 -9 c 0
 135 -9 37 91 37 242 c 0
 37 395 140 500 284 500 c 0
 415 500 492 418 492 274 c 2
 492 255 l 1
 165 255 l 1
 165 252 l 2
 165 137 227 69 326 69 c 0xbc80
 379 69 433 87 491 124 c 1x7c80
361 308 m 1
 361 319 l 2
 361 402 329 445 274 445 c 0
 214 445 173 395 170 308 c 1
 361 308 l 1
EndSplineSet
Substitution2: "'smcp' Lowercase to Small Capitals in Latin lookup 3 subtable" ecaron.sc
EndChar

StartChar: Gcircumflex
Encoding: 284 284 218
Width: 710
GlyphClass: 2
Flags: MW
HStem: -12 67<356 428.5> 281 49<398 690 398 690> 619 63<351.5 438 294 440.5> 739 190<250 448 250 448 360 481 360 558>
VStem: 40 145<250 427.5 250 442.5> 250 78<739 739> 481 77<739 739> 488 128<58 262 29 262> 543 73<479 479>
LayerCount: 2
Fore
SplineSet
250 739 m 1x16
 360 929 l 1
 448 929 l 1
 558 739 l 1
 481 739 l 1
 404 864 l 1
 328 739 l 1
 250 739 l 1x16
398 330 m 1xe9
 690 330 l 1
 690 281 l 1
 632 276 l 1
 616 262 l 1xe9
 616 29 l 1
 539 2 465 -12 392 -12 c 0
 182 -12 40 132 40 340 c 0
 40 545 183 682 405 682 c 0
 471 682 542 671 616 649 c 1
 616 479 l 1
 543 479 l 1xe880
 524 585 l 1
 509 603 l 1
 482 614 455 619 426 619 c 0
 277 619 185 515 185 340 c 0
 185 160 279 55 433 55 c 0
 443 55 462 56 488 58 c 1
 488 262 l 1
 472 276 l 1
 398 281 l 1
 398 330 l 1xe9
EndSplineSet
EndChar

StartChar: gcircumflex
Encoding: 285 285 219
Width: 551
GlyphClass: 2
Flags: MW
HStem: -217 53<238.5 308 238.5 321.5> 168 45<252.5 288.5 241 323> 411 57<447 555 447 447> 450 47<242 289> 559 190<115 313 115 313 225 423 225 346>
VStem: 34 122<-91 -49> 55 128<296 370.5 296 376> 115 78<559 559> 124 96<73 138> 346 77<559 559> 346 123<297 347 286 371> 391 119<-87 -45.5>
LayerCount: 2
Fore
SplineSet
225 749 m 1x0940
 313 749 l 1
 423 559 l 1
 346 559 l 1
 269 684 l 1
 193 559 l 1
 115 559 l 1
 225 749 l 1x0940
407 468 m 1xe2
 555 468 l 1
 555 411 l 1
 447 411 l 1
 462 385 469 360 469 334 c 0
 469 238 389 168 257 168 c 0
 248 168 238 168 228 169 c 1
 223 156 220 144 220 132 c 0xe0a0
 220 124 221 115 223 105 c 1
 291 96 l 2
 436 75 510 45 510 -40 c 0
 510 -134 402 -217 241 -217 c 0
 109 -217 34 -162 34 -80 c 0xe410
 34 -18 73 24 137 30 c 1
 128 49 124 66 124 80 c 0xe080
 124 113 142 142 179 175 c 1
 98 198 55 253 55 325 c 0
 55 427 136 497 269 497 c 0xd2
 312 497 358 488 407 468 c 1xe2
267 450 m 0xd220
 217 450 183 407 183 334 c 0
 183 258 217 213 265 213 c 0
 312 213 346 259 346 335 c 0
 346 407 311 450 267 450 c 0xd220
198 19 m 1
 170 -4 156 -32 156 -64 c 0
 156 -118 205 -164 272 -164 c 0
 344 -164 391 -121 391 -70 c 0xc410
 391 -21 354 -7 283 5 c 2
 198 19 l 1
EndSplineSet
EndChar

StartChar: Gbreve
Encoding: 286 286 220
Width: 710
GlyphClass: 2
Flags: MW
HStem: -12 67<356 428.5> 281 49<398 690 398 690> 619 63<351.5 438 294 440.5> 747 71<364.5 437.5 364.5 455>
VStem: 40 145<250 427.5 250 442.5> 248 51<885 892 892 898 863.5 899 863.5 899> 488 128<58 262 29 262> 502 51<892 898 898 898> 543 73<479 479>
LayerCount: 2
Fore
SplineSet
248 899 m 1xfd
 299 898 l 1
 299 892 l 2
 299 835 328 818 401 818 c 0
 474 818 502 836 502 892 c 2
 502 898 l 1
 553 899 l 1
 553 888 l 2
 553 785 509 747 401 747 c 0
 293 747 248 784 248 885 c 2
 248 899 l 1xfd
398 330 m 1
 690 330 l 1
 690 281 l 1
 632 276 l 1
 616 262 l 1xfe
 616 29 l 1
 539 2 465 -12 392 -12 c 0
 182 -12 40 132 40 340 c 0
 40 545 183 682 405 682 c 0
 471 682 542 671 616 649 c 1
 616 479 l 1
 543 479 l 1xfc80
 524 585 l 1
 509 603 l 1
 482 614 455 619 426 619 c 0
 277 619 185 515 185 340 c 0
 185 160 279 55 433 55 c 0
 443 55 462 56 488 58 c 1
 488 262 l 1xfe
 472 276 l 1
 398 281 l 1
 398 330 l 1
EndSplineSet
Substitution2: "'c2sc' Capitals to Small Capitals in Latin lookup 7 subtable" gbreve.sc
EndChar

StartChar: gbreve
Encoding: 287 287 221
Width: 551
GlyphClass: 2
Flags: MW
HStem: -217 53<238.5 308 238.5 321.5> 168 45<252.5 288.5 241 323> 411 57<447 555 447 447> 450 47<242 289> 567 71<234.5 307.5 234.5 325>
VStem: 34 122<-91 -49> 55 128<296 370.5 296 376> 118 51<705 712 712 718 683.5 719 683.5 719> 124 96<73 138> 346 123<297 347 286 371> 372 51<712 718 718 718> 391 119<-87 -45.5>
LayerCount: 2
Fore
SplineSet
118 719 m 1xc920
 169 718 l 1
 169 712 l 2
 169 655 198 638 271 638 c 0
 344 638 372 656 372 712 c 2
 372 718 l 1
 423 719 l 1
 423 708 l 2
 423 605 379 567 271 567 c 0
 163 567 118 604 118 705 c 2
 118 719 l 1xc920
407 468 m 1xea
 555 468 l 1
 555 411 l 1
 447 411 l 1
 462 385 469 360 469 334 c 0
 469 238 389 168 257 168 c 0
 248 168 238 168 228 169 c 1
 223 156 220 144 220 132 c 0xe8c0
 220 124 221 115 223 105 c 1
 291 96 l 2
 436 75 510 45 510 -40 c 0
 510 -134 402 -217 241 -217 c 0
 109 -217 34 -162 34 -80 c 0xec10
 34 -18 73 24 137 30 c 1
 128 49 124 66 124 80 c 0xe880
 124 113 142 142 179 175 c 1
 98 198 55 253 55 325 c 0
 55 427 136 497 269 497 c 0xda
 312 497 358 488 407 468 c 1xea
267 450 m 0xda40
 217 450 183 407 183 334 c 0
 183 258 217 213 265 213 c 0
 312 213 346 259 346 335 c 0
 346 407 311 450 267 450 c 0xda40
198 19 m 1
 170 -4 156 -32 156 -64 c 0
 156 -118 205 -164 272 -164 c 0
 344 -164 391 -121 391 -70 c 0xcc10
 391 -21 354 -7 283 5 c 2
 198 19 l 1
EndSplineSet
Substitution2: "'smcp' Lowercase to Small Capitals in Latin lookup 3 subtable" gbreve.sc
EndChar

StartChar: Gdotaccent
Encoding: 288 288 222
Width: 710
GlyphClass: 2
Flags: MW
HStem: -12 67<356 428.5> 281 49<398 690 398 690> 619 63<351.5 438 294 440.5> 766 134<386 421.5 386 422>
VStem: 40 145<250 427.5 250 442.5> 339 130<814 851 814 851> 488 128<58 262 29 262> 543 73<479 479>
LayerCount: 2
Fore
SplineSet
339 832 m 0x14
 339 870 368 900 404 900 c 0
 439 900 469 870 469 832 c 0
 469 796 440 766 404 766 c 0
 367 766 339 795 339 832 c 0x14
398 330 m 1xea
 690 330 l 1
 690 281 l 1
 632 276 l 1
 616 262 l 1xea
 616 29 l 1
 539 2 465 -12 392 -12 c 0
 182 -12 40 132 40 340 c 0
 40 545 183 682 405 682 c 0
 471 682 542 671 616 649 c 1
 616 479 l 1
 543 479 l 1xe9
 524 585 l 1
 509 603 l 1
 482 614 455 619 426 619 c 0
 277 619 185 515 185 340 c 0
 185 160 279 55 433 55 c 0
 443 55 462 56 488 58 c 1
 488 262 l 1
 472 276 l 1
 398 281 l 1
 398 330 l 1xea
EndSplineSet
EndChar

StartChar: gdotaccent
Encoding: 289 289 223
Width: 551
GlyphClass: 2
Flags: MW
HStem: -217 53<238.5 308 238.5 321.5> 168 45<252.5 288.5 241 323> 411 57<447 555 447 447> 450 47<242 289> 559 134<251 286.5 251 287>
VStem: 34 122<-91 -49> 55 128<296 370.5 296 376> 124 96<73 138> 204 130<607 644 607 644> 346 123<297 347 286 371> 391 119<-87 -45.5>
LayerCount: 2
Fore
SplineSet
204 625 m 0x0880
 204 663 233 693 269 693 c 0
 304 693 334 663 334 625 c 0
 334 589 305 559 269 559 c 0
 232 559 204 588 204 625 c 0x0880
407 468 m 1xe2
 555 468 l 1
 555 411 l 1
 447 411 l 1
 462 385 469 360 469 334 c 0
 469 238 389 168 257 168 c 0
 248 168 238 168 228 169 c 1
 223 156 220 144 220 132 c 0xe140
 220 124 221 115 223 105 c 1
 291 96 l 2
 436 75 510 45 510 -40 c 0
 510 -134 402 -217 241 -217 c 0
 109 -217 34 -162 34 -80 c 0xe420
 34 -18 73 24 137 30 c 1
 128 49 124 66 124 80 c 0xe1
 124 113 142 142 179 175 c 1
 98 198 55 253 55 325 c 0
 55 427 136 497 269 497 c 0xd2
 312 497 358 488 407 468 c 1xe2
267 450 m 0xd240
 217 450 183 407 183 334 c 0
 183 258 217 213 265 213 c 0
 312 213 346 259 346 335 c 0
 346 407 311 450 267 450 c 0xd240
198 19 m 1
 170 -4 156 -32 156 -64 c 0
 156 -118 205 -164 272 -164 c 0
 344 -164 391 -121 391 -70 c 0xc420
 391 -21 354 -7 283 5 c 2
 198 19 l 1
EndSplineSet
EndChar

StartChar: uni0122
Encoding: 290 290 224
Width: 710
GlyphClass: 2
Flags: MW
HStem: -376 46<298 298> -194 122<374 408 346 422> -12 67<356 428.5> 281 49<398 690 398 690> 619 63<351.5 438 294 440.5>
VStem: 40 145<250 427.5 250 442.5> 408 78<-204 -194 -194 -194> 488 128<58 262 29 262> 543 73<479 479>
LayerCount: 2
Fore
SplineSet
298 -376 m 1xc2
 298 -330 l 1
 370 -317 408 -273 408 -204 c 2
 408 -194 l 1
 346 -194 l 1
 332 -179 326 -162 326 -140 c 0
 326 -99 354 -72 394 -72 c 0
 450 -72 486 -112 486 -178 c 0
 486 -279 412 -363 298 -376 c 1xc2
398 330 m 1x3d
 690 330 l 1
 690 281 l 1
 632 276 l 1
 616 262 l 1x3d
 616 29 l 1
 539 2 465 -12 392 -12 c 0
 182 -12 40 132 40 340 c 0
 40 545 183 682 405 682 c 0
 471 682 542 671 616 649 c 1
 616 479 l 1
 543 479 l 1x3c80
 524 585 l 1
 509 603 l 1
 482 614 455 619 426 619 c 0
 277 619 185 515 185 340 c 0
 185 160 279 55 433 55 c 0
 443 55 462 56 488 58 c 1
 488 262 l 1
 472 276 l 1
 398 281 l 1
 398 330 l 1x3d
EndSplineSet
EndChar

StartChar: Hcircumflex
Encoding: 292 292 225
Width: 760
GlyphClass: 2
Flags: MW
HStem: 0 49<30 313 30 30> 322 60<237 526 237 526> 622 49<30 313 30 313> 739 190<228 426 228 426 338 459 338 536>
VStem: 104 133<70 322 382 601> 228 78<739 739> 459 77<739 739> 526 133<70 322 322 322 382 601 70 601>
LayerCount: 2
Fore
SplineSet
228 739 m 1x16
 338 929 l 1
 426 929 l 1
 536 739 l 1
 459 739 l 1
 382 864 l 1
 306 739 l 1
 228 739 l 1x16
30 671 m 1xe9
 313 671 l 1
 313 622 l 1
 253 617 l 1
 237 601 l 1
 237 382 l 1
 526 382 l 1
 526 601 l 1
 511 617 l 1
 451 622 l 1
 451 671 l 1
 733 671 l 1
 733 622 l 1
 675 617 l 1
 659 601 l 1
 659 70 l 1
 675 54 l 1
 733 49 l 1
 733 0 l 1
 451 0 l 1
 451 49 l 1
 511 54 l 1
 526 70 l 1
 526 322 l 1
 237 322 l 1
 237 70 l 1
 253 54 l 1
 313 49 l 1
 313 0 l 1
 30 0 l 1
 30 49 l 1
 88 54 l 1
 104 70 l 1
 104 601 l 1
 88 617 l 1
 30 622 l 1
 30 671 l 1xe9
EndSplineSet
EndChar

StartChar: hcircumflex
Encoding: 293 293 226
Width: 597
GlyphClass: 2
Flags: MW
HStem: 0 45<24 271 24 24> 411 87<295 429> 653 39<16 89 16 16> 719 20G<164 212 212 212> 799 190<147 345 147 345 257 455 257 378>
VStem: 89 123<64 394 437 653 653 653> 147 78<799 799> 378 77<799 799> 398 122<64 303 303 332 64 340>
LayerCount: 2
Fore
SplineSet
257 989 m 1x0b
 345 989 l 1
 455 799 l 1
 378 799 l 1
 301 924 l 1
 225 799 l 1
 147 799 l 1
 257 989 l 1x0b
164 739 m 1xf480
 212 739 l 1
 212 437 l 1
 284 476 338 498 383 498 c 0
 475 498 520 443 520 332 c 2
 520 64 l 1
 533 49 l 1
 586 45 l 1
 586 0 l 1
 341 0 l 1
 341 45 l 1
 384 49 l 1
 398 64 l 1
 398 303 l 2
 398 377 370 411 308 411 c 0
 282 411 250 405 212 394 c 1
 212 64 l 1
 227 49 l 1
 271 45 l 1
 271 0 l 1
 24 0 l 1
 24 45 l 1
 75 49 l 1
 89 64 l 1
 89 653 l 1
 16 653 l 1
 16 692 l 1
 164 739 l 1xf480
EndSplineSet
EndChar

StartChar: Itilde
Encoding: 296 296 227
Width: 354
GlyphClass: 2
Flags: MW
HStem: 0 49<30 30 30 329> 622 49<30 329 30 329> 774 72<230.5 261 230.5 280.5> 820 73<97 124>
VStem: 17 55<757 767 757 774 757 812.5> 112 134<70 603 70 603> 287 54<901 909 854.5 909>
LayerCount: 2
Fore
SplineSet
17 757 m 1x1a
 17 774 l 2x2a
 17 851 49 893 104 893 c 0x1a
 163 893 213 846 248 846 c 0x2a
 274 846 287 864 287 901 c 2
 287 909 l 1
 341 909 l 1
 341 893 l 2x1a
 341 816 307 774 254 774 c 0x2a
 189 774 139 820 109 820 c 0
 85 820 72 801 72 767 c 2
 72 757 l 1
 17 757 l 1x1a
30 0 m 1xc4
 30 49 l 1
 96 54 l 1
 112 70 l 1
 112 603 l 1
 96 617 l 1
 30 622 l 1
 30 671 l 1
 329 671 l 1
 329 622 l 1
 262 617 l 1
 246 603 l 1
 246 70 l 1
 262 54 l 1
 329 49 l 1
 329 0 l 1
 30 0 l 1xc4
EndSplineSet
EndChar

StartChar: itilde
Encoding: 297 297 228
Width: 305
GlyphClass: 2
Flags: MW
HStem: 0 45<30 292 30 30> 476 20G<173 221 221 221> 576 72<210.5 241 210.5 260.5> 622 73<77 104>
VStem: -3 55<559 569 559 576 559 614.5> 98 123<64 409 409 409> 267 54<703 711 656.5 711>
LayerCount: 2
Fore
SplineSet
-3 559 m 1x1a
 -3 576 l 2x2a
 -3 653 29 695 84 695 c 0x1a
 143 695 193 648 228 648 c 0x2a
 254 648 267 666 267 703 c 2
 267 711 l 1
 321 711 l 1
 321 695 l 2x1a
 321 618 287 576 234 576 c 0x2a
 169 576 119 622 89 622 c 0
 65 622 52 603 52 569 c 2
 52 559 l 1
 -3 559 l 1x1a
173 496 m 1xc4
 221 496 l 1
 221 64 l 1
 236 49 l 1
 292 45 l 1
 292 0 l 1
 30 0 l 1
 30 45 l 1
 84 49 l 1
 98 64 l 1
 98 409 l 1
 32 409 l 1
 32 449 l 1
 173 496 l 1xc4
EndSplineSet
EndChar

StartChar: Imacron
Encoding: 298 298 229
Width: 354
GlyphClass: 2
Flags: MW
HStem: 0 49<30 30 30 329> 622 49<30 329 30 329> 791 71<13 344 13 344>
VStem: 13 331<791 862 791 862> 112 134<70 603 70 603>
LayerCount: 2
Fore
SplineSet
13 791 m 1x30
 13 862 l 1
 344 862 l 1
 344 791 l 1
 13 791 l 1x30
30 0 m 1xc8
 30 49 l 1
 96 54 l 1
 112 70 l 1
 112 603 l 1
 96 617 l 1
 30 622 l 1
 30 671 l 1
 329 671 l 1
 329 622 l 1
 262 617 l 1
 246 603 l 1
 246 70 l 1
 262 54 l 1
 329 49 l 1
 329 0 l 1
 30 0 l 1xc8
EndSplineSet
EndChar

StartChar: imacron
Encoding: 299 299 230
Width: 305
GlyphClass: 2
Flags: MW
HStem: 0 45<30 292 30 30> 476 20G<173 221 221 221> 604 71<-6 325 -6 325>
VStem: -6 331<604 675 604 675> 98 123<64 409 409 409>
LayerCount: 2
Fore
SplineSet
-6 604 m 1x30
 -6 675 l 1
 325 675 l 1
 325 604 l 1
 -6 604 l 1x30
173 496 m 1xc8
 221 496 l 1
 221 64 l 1
 236 49 l 1
 292 45 l 1
 292 0 l 1
 30 0 l 1
 30 45 l 1
 84 49 l 1
 98 64 l 1
 98 409 l 1
 32 409 l 1
 32 449 l 1
 173 496 l 1xc8
EndSplineSet
EndChar

StartChar: Ibreve
Encoding: 300 300 231
Width: 354
GlyphClass: 2
Flags: MW
HStem: 0 49<30 30 30 329> 622 49<30 329 30 329> 754 71<143.5 216.5 143.5 234>
VStem: 27 51<892 899 899 905 870.5 906 870.5 906> 112 134<70 603 70 603> 281 51<899 905 905 905>
LayerCount: 2
Fore
SplineSet
27 892 m 2
 27 906 l 1
 78 905 l 1
 78 899 l 2
 78 842 107 825 180 825 c 0
 253 825 281 843 281 899 c 2
 281 905 l 1
 332 906 l 1
 332 895 l 2
 332 792 288 754 180 754 c 0
 72 754 27 791 27 892 c 2
30 0 m 1
 30 49 l 1
 96 54 l 1
 112 70 l 1
 112 603 l 1
 96 617 l 1
 30 622 l 1
 30 671 l 1
 329 671 l 1
 329 622 l 1
 262 617 l 1
 246 603 l 1
 246 70 l 1
 262 54 l 1
 329 49 l 1
 329 0 l 1
 30 0 l 1
EndSplineSet
EndChar

StartChar: ibreve
Encoding: 301 301 232
Width: 305
GlyphClass: 2
Flags: MW
HStem: 0 45<30 292 30 30> 476 20G<173 221 221 221> 559 71<123 196 123 214>
VStem: 6 51 98 123<64 409 409 409> 260 51
LayerCount: 2
Fore
SplineSet
6 697 m 2
 6 711 l 1
 58 710 l 1
 58 704 l 2
 58 647 86 630 160 630 c 0
 232 630 260 648 260 704 c 2
 260 710 l 1
 312 711 l 1
 312 700 l 2
 312 597 268 559 160 559 c 0
 52 559 6 596 6 697 c 2
173 496 m 1
 221 496 l 1
 221 64 l 1
 236 49 l 1
 292 45 l 1
 292 0 l 1
 30 0 l 1
 30 45 l 1
 84 49 l 1
 98 64 l 1
 98 409 l 1
 32 409 l 1
 32 449 l 1
 173 496 l 1
EndSplineSet
EndChar

StartChar: Iogonek
Encoding: 302 302 233
Width: 354
GlyphClass: 2
Flags: MW
HStem: -217 72<304 307> -13 20G<262 316 316 316> 0 49<30 30 30 329> 622 49<30 329 30 329>
VStem: 112 134<70 603 70 603> 194 73 262 54<7 7 7 54>
LayerCount: 2
Fore
SplineSet
194 -127 m 0x04
 194 -84 218 -33 262 7 c 1
 316 7 l 1x02
 284 -23 266 -59 266 -92 c 0
 266 -126 286 -145 322 -145 c 0
 330 -145 340 -144 354 -142 c 1
 354 -210 l 1
 334 -215 316 -217 298 -217 c 0
 230 -217 194 -185 194 -127 c 0x04
30 0 m 1x38
 30 49 l 1
 96 54 l 1
 112 70 l 1
 112 603 l 1
 96 617 l 1
 30 622 l 1
 30 671 l 1
 329 671 l 1
 329 622 l 1
 262 617 l 1
 246 603 l 1
 246 70 l 1
 262 54 l 1
 329 49 l 1
 329 0 l 1
 30 0 l 1x38
EndSplineSet
EndChar

StartChar: iogonek
Encoding: 303 303 234
Width: 305
GlyphClass: 2
Flags: MW
HStem: -217 72<256 258.5> -13 20G<214 268 268 268> 0 45<30 292 30 30> 476 20G<173 221 221 221> 575 149<143 184>
VStem: 90 147<628.5 670.5> 98 123<64 409 409 409> 145 73<-109 -105.5> 214 54<7 7>
LayerCount: 2
Fore
SplineSet
145 -127 m 0x01
 145 -84 169 -33 214 7 c 1
 268 7 l 1x0080
 235 -23 218 -59 218 -92 c 0
 218 -126 238 -145 274 -145 c 0
 282 -145 292 -144 305 -142 c 1
 305 -210 l 1
 286 -215 267 -217 250 -217 c 0
 181 -217 145 -185 145 -127 c 0x01
162 724 m 0x3c
 207 724 237 692 237 651 c 0
 237 606 205 575 163 575 c 0
 123 575 90 605 90 649 c 0
 90 692 121 724 162 724 c 0x3c
173 496 m 1
 221 496 l 1
 221 64 l 1
 236 49 l 1
 292 45 l 1
 292 0 l 1
 30 0 l 1
 30 45 l 1
 84 49 l 1
 98 64 l 1
 98 409 l 1x3a
 32 409 l 1
 32 449 l 1
 173 496 l 1
EndSplineSet
EndChar

StartChar: Idotaccent
Encoding: 304 304 235
Width: 354
GlyphClass: 2
Flags: MW
HStem: 0 49<30 30 30 329> 622 49<30 329 30 329> 749 134<161 196.5 161 197>
VStem: 112 134<70 603 70 603>
LayerCount: 2
Fore
SplineSet
179 883 m 0
 214 883 244 853 244 815 c 0
 244 779 215 749 179 749 c 0
 142 749 114 778 114 815 c 0
 114 853 143 883 179 883 c 0
30 0 m 1
 30 49 l 1
 96 54 l 1
 112 70 l 1
 112 603 l 1
 96 617 l 1
 30 622 l 1
 30 671 l 1
 329 671 l 1
 329 622 l 1
 262 617 l 1
 246 603 l 1
 246 70 l 1
 262 54 l 1
 329 49 l 1
 329 0 l 1
 30 0 l 1
EndSplineSet
EndChar

StartChar: dotlessi
Encoding: 305 305 236
Width: 305
GlyphClass: 2
Flags: MW
HStem: 0 45<30 292 30 30> 476 20G<173 221 221 221>
VStem: 98 123<64 409 409 409>
AnchorPoint: "Anchor-2" 160 0 basechar 0
AnchorPoint: "Anchor-1" 160 499 basechar 0
LayerCount: 2
Fore
SplineSet
173 496 m 1
 221 496 l 1
 221 64 l 1
 236 49 l 1
 292 45 l 1
 292 0 l 1
 30 0 l 1
 30 45 l 1
 84 49 l 1
 98 64 l 1
 98 409 l 1
 32 409 l 1
 32 449 l 1
 173 496 l 1
EndSplineSet
Substitution2: "'smcp' Lowercase to Small Capitals in Latin lookup 3 subtable" i.sc
EndChar

StartChar: IJ
Encoding: 306 306 237
Width: 768
GlyphClass: 2
Flags: MW
HStem: -12 58<459.5 507.5 459.5 560.5> 0 49<30 30 30 329> 622 49<30 329 30 329>
VStem: 112 134<70 603 70 603> 336 73<12 192 192 192> 580 131<261 262 262 603>
LayerCount: 2
Fore
SplineSet
580 603 m 1xac
 564 617 l 1
 494 622 l 1
 494 671 l 1
 788 671 l 1
 788 622 l 1
 727 617 l 1
 711 603 l 1
 711 262 l 2
 711 75 642 -12 479 -12 c 0
 432 -12 385 -4 336 12 c 1
 336 192 l 1
 409 192 l 1
 432 60 l 1
 446 47 l 2
 451 47 457 46 462 46 c 0
 553 46 580 115 580 261 c 2
 580 603 l 1xac
30 0 m 1x70
 30 49 l 1
 96 54 l 1
 112 70 l 1
 112 603 l 1
 96 617 l 1
 30 622 l 1
 30 671 l 1
 329 671 l 1
 329 622 l 1
 262 617 l 1
 246 603 l 1
 246 70 l 1
 262 54 l 1
 329 49 l 1
 329 0 l 1
 30 0 l 1x70
EndSplineSet
Substitution2: "'c2sc' Capitals to Small Capitals in Latin lookup 6 subtable" ij.sc
EndChar

StartChar: ij
Encoding: 307 307 238
Width: 602
GlyphClass: 2
Flags: MW
HStem: 0 45<30 292 30 30> 409 39<343 414 343 343> 476 20G<173 221 221 221 494 536 536 536> 575 149<143 184 452 492.5>
VStem: 90 147<628.5 670.5> 98 123<64 409 409 409> 399 148<627.5 670 627.5 671> 414 122<48 98 98 409 409 409>
LayerCount: 2
Fore
SplineSet
414 409 m 1x71
 343 409 l 1
 343 448 l 1
 494 496 l 1
 536 496 l 1
 536 98 l 2
 536 -2 527 -76 482 -134 c 0
 443 -184 380 -214 316 -214 c 0
 260 -214 225 -184 225 -144 c 0
 225 -112 247 -85 283 -78 c 1
 381 -169 l 1
 406 -135 414 -69 414 29 c 2
 414 409 l 1x71
399 649 m 0x72
 399 693 429 724 474 724 c 0
 515 724 547 692 547 648 c 0
 547 607 513 575 472 575 c 0
 432 575 399 605 399 649 c 0x72
162 724 m 0xb8
 207 724 237 692 237 651 c 0
 237 606 205 575 163 575 c 0
 123 575 90 605 90 649 c 0
 90 692 121 724 162 724 c 0xb8
173 496 m 1
 221 496 l 1
 221 64 l 1
 236 49 l 1
 292 45 l 1
 292 0 l 1
 30 0 l 1
 30 45 l 1
 84 49 l 1
 98 64 l 1
 98 409 l 1xb4
 32 409 l 1
 32 449 l 1
 173 496 l 1
EndSplineSet
Substitution2: "'smcp' Lowercase to Small Capitals in Latin lookup 4 subtable" ij.sc
EndChar

StartChar: Jcircumflex
Encoding: 308 308 239
Width: 465
GlyphClass: 2
Flags: MW
HStem: -12 58<135.5 183.5 135.5 236.5> 622 49<170 464 170 464> 739 190<168 366 168 366 278 399 278 476>
VStem: 12 73<12 192 192 192> 168 78<739 739> 256 131<261 262 262 603> 399 77<739 739>
LayerCount: 2
Fore
SplineSet
168 739 m 1
 278 929 l 1
 366 929 l 1
 476 739 l 1
 399 739 l 1
 322 864 l 1
 246 739 l 1
 168 739 l 1
256 603 m 1
 240 617 l 1
 170 622 l 1
 170 671 l 1
 464 671 l 1
 464 622 l 1
 403 617 l 1
 387 603 l 1
 387 262 l 2
 387 75 318 -12 155 -12 c 0
 108 -12 61 -4 12 12 c 1
 12 192 l 1
 85 192 l 1
 108 60 l 1
 122 47 l 2
 127 47 133 46 138 46 c 0
 229 46 256 115 256 261 c 2
 256 603 l 1
EndSplineSet
EndChar

StartChar: jcircumflex
Encoding: 309 309 240
Width: 297
GlyphClass: 2
Flags: MW
HStem: 409 39<38 109 38 38> 476 20G<189 231 231 231> 559 190<16 214 16 214 126 324 126 247>
VStem: 16 78<559 559> 109 122<48 98 98 409 409 409> 247 77<559 559>
LayerCount: 2
Fore
SplineSet
126 749 m 1
 214 749 l 1
 324 559 l 1
 247 559 l 1
 170 684 l 1
 94 559 l 1
 16 559 l 1
 126 749 l 1
109 409 m 1
 38 409 l 1
 38 448 l 1
 189 496 l 1
 231 496 l 1
 231 98 l 2
 231 -2 222 -76 177 -134 c 0
 138 -184 75 -214 11 -214 c 0
 -45 -214 -80 -184 -80 -144 c 0
 -80 -112 -58 -85 -22 -78 c 1
 76 -169 l 1
 101 -135 109 -69 109 29 c 2
 109 409 l 1
EndSplineSet
EndChar

StartChar: uni0136
Encoding: 310 310 241
Width: 650
GlyphClass: 2
Flags: MW
HStem: -364 46<256 256> -182 122<333 368 306 382> 0 49<30 30 30 314> 294 47<239 267 239 297 239 267> 622 49<30 314 30 314>
VStem: 106 133<70 294 341 603> 368 78<-192 -182 -182 -182>
LayerCount: 2
Fore
SplineSet
256 -364 m 1
 256 -318 l 1
 328 -305 368 -261 368 -192 c 2
 368 -182 l 1
 306 -182 l 1
 292 -167 284 -150 284 -128 c 0
 284 -87 312 -60 354 -60 c 0
 410 -60 446 -100 446 -166 c 0
 446 -267 372 -351 256 -364 c 1
30 0 m 1
 30 49 l 1
 91 54 l 1
 106 70 l 1
 106 603 l 1
 91 617 l 1
 30 622 l 1
 30 671 l 1
 314 671 l 1
 314 622 l 1
 255 617 l 1
 239 603 l 1
 239 341 l 1
 267 341 l 1
 484 604 l 1
 478 617 l 1
 422 622 l 1
 422 671 l 1
 647 671 l 1
 647 622 l 1
 577 615 l 1
 387 388 l 1
 600 55 l 1
 672 49 l 1
 672 0 l 1
 465 0 l 1
 465 35 l 1
 297 294 l 1
 239 294 l 1
 239 70 l 1
 255 54 l 1
 314 49 l 1
 314 0 l 1
 30 0 l 1
EndSplineSet
EndChar

StartChar: uni0137
Encoding: 311 311 242
Width: 553
GlyphClass: 2
Flags: MW
HStem: -364 46<204 204> -182 122<280 314 252 328> 0 44<25 25 25 277> 226 33<214 236 214 263 214 236> 442 44<328 532 328 532> 653 39<18 91 18 18> 719 20G<172 214 214 214>
VStem: 91 123<64 226 259 653 653 653> 314 78<-192 -182 -182 -182>
LayerCount: 2
Fore
SplineSet
204 -364 m 1
 204 -318 l 1
 276 -305 314 -261 314 -192 c 2
 314 -182 l 1
 252 -182 l 1
 238 -167 232 -150 232 -128 c 0
 232 -87 260 -60 300 -60 c 0
 356 -60 392 -100 392 -166 c 0
 392 -267 318 -351 204 -364 c 1
25 0 m 1
 25 44 l 1
 77 49 l 1
 91 64 l 1
 91 653 l 1
 18 653 l 1
 18 692 l 1
 172 739 l 1
 214 739 l 1
 214 259 l 1
 236 259 l 1
 379 426 l 1
 372 437 l 1
 328 442 l 1
 328 486 l 1
 532 486 l 1
 532 442 l 1
 467 434 l 1
 353 307 l 1
 512 49 l 1
 571 44 l 1
 571 0 l 1
 379 0 l 1
 379 39 l 1
 263 226 l 1
 214 226 l 1
 214 62 l 1
 227 48 l 1
 277 44 l 1
 277 0 l 1
 25 0 l 1
EndSplineSet
EndChar

StartChar: Lacute
Encoding: 313 313 243
Width: 543
GlyphClass: 2
Flags: MW
HStem: 0 49<27 27 27 532> 0 58<238 430 238 532> 622 49<27 315 27 315> 742 21G<136 203 136 136>
VStem: 105 133<70 603 58 603> 458 74<0 196>
LayerCount: 2
Fore
SplineSet
233 932 m 1x3c
 357 932 l 1
 203 742 l 1
 136 742 l 1
 233 932 l 1x3c
27 0 m 1xbc
 27 49 l 1xbc
 88 54 l 1
 105 70 l 1
 105 603 l 1
 91 617 l 1
 27 622 l 1
 27 671 l 1
 315 671 l 1
 315 622 l 1
 254 617 l 1
 238 603 l 1
 238 58 l 1
 430 58 l 1x7c
 443 74 l 1
 458 196 l 1
 532 196 l 1
 532 0 l 1
 27 0 l 1xbc
EndSplineSet
Substitution2: "'c2sc' Capitals to Small Capitals in Latin lookup 7 subtable" lacute.sc
EndChar

StartChar: lacute
Encoding: 314 314 244
Width: 304
GlyphClass: 2
Flags: MW
HStem: 0 44<23 23 23 291> 652 39<23 95 23 23> 719 20G<174 218 218 218>
VStem: 95 123<66 652 652 652>
LayerCount: 2
Fore
SplineSet
173 962 m 1
 297 962 l 1
 143 772 l 1
 76 772 l 1
 173 962 l 1
23 0 m 1
 23 44 l 1
 81 50 l 1
 95 64 l 1
 95 652 l 1
 23 652 l 1
 23 691 l 1
 174 739 l 1
 218 739 l 1
 218 66 l 1
 233 50 l 1
 291 44 l 1
 291 0 l 1
 23 0 l 1
EndSplineSet
Substitution2: "'smcp' Lowercase to Small Capitals in Latin lookup 3 subtable" lacute.sc
EndChar

StartChar: uni013B
Encoding: 315 315 245
Width: 543
GlyphClass: 2
Flags: MW
HStem: -364 46<185 185> -182 122<261.5 296 234 310> 0 49<27 27 27 532> 0 58<238 430 238 532> 622 49<27 315 27 315>
VStem: 105 133<70 603 58 603> 296 78<-192 -182 -182 -182> 458 74<0 196>
LayerCount: 2
Fore
SplineSet
185 -364 m 1xc2
 185 -318 l 1
 257 -305 296 -261 296 -192 c 2
 296 -182 l 1
 234 -182 l 1
 220 -167 213 -150 213 -128 c 0
 213 -87 241 -60 282 -60 c 0
 338 -60 374 -100 374 -166 c 0
 374 -267 300 -351 185 -364 c 1xc2
27 0 m 1x2d
 27 49 l 1x2d
 88 54 l 1
 105 70 l 1
 105 603 l 1
 91 617 l 1
 27 622 l 1
 27 671 l 1
 315 671 l 1
 315 622 l 1
 254 617 l 1
 238 603 l 1
 238 58 l 1
 430 58 l 1x1d
 443 74 l 1
 458 196 l 1
 532 196 l 1
 532 0 l 1
 27 0 l 1x2d
EndSplineSet
EndChar

StartChar: uni013C
Encoding: 316 316 246
Width: 304
GlyphClass: 2
Flags: MW
HStem: -364 46<62 62> -182 122<139 174 112 188> 0 44<23 23 23 291> 652 39<23 95 23 23> 719 20G<174 218 218 218>
VStem: 95 123<66 652 652 652> 174 78<-192 -182 -182 -182>
LayerCount: 2
Fore
SplineSet
62 -364 m 1xc2
 62 -318 l 1
 134 -305 174 -261 174 -192 c 2
 174 -182 l 1
 112 -182 l 1
 98 -167 90 -150 90 -128 c 0
 90 -87 118 -60 160 -60 c 0
 216 -60 252 -100 252 -166 c 0
 252 -267 178 -351 62 -364 c 1xc2
23 0 m 1x3c
 23 44 l 1
 81 50 l 1
 95 64 l 1
 95 652 l 1
 23 652 l 1
 23 691 l 1
 174 739 l 1
 218 739 l 1
 218 66 l 1
 233 50 l 1
 291 44 l 1
 291 0 l 1
 23 0 l 1x3c
EndSplineSet
EndChar

StartChar: Lcaron
Encoding: 317 317 247
Width: 543
GlyphClass: 2
Flags: MW
HStem: 0 49<27 27 27 532> 0 58<238 430 238 532> 578 120<399 430 370 446.5> 622 49<27 315 27 315>
VStem: 105 133<70 603 58 603> 351 158<619.5 626 553 649.5> 431 78<553 564.5> 458 74<0 196>
LayerCount: 2
Fore
SplineSet
359 395 m 1x2c
 338 425 l 1
 400 462 431 509 431 562 c 0x2a
 431 567 431 572 430 578 c 1
 370 578 l 1
 358 593 351 610 351 629 c 0
 351 670 378 698 420 698 c 0
 473 698 509 658 509 594 c 0
 509 512 457 438 359 395 c 1x2c
27 0 m 1x89
 27 49 l 1x89
 88 54 l 1
 105 70 l 1
 105 603 l 1
 91 617 l 1
 27 622 l 1
 27 671 l 1
 315 671 l 1
 315 622 l 1
 254 617 l 1
 238 603 l 1
 238 58 l 1
 430 58 l 1x59
 443 74 l 1
 458 196 l 1
 532 196 l 1
 532 0 l 1
 27 0 l 1x89
EndSplineSet
Substitution2: "'c2sc' Capitals to Small Capitals in Latin lookup 7 subtable" lcaron.sc
EndChar

StartChar: lcaron
Encoding: 318 318 248
Width: 304
GlyphClass: 2
Flags: MW
HStem: 0 44<23 23 23 291> 578 120<289 320 260 336.5> 652 39<23 95 23 23> 719 20G<174 218 218 218>
VStem: 95 123<66 652 652 652> 241 158<619.5 626 553 649.5> 321 78<553 564.5>
LayerCount: 2
Fore
SplineSet
249 395 m 1xdc
 228 425 l 1
 290 462 321 509 321 562 c 0xda
 321 567 321 572 320 578 c 1
 260 578 l 1
 248 593 241 610 241 629 c 0
 241 670 268 698 310 698 c 0
 363 698 399 658 399 594 c 0
 399 512 347 438 249 395 c 1xdc
23 0 m 1
 23 44 l 1
 81 50 l 1
 95 64 l 1
 95 652 l 1
 23 652 l 1
 23 691 l 1xb8
 174 739 l 1
 218 739 l 1
 218 66 l 1
 233 50 l 1
 291 44 l 1
 291 0 l 1
 23 0 l 1
EndSplineSet
Substitution2: "'smcp' Lowercase to Small Capitals in Latin lookup 3 subtable" lcaron.sc
EndChar

StartChar: Ldot
Encoding: 319 319 249
Width: 543
GlyphClass: 2
Flags: MW
HStem: 0 49<27 27 27 532> 0 58<238 430 238 532> 264 159 622 49<27 315 27 315>
VStem: 105 133<70 603 58 603> 290 158<321 364 321 364> 458 74<0 196>
LayerCount: 2
Fore
SplineSet
368 422 m 0x24
 412 422 448 386 448 342 c 0
 448 300 412 264 368 264 c 0
 326 264 290 298 290 342 c 0
 290 386 326 422 368 422 c 0x24
27 0 m 1x9a
 27 49 l 1x9a
 88 54 l 1
 105 70 l 1
 105 603 l 1
 91 617 l 1
 27 622 l 1
 27 671 l 1
 315 671 l 1
 315 622 l 1
 254 617 l 1
 238 603 l 1
 238 58 l 1
 430 58 l 1x5a
 443 74 l 1
 458 196 l 1
 532 196 l 1
 532 0 l 1
 27 0 l 1x9a
EndSplineSet
EndChar

StartChar: ldot
Encoding: 320 320 250
Width: 453
GlyphClass: 2
Flags: MW
HStem: 0 44<23 23 23 291> 256 159<316.5 360> 652 39<23 95 23 23> 719 20G<174 218 218 218>
VStem: 95 123<66 652 652 652> 260 158<313.5 357 313.5 357>
LayerCount: 2
Fore
SplineSet
338 415 m 0
 382 415 418 379 418 335 c 0
 418 292 382 256 338 256 c 0
 295 256 260 291 260 335 c 0
 260 379 295 415 338 415 c 0
23 0 m 1
 23 44 l 1
 81 50 l 1
 95 64 l 1
 95 652 l 1
 23 652 l 1
 23 691 l 1
 174 739 l 1
 218 739 l 1
 218 66 l 1
 233 50 l 1
 291 44 l 1
 291 0 l 1
 23 0 l 1
EndSplineSet
EndChar

StartChar: Lslash
Encoding: 321 321 251
Width: 543
GlyphClass: 2
Flags: MW
HStem: 0 49<27 532 27 27> 0 58<237 430 237 532> 473 20G<334 334> 622 49<27 315 27 315>
VStem: 105 132<70 276 276 276 341 362 428 603> 457 75<0 196>
LayerCount: 2
Fore
SplineSet
27 671 m 1xbc
 315 671 l 1
 315 622 l 1
 254 617 l 1
 237 603 l 1
 237 428 l 1
 334 493 l 1
 365 448 l 1
 237 362 l 1
 237 58 l 1
 430 58 l 1x7c
 442 74 l 1
 457 196 l 1
 532 196 l 1
 532 0 l 1
 27 0 l 1
 27 49 l 1
 88 54 l 1
 105 70 l 1
 105 276 l 1
 35 228 l 1
 9 275 l 1
 105 341 l 1
 105 603 l 1
 91 617 l 1
 27 622 l 1
 27 671 l 1xbc
EndSplineSet
Substitution2: "'c2sc' Capitals to Small Capitals in Latin lookup 6 subtable" lslash.sc
Position2: "'cpsp' Capital Spacing in Latin lookup 2 subtable" dx=7 dy=0 dh=14 dv=0
EndChar

StartChar: lslash
Encoding: 322 322 252
Width: 304
GlyphClass: 2
Flags: MW
HStem: 0 44<23 291 23 23> 476 20G<297 297> 652 39<23 95 23 23> 719 20G<174 218 218 218>
VStem: 95 123<66 291 291 291 355 375 66 652>
AnchorPoint: "Anchor-1" 122 739 basechar 0
LayerCount: 2
Fore
SplineSet
174 739 m 1
 218 739 l 1
 219 441 l 1
 297 496 l 1
 328 451 l 1
 218 375 l 1
 218 66 l 1
 233 50 l 1
 291 44 l 1
 291 0 l 1
 23 0 l 1
 23 44 l 1
 81 50 l 1
 95 64 l 1
 95 291 l 1
 26 242 l 1
 -2 288 l 1
 95 355 l 1
 95 652 l 1
 23 652 l 1
 23 691 l 1
 174 739 l 1
EndSplineSet
Substitution2: "'smcp' Lowercase to Small Capitals in Latin lookup 4 subtable" lslash.sc
EndChar

StartChar: Nacute
Encoding: 323 323 253
Width: 727
GlyphClass: 2
Flags: MW
HStem: 0 48<26 26 26 254> 622 49<25 255> 742 21G<296 363 296 296>
VStem: 103 73<74 537 74 603 74 603> 561 73<169 597 0 597>
LayerCount: 2
Fore
SplineSet
393 932 m 1
 517 932 l 1
 363 742 l 1
 296 742 l 1
 393 932 l 1
26 0 m 1
 26 48 l 1
 85 56 l 1
 103 74 l 1
 103 603 l 1
 89 617 l 1
 25 622 l 1
 25 671 l 1
 255 671 l 1
 255 644 l 1
 561 169 l 1
 561 597 l 1
 543 616 l 1
 482 624 l 1
 482 671 l 1
 710 671 l 1
 710 624 l 1
 651 616 l 1
 634 597 l 1
 634 0 l 1
 522 0 l 1
 176 537 l 1
 176 74 l 1
 192 56 l 1
 254 48 l 1
 254 0 l 1
 26 0 l 1
EndSplineSet
Substitution2: "'c2sc' Capitals to Small Capitals in Latin lookup 7 subtable" nacute.sc
EndChar

